{
copyright = "Cody Jones";
customParameters = (
{
name = glyphOrder;
value = (
    A,
    Agrave,
    Aacute,
    Acircumflex,
    Atilde,
    Adieresis,
    Aring,
    B,
    C,
    Ccedilla,
    D,
    E,
    Egrave,
    Eacute,
    Ecircumflex,
    Edieresis,
    F,
    G,
    H,
    I,
    Igrave,
    Iacute,
    Icircumflex,
    Idieresis,
    J,
    K,
    L,
    M,
    N,
    Ntilde,
    O,
    Ograve,
    Oacute,
    Ocircumflex,
    Otilde,
    Odieresis,
    P,
    Q,
    R,
    S,
    Scaron,
    T,
    U,
    Ugrave,
    Uacute,
    Ucircumflex,
    Udieresis,
    V,
    W,
    X,
    Y,
    Yacute,
    Ydieresis,
    Z,
    Zcaron,
    AE,
    Eth,
    Oslash,
    Thorn,
    Lslash,
    OE,
    uni00B5,
    a,
    agrave,
    aacute,
    acircumflex,
    atilde,
    adieresis,
    aring,
    b,
    c,
    ccedilla,
    d,
    e,
    egrave,
    eacute,
    ecircumflex,
    edieresis,
    f,
    g,
    h,
    i,
    igrave,
    iacute,
    icircumflex,
    idieresis,
    j,
    k,
    l,
    m,
    n,
    ntilde,
    o,
    ograve,
    oacute,
    ocircumflex,
    otilde,
    odieresis,
    p,
    q,
    r,
    s,
    scaron,
    t,
    u,
    ugrave,
    uacute,
    ucircumflex,
    udieresis,
    v,
    w,
    x,
    y,
    yacute,
    ydieresis,
    z,
    zcaron,
    ordfeminine,
    ordmasculine,
    germandbls,
    ae,
    eth,
    oslash,
    thorn,
    dotlessi,
    lslash,
    oe,
    florin,
    pi,
    circumflex,
    caron,
    uni02C9,
    zero,
    one,
    two,
    three,
    four,
    five,
    six,
    seven,
    eight,
    nine,
    onequarter,
    onehalf,
    threequarters,
    underscore,
    hyphen,
    endash,
    emdash,
    parenleft,
    bracketleft,
    braceleft,
    quotesinglbase,
    quotedblbase,
    parenright,
    bracketright,
    braceright,
    guillemotleft,
    quoteleft,
    quotedblleft,
    guilsinglleft,
    guillemotright,
    quoteright,
    quotedblright,
    guilsinglright,
    exclam,
    quotedbl,

glyphs = (
{
color = (171,149,252,1);
glyphname = A;
layers = (
{
layerId = "1D181ACA-DA77-4A70-94E7-537F1008817F";
name = Regular;
paths = (
{
closed = 1;
nodes = (
"567 0 LINE",
"341 626 LINE",
"259 626 LINE",
"33 0 LINE",
"127 0 LINE",
"302 513 LINE",
"300 513 LINE",
"298 513 LINE",
"473 0 LINE"
);
},
{
closed = 1;
nodes = (
"468 154 LINE",
"468 212 LINE",
"131 212 LINE",
"131 154 LINE"
);
}
);
width = 600;
}
);
unicode = 0041;
userData = {
com.typemytype.robofont.layerData = {
background = {
anchors = (
);
components = (
);
contours = (
);
lib = {
};
name = A;
unicodes = (
);
width = 550;
};
};
com.typemytype.robofont.mark = (
0.6705882352941176,
0.5843137254901961,
0.9882352941176471,
1
);
};
},
{
glyphname = Agrave;
layers = (
{
components = (
{
name = A;
transform = "{1, 0, 0, 1, 0, 0}";
}
);
layerId = "1D181ACA-DA77-4A70-94E7-537F1008817F";
name = Regular;
paths = (
{
closed = 1;
nodes = (
"310 691 LINE",
"227 691 LINE",
"91 792 LINE",
"209 792 LINE"
);
}
);
width = 600;
}
);
unicode = 00C0;
userData = {
com.typemytype.robofont.guides = (
{
angle = 90;
isGlobal = 0;
magnetic = 5;
x = 230;
y = 649;
}
);
com.typemytype.robofont.layerData = {
background = {
anchors = (
);
components = (
);
contours = (
);
lib = {
};
name = Agrave;
unicodes = (
);
width = 550;
};
};
};
},
{
glyphname = Aacute;
layers = (
{
components = (
{
name = A;
transform = "{1, 0, 0, 1, 0, 0}";
}
);
layerId = "1D181ACA-DA77-4A70-94E7-537F1008817F";
name = Regular;
paths = (
{
closed = 1;
nodes = (
"227 691 LINE",
"328 792 LINE",
"446 792 LINE",
"310 691 LINE"
);
}
);
width = 600;
}
);
unicode = 00C1;
userData = {
com.typemytype.robofont.layerData = {
background = {
anchors = (
);
components = (
);
contours = (
);
lib = {
};
name = Aacute;
unicodes = (
);
width = 550;
};
};
};
},
{
glyphname = Acircumflex;
layers = (
{
components = (
{
name = A;
transform = "{1, 0, 0, 1, 0, 0}";
}
);
layerId = "1D181ACA-DA77-4A70-94E7-537F1008817F";
name = Regular;
paths = (
{
closed = 1;
nodes = (
"432 687 LINE",
"345 687 LINE",
"268 772 LINE",
"192 687 LINE",
"107 687 LINE",
"226 825 LINE",
"306 825 LINE"
);
}
);
width = 600;
}
);
unicode = 00C2;
userData = {
com.typemytype.robofont.layerData = {
background = {
anchors = (
);
components = (
);
contours = (
);
lib = {
};
name = Acircumflex;
unicodes = (
);
width = 550;
};
};
};
},
{
glyphname = Atilde;
layers = (
{
components = (
{
name = A;
transform = "{1, 0, 0, 1, 25, 0}";
}
);
layerId = "1D181ACA-DA77-4A70-94E7-537F1008817F";
name = Regular;
paths = (
{
closed = 1;
nodes = (
"27 0 LINE"
);
},
{
closed = 1;
nodes = (
"121 728 OFFCURVE",
"158 798 OFFCURVE",
"226 798 CURVE SMOOTH",
"293 798 OFFCURVE",
"320 745 OFFCURVE",
"363 745 CURVE SMOOTH",
"402 745 OFFCURVE",
"425 791 OFFCURVE",
"425 791 CURVE",
"425 791 OFFCURVE",
"466 752 OFFCURVE",
"466 752 CURVE",
"466 752 OFFCURVE",
"421 684 OFFCURVE",
"362 684 CURVE SMOOTH",
"302 684 OFFCURVE",
"261 736 OFFCURVE",
"223 736 CURVE SMOOTH",
"184 736 OFFCURVE",
"162 690 OFFCURVE",
"162 690 CURVE",
"121 728 LINE"
);
}
);
width = 600;
}
);
unicode = 00C3;
userData = {
com.typemytype.robofont.layerData = {
background = {
anchors = (
);
components = (
);
contours = (
);
lib = {
};
name = Atilde;
unicodes = (
);
width = 550;
};
};
};
},
{
glyphname = Adieresis;
layers = (
{
components = (
{
name = A;
transform = "{1, 0, 0, 1, 0, 0}";
}
);
layerId = "1D181ACA-DA77-4A70-94E7-537F1008817F";
name = Regular;
paths = (
{
closed = 1;
nodes = (
"217 729 CURVE SMOOTH",
"217 758 OFFCURVE",
"194 783 OFFCURVE",
"163 783 CURVE SMOOTH",
"134 783 OFFCURVE",
"111 758 OFFCURVE",
"111 729 CURVE SMOOTH",
"111 699 OFFCURVE",
"134 675 OFFCURVE",
"163 675 CURVE SMOOTH",
"194 675 OFFCURVE",
"217 699 OFFCURVE"
);
},
{
closed = 1;
nodes = (
"427 729 CURVE SMOOTH",
"427 758 OFFCURVE",
"403 783 OFFCURVE",
"373 783 CURVE SMOOTH",
"343 783 OFFCURVE",
"320 758 OFFCURVE",
"320 729 CURVE SMOOTH",
"320 699 OFFCURVE",
"343 675 OFFCURVE",
"373 675 CURVE SMOOTH",
"403 675 OFFCURVE",
"427 699 OFFCURVE"
);
}
);
width = 600;
}
);
unicode = 00C4;
userData = {
com.typemytype.robofont.guides = (
);
com.typemytype.robofont.layerData = {
background = {
anchors = (
);
components = (
);
contours = (
);
lib = {
};
name = Adieresis;
unicodes = (
);
width = 550;
};
};
};
},
{
glyphname = Aring;
layers = (
{
components = (
{
name = A;
transform = "{1, 0, 0, 1, 0, 0}";
}
);
layerId = "1D181ACA-DA77-4A70-94E7-537F1008817F";
name = Regular;
paths = (
{
closed = 1;
nodes = (
"269 869 CURVE SMOOTH",
"215 869 OFFCURVE",
"172 826 OFFCURVE",
"172 773 CURVE SMOOTH",
"172 719 OFFCURVE",
"215 676 OFFCURVE",
"269 676 CURVE SMOOTH",
"322 676 OFFCURVE",
"365 719 OFFCURVE",
"365 773 CURVE SMOOTH",
"365 826 OFFCURVE",
"322 869 OFFCURVE"
);
},
{
closed = 1;
nodes = (
"269 729 CURVE SMOOTH",
"245 729 OFFCURVE",
"225 748 OFFCURVE",
"225 773 CURVE SMOOTH",
"225 796 OFFCURVE",
"245 816 OFFCURVE",
"269 816 CURVE SMOOTH",
"293 816 OFFCURVE",
"312 796 OFFCURVE",
"312 773 CURVE SMOOTH",
"312 748 OFFCURVE",
"293 729 OFFCURVE"
);
}
);
width = 600;
}
);
unicode = 00C5;
userData = {
com.typemytype.robofont.layerData = {
background = {
anchors = (
);
components = (
);
contours = (
);
lib = {
};
name = Aring;
unicodes = (
);
width = 550;
};
};
};
},
{
color = (160,141,255,1);
glyphname = B;
layers = (
{
layerId = "1D181ACA-DA77-4A70-94E7-537F1008817F";
name = Regular;
paths = (
{
closed = 1;
nodes = (
"272 561 CURVE SMOOTH",
"362 561 OFFCURVE",
"403 531 OFFCURVE",
"403 466 CURVE SMOOTH",
"403 389 OFFCURVE",
"371 355 OFFCURVE",
"301 355 CURVE SMOOTH",
"265 355 OFFCURVE",
"205 355 OFFCURVE",
"184 355 CURVE",
"184 561 LINE",
"201 561 OFFCURVE",
"244 561 OFFCURVE"
);
},
{
closed = 1;
nodes = (
"289 69 CURVE SMOOTH",
"254 69 OFFCURVE",
"192 69 OFFCURVE",
"184 69 CURVE",
"184 287 LINE",
"192 287 OFFCURVE",
"262 287 OFFCURVE",
"307 287 CURVE SMOOTH",
"388 287 OFFCURVE",
"424 252 OFFCURVE",
"424 176 CURVE SMOOTH",
"424 103 OFFCURVE",
"382 69 OFFCURVE"
);
},
{
closed = 1;
nodes = (
"376 327 CURVE",
"449 327 OFFCURVE",
"481 368 OFFCURVE",
"481 460 CURVE SMOOTH",
"481 574 OFFCURVE",
"428 626 OFFCURVE",
"310 626 CURVE SMOOTH",
"310 626 OFFCURVE",
"90 626 OFFCURVE",
"90 626 CURVE",
"90 327 LINE",
"90 325 LINE",
"90 0 LINE",
"90 0 OFFCURVE",
"292 0 OFFCURVE",
"326 0 CURVE SMOOTH",
"454 0 OFFCURVE",
"510 56 OFFCURVE",
"510 179 CURVE SMOOTH",
"510 281 OFFCURVE",
"468 327 OFFCURVE"
);
}
);
width = 600;
}
);
unicode = 0042;
userData = {
com.typemytype.robofont.layerData = {
background = {
anchors = (
);
components = (
);
contours = (
);
lib = {
};
name = B;
unicodes = (
);
width = 550;
};
};
com.typemytype.robofont.mark = (
0.6256,
0.551,
1,
1
);
};
},
{
color = (160,141,255,1);
glyphname = C;
layers = (
{
layerId = "1D181ACA-DA77-4A70-94E7-537F1008817F";
name = Regular;
paths = (
{
closed = 1;
nodes = (
"337 559 CURVE SMOOTH",
"439 559 OFFCURVE",
"520 528 OFFCURVE",
"520 528 CURVE",
"520 596 LINE",
"520 596 OFFCURVE",
"458 632 OFFCURVE",
"329 632 CURVE SMOOTH",
"173 632 OFFCURVE",
"80 513 OFFCURVE",
"80 312 CURVE SMOOTH",
"80 113 OFFCURVE",
"173 -6 OFFCURVE",
"329 -6 CURVE SMOOTH",
"458 -6 OFFCURVE",
"520 30 OFFCURVE",
"520 30 CURVE",
"520 112 LINE",
"520 112 OFFCURVE",
"449 70 OFFCURVE",
"343 70 CURVE SMOOTH",
"240 70 OFFCURVE",
"180 160 OFFCURVE",
"180 312 CURVE SMOOTH",
"180 467 OFFCURVE",
"238 559 OFFCURVE"
);
}
);
width = 600;
}
);
unicode = 0043;
userData = {
com.typemytype.robofont.layerData = {
background = {
anchors = (
);
components = (
);
contours = (
);
lib = {
};
name = C;
unicodes = (
);
width = 550;
};
};
com.typemytype.robofont.mark = (
0.6256,
0.551,
1,
1
);
};
},
{
glyphname = Ccedilla;
layers = (
{
components = (
{
name = C;
transform = "{1, 0, 0, 1, 0, 0}";
}
);
layerId = "1D181ACA-DA77-4A70-94E7-537F1008817F";
name = Regular;
paths = (
{
closed = 1;
nodes = (
"371 43 LINE",
"245 43 LINE",
"245 0 LINE",
"192 -170 LINE",
"263 -170 LINE",
"371 0 LINE"
);
}
);
width = 600;
}
);
unicode = 00C7;
userData = {
com.typemytype.robofont.guides = (
);
com.typemytype.robofont.layerData = {
background = {
anchors = (
);
components = (
);
contours = (
);
lib = {
};
name = Ccedilla;
unicodes = (
);
width = 550;
};
};
};
},
{
color = (160,141,255,1);
glyphname = D;
layers = (
{
layerId = "1D181ACA-DA77-4A70-94E7-537F1008817F";
name = Regular;
paths = (
{
closed = 1;
nodes = (
"159 1 LINE",
"66 1 LINE",
"66 626 LINE",
"159 626 LINE"
);
},
{
closed = 1;
nodes = (
"237 550 CURVE SMOOTH",
"89 550 LINE",
"89 626 LINE",
"89 626 OFFCURVE",
"111 627 OFFCURVE",
"239 626 CURVE SMOOTH",
"439 625 OFFCURVE",
"534 528 OFFCURVE",
"534 325 CURVE SMOOTH",
"534 105 OFFCURVE",
"442 0 OFFCURVE",
"247 0 CURVE SMOOTH",
"119 0 OFFCURVE",
"84 1 OFFCURVE",
"84 1 CURVE",
"84 77 LINE",
"84 77 OFFCURVE",
"118 77 OFFCURVE",
"224 77 CURVE SMOOTH",
"381 77 OFFCURVE",
"456 157 OFFCURVE",
"456 325 CURVE SMOOTH",
"456 477 OFFCURVE",
"385 550 OFFCURVE"
);
}
);
width = 600;
}
);
unicode = 0044;
userData = {
com.typemytype.robofont.guides = (
{
angle = 0;
isGlobal = 0;
magnetic = 5;
x = 287;
y = 332;
}
);
com.typemytype.robofont.layerData = {
background = {
anchors = (
);
components = (
);
contours = (
);
lib = {
};
name = D;
unicodes = (
);
width = 550;
};
};
com.typemytype.robofont.mark = (
0.6256,
0.551,
1,
1
);
};
},
{
color = (160,141,255,1);
glyphname = E;
layers = (
{
layerId = "1D181ACA-DA77-4A70-94E7-537F1008817F";
name = Regular;
paths = (
{
closed = 1;
nodes = (
"395 286 LINE",
"101 286 LINE",
"101 354 LINE",
"395 354 LINE"
);
},
{
closed = 1;
nodes = (
"499 0 LINE",
"101 0 LINE",
"101 68 LINE",
"499 68 LINE"
);
},
{
closed = 1;
nodes = (
"194 0 LINE",
"101 0 LINE",
"101 623 LINE",
"194 623 LINE"
);
},
{
closed = 1;
nodes = (
"499 558 LINE",
"101 558 LINE",
"101 626 LINE",
"499 626 LINE"
);
}
);
width = 600;
}
);
unicode = 0045;
userData = {
com.typemytype.robofont.layerData = {
background = {
anchors = (
);
components = (
);
contours = (
);
lib = {
};
name = E;
unicodes = (
);
width = 550;
};
};
com.typemytype.robofont.mark = (
0.6256,
0.551,
1,
1
);
};
},
{
glyphname = Egrave;
layers = (
{
components = (
{
name = E;
transform = "{1, 0, 0, 1, 10, 0}";
}
);
layerId = "1D181ACA-DA77-4A70-94E7-537F1008817F";
name = Regular;
paths = (
{
closed = 1;
nodes = (
"320 691 LINE",
"237 691 LINE",
"101 792 LINE",
"219 792 LINE"
);
}
);
width = 600;
}
);
unicode = 00C8;
userData = {
com.typemytype.robofont.layerData = {
background = {
anchors = (
);
components = (
);
contours = (
);
lib = {
};
name = Egrave;
unicodes = (
);
width = 550;
};
};
};
},
{
glyphname = Eacute;
layers = (
{
components = (
{
name = E;
transform = "{1, 0, 0, 1, 0, 0}";
}
);
layerId = "1D181ACA-DA77-4A70-94E7-537F1008817F";
name = Regular;
paths = (
{
closed = 1;
nodes = (
"227 691 LINE",
"328 792 LINE",
"446 792 LINE",
"310 691 LINE"
);
}
);
width = 600;
}
);
unicode = 00C9;
userData = {
com.typemytype.robofont.layerData = {
background = {
anchors = (
);
components = (
);
contours = (
);
lib = {
};
name = Eacute;
unicodes = (
);
width = 550;
};
};
};
},
{
glyphname = Ecircumflex;
layers = (
{
components = (
{
name = E;
transform = "{1, 0, 0, 1, 0, 0}";
}
);
layerId = "1D181ACA-DA77-4A70-94E7-537F1008817F";
name = Regular;
paths = (
{
closed = 1;
nodes = (
"432 687 LINE",
"345 687 LINE",
"268 772 LINE",
"192 687 LINE",
"107 687 LINE",
"226 825 LINE",
"306 825 LINE"
);
}
);
width = 600;
}
);
unicode = 00CA;
userData = {
com.typemytype.robofont.layerData = {
background = {
anchors = (
);
components = (
);
contours = (
);
lib = {
};
name = Ecircumflex;
unicodes = (
);
width = 550;
};
};
};
},
{
glyphname = Edieresis;
layers = (
{
components = (
{
name = E;
transform = "{1, 0, 0, 1, 0, 0}";
}
);
layerId = "1D181ACA-DA77-4A70-94E7-537F1008817F";
name = Regular;
paths = (
{
closed = 1;
nodes = (
"217 729 CURVE SMOOTH",
"217 758 OFFCURVE",
"194 783 OFFCURVE",
"163 783 CURVE SMOOTH",
"134 783 OFFCURVE",
"111 758 OFFCURVE",
"111 729 CURVE SMOOTH",
"111 699 OFFCURVE",
"134 675 OFFCURVE",
"163 675 CURVE SMOOTH",
"194 675 OFFCURVE",
"217 699 OFFCURVE"
);
},
{
closed = 1;
nodes = (
"427 729 CURVE SMOOTH",
"427 758 OFFCURVE",
"403 783 OFFCURVE",
"373 783 CURVE SMOOTH",
"343 783 OFFCURVE",
"320 758 OFFCURVE",
"320 729 CURVE SMOOTH",
"320 699 OFFCURVE",
"343 675 OFFCURVE",
"373 675 CURVE SMOOTH",
"403 675 OFFCURVE",
"427 699 OFFCURVE"
);
}
);
width = 600;
}
);
unicode = 00CB;
userData = {
com.typemytype.robofont.layerData = {
background = {
anchors = (
);
components = (
);
contours = (
);
lib = {
};
name = Edieresis;
unicodes = (
);
width = 550;
};
};
};
},
{
color = (160,141,255,1);
glyphname = F;
layers = (
{
layerId = "1D181ACA-DA77-4A70-94E7-537F1008817F";
name = Regular;
paths = (
{
closed = 1;
nodes = (
"194 1 LINE",
"101 1 LINE",
"101 624 LINE",
"194 624 LINE"
);
},
{
closed = 1;
nodes = (
"499 558 LINE",
"101 558 LINE",
"101 626 LINE",
"499 626 LINE"
);
},
{
closed = 1;
nodes = (
"395 287 LINE",
"101 287 LINE",
"101 355 LINE",
"395 355 LINE"
);
}
);
width = 600;
}
);
unicode = 0046;
userData = {
com.typemytype.robofont.layerData = {
background = {
anchors = (
);
components = (
);
contours = (
);
lib = {
};
name = F;
unicodes = (
);
width = 550;
};
};
com.typemytype.robofont.mark = (
0.6256,
0.551,
1,
1
);
};
},
{
color = (160,141,255,1);
glyphname = G;
layers = (
{
layerId = "1D181ACA-DA77-4A70-94E7-537F1008817F";
name = Regular;
paths = (
{
closed = 1;
nodes = (
"448 30 LINE",
"534 30 LINE",
"534 353 LINE",
"448 353 LINE"
);
},
{
closed = 1;
nodes = (
"324 559 CURVE SMOOTH",
"425 559 OFFCURVE",
"506 528 OFFCURVE",
"506 528 CURVE",
"506 596 LINE",
"506 596 OFFCURVE",
"444 632 OFFCURVE",
"316 632 CURVE SMOOTH",
"162 632 OFFCURVE",
"66 509 OFFCURVE",
"66 312 CURVE SMOOTH",
"66 116 OFFCURVE",
"162 -6 OFFCURVE",
"316 -6 CURVE SMOOTH",
"477 -6 OFFCURVE",
"534 30 OFFCURVE",
"534 30 CURVE",
"534 112 LINE",
"534 112 OFFCURVE",
"453 70 OFFCURVE",
"329 70 CURVE SMOOTH",
"229 70 OFFCURVE",
"166 163 OFFCURVE",
"166 312 CURVE SMOOTH",
"166 464 OFFCURVE",
"227 559 OFFCURVE"
);
},
{
closed = 1;
nodes = (
"534 286 LINE",
"534 354 LINE",
"355 354 LINE",
"355 286 LINE"
);
}
);
width = 600;
}
);
unicode = 0047;
userData = {
com.typemytype.robofont.layerData = {
background = {
anchors = (
);
components = (
);
contours = (
);
lib = {
};
name = G;
unicodes = (
);
width = 550;
};
};
com.typemytype.robofont.mark = (
0.6256,
0.551,
1,
1
);
};
},
{
color = (160,141,255,1);
glyphname = H;
layers = (
{
layerId = "1D181ACA-DA77-4A70-94E7-537F1008817F";
name = Regular;
paths = (
{
closed = 1;
nodes = (
"522 0 LINE",
"427 0 LINE",
"427 626 LINE",
"522 626 LINE"
);
},
{
closed = 1;
nodes = (
"172 0 LINE",
"77 0 LINE",
"77 626 LINE",
"172 626 LINE"
);
},
{
closed = 1;
nodes = (
"476 286 LINE",
"77 286 LINE",
"77 354 LINE",
"476 354 LINE"
);
}
);
width = 600;
}
);
unicode = 0048;
userData = {
com.typemytype.robofont.layerData = {
background = {
anchors = (
);
components = (
);
contours = (
);
lib = {
};
name = H;
unicodes = (
);
width = 550;
};
};
com.typemytype.robofont.mark = (
0.6256,
0.551,
1,
1
);
};
},
{
color = (160,141,255,1);
glyphname = I;
layers = (
{
layerId = "1D181ACA-DA77-4A70-94E7-537F1008817F";
name = Regular;
paths = (
{
closed = 1;
nodes = (
"348 0 LINE",
"253 0 LINE",
"253 623 LINE",
"348 623 LINE"
);
},
{
closed = 1;
nodes = (
"499 557 LINE",
"101 557 LINE",
"101 626 LINE",
"499 626 LINE"
);
},
{
closed = 1;
nodes = (
"499 0 LINE",
"101 0 LINE",
"101 69 LINE",
"499 69 LINE"
);
}
);
width = 600;
}
);
unicode = 0049;
userData = {
com.typemytype.robofont.layerData = {
background = {
anchors = (
);
components = (
);
contours = (
);
lib = {
};
name = I;
unicodes = (
);
width = 550;
};
};
com.typemytype.robofont.mark = (
0.6256,
0.551,
1,
1
);
};
},
{
glyphname = Igrave;
layers = (
{
components = (
{
name = I;
transform = "{1, 0, 0, 1, 11, 0}";
}
);
layerId = "1D181ACA-DA77-4A70-94E7-537F1008817F";
name = Regular;
paths = (
{
closed = 1;
nodes = (
"320 691 LINE",
"237 691 LINE",
"101 792 LINE",
"219 792 LINE"
);
}
);
width = 600;
}
);
unicode = 00CC;
userData = {
com.typemytype.robofont.layerData = {
background = {
anchors = (
);
components = (
);
contours = (
);
lib = {
};
name = Igrave;
unicodes = (
);
width = 550;
};
};
};
},
{
glyphname = Iacute;
layers = (
{
components = (
{
name = I;
transform = "{1, 0, 0, 1, 0, 0}";
}
);
layerId = "1D181ACA-DA77-4A70-94E7-537F1008817F";
name = Regular;
paths = (
{
closed = 1;
nodes = (
"226 691 LINE",
"327 792 LINE",
"445 792 LINE",
"309 691 LINE"
);
}
);
width = 600;
}
);
unicode = 00CD;
userData = {
com.typemytype.robofont.layerData = {
background = {
anchors = (
);
components = (
);
contours = (
);
lib = {
};
name = Iacute;
unicodes = (
);
width = 550;
};
};
};
},
{
glyphname = Icircumflex;
layers = (
{
components = (
{
name = I;
transform = "{1, 0, 0, 1, 0, 0}";
}
);
layerId = "1D181ACA-DA77-4A70-94E7-537F1008817F";
name = Regular;
paths = (
{
closed = 1;
nodes = (
"432 687 LINE",
"345 687 LINE",
"268 772 LINE",
"192 687 LINE",
"107 687 LINE",
"226 825 LINE",
"306 825 LINE"
);
}
);
width = 600;
}
);
unicode = 00CE;
userData = {
com.typemytype.robofont.layerData = {
background = {
anchors = (
);
components = (
);
contours = (
);
lib = {
};
name = Icircumflex;
unicodes = (
);
width = 550;
};
};
};
},
{
glyphname = Idieresis;
layers = (
{
components = (
{
name = I;
transform = "{1, 0, 0, 1, 0, 0}";
}
);
layerId = "1D181ACA-DA77-4A70-94E7-537F1008817F";
name = Regular;
paths = (
{
closed = 1;
nodes = (
"216 729 CURVE SMOOTH",
"216 758 OFFCURVE",
"193 783 OFFCURVE",
"162 783 CURVE SMOOTH",
"133 783 OFFCURVE",
"110 758 OFFCURVE",
"110 729 CURVE SMOOTH",
"110 699 OFFCURVE",
"133 675 OFFCURVE",
"162 675 CURVE SMOOTH",
"193 675 OFFCURVE",
"216 699 OFFCURVE"
);
},
{
closed = 1;
nodes = (
"426 729 CURVE SMOOTH",
"426 758 OFFCURVE",
"402 783 OFFCURVE",
"372 783 CURVE SMOOTH",
"342 783 OFFCURVE",
"319 758 OFFCURVE",
"319 729 CURVE SMOOTH",
"319 699 OFFCURVE",
"342 675 OFFCURVE",
"372 675 CURVE SMOOTH",
"402 675 OFFCURVE",
"426 699 OFFCURVE"
);
}
);
width = 600;
}
);
unicode = 00CF;
userData = {
com.typemytype.robofont.layerData = {
background = {
anchors = (
);
components = (
);
contours = (
);
lib = {
};
name = Idieresis;
unicodes = (
);
width = 550;
};
};
};
},
{
color = (160,141,255,1);
glyphname = J;
layers = (
{
layerId = "1D181ACA-DA77-4A70-94E7-537F1008817F";
name = Regular;
paths = (
{
closed = 1;
nodes = (
"517 626 LINE",
"188 626 LINE",
"188 557 LINE",
"327 557 LINE",
"327 179 LINE SMOOTH",
"327 96 OFFCURVE",
"300 69 OFFCURVE",
"215 69 CURVE SMOOTH",
"137 69 OFFCURVE",
"82 112 OFFCURVE",
"82 112 CURVE",
"82 30 LINE",
"82 30 OFFCURVE",
"131 -6 OFFCURVE",
"215 -6 CURVE SMOOTH",
"371 -6 OFFCURVE",
"422 54 OFFCURVE",
"422 240 CURVE SMOOTH",
"422 557 LINE",
"517 557 LINE"
);
}
);
width = 600;
}
);
unicode = 004A;
userData = {
com.typemytype.robofont.layerData = {
background = {
anchors = (
);
components = (
);
contours = (
);
lib = {
};
name = J;
unicodes = (
);
width = 550;
};
};
com.typemytype.robofont.mark = (
0.6256,
0.551,
1,
1
);
};
},
{
color = (160,141,255,1);
glyphname = K;
layers = (
{
layerId = "1D181ACA-DA77-4A70-94E7-537F1008817F";
name = Regular;
paths = (
{
closed = 1;
nodes = (
"404 0 LINE",
"514 0 LINE",
"252 331 LINE",
"498 626 LINE",
"397 626 LINE",
"178 350 LINE",
"178 625 LINE",
"85 625 LINE",
"85 0 LINE",
"178 0 LINE",
"178 241 LINE",
"201 269 LINE"
);
}
);
width = 600;
}
);
unicode = 004B;
userData = {
com.typemytype.robofont.layerData = {
background = {
anchors = (
);
components = (
);
contours = (
);
lib = {
};
name = K;
unicodes = (
);
width = 550;
};
};
com.typemytype.robofont.mark = (
0.6256,
0.551,
1,
1
);
};
},
{
color = (160,141,255,1);
glyphname = L;
layers = (
{
layerId = "1D181ACA-DA77-4A70-94E7-537F1008817F";
name = Regular;
paths = (
{
closed = 1;
nodes = (
"499 0 LINE",
"101 0 LINE",
"101 69 LINE",
"499 69 LINE"
);
},
{
closed = 1;
nodes = (
"196 0 LINE",
"101 0 LINE",
"101 626 LINE",
"196 626 LINE"
);
}
);
width = 600;
}
);
unicode = 004C;
userData = {
com.typemytype.robofont.layerData = {
background = {
anchors = (
);
components = (
);
contours = (
);
lib = {
};
name = L;
unicodes = (
);
width = 550;
};
};
com.typemytype.robofont.mark = (
0.6256,
0.551,
1,
1
);
};
},
{
color = (160,141,255,1);
glyphname = M;
layers = (
{
layerId = "1D181ACA-DA77-4A70-94E7-537F1008817F";
name = Regular;
paths = (
{
closed = 1;
nodes = (
"172 0 LINE",
"172 626 LINE",
"82 626 LINE",
"82 0 LINE"
);
},
{
closed = 1;
nodes = (
"338 217 LINE",
"172 625 LINE",
"128 564 LINE",
"262 217 LINE"
);
},
{
closed = 1;
nodes = (
"472 564 LINE",
"428 626 LINE",
"262 217 LINE",
"338 217 LINE"
);
},
{
closed = 1;
nodes = (
"427 626 LINE",
"427 0 LINE",
"517 0 LINE",
"517 626 LINE"
);
}
);
width = 600;
}
);
unicode = 004D;
userData = {
com.typemytype.robofont.layerData = {
background = {
anchors = (
);
components = (
);
contours = (
);
lib = {
};
name = M;
unicodes = (
);
width = 550;
};
};
com.typemytype.robofont.mark = (
0.6256,
0.551,
1,
1
);
};
},
{
color = (160,141,255,1);
glyphname = N;
layers = (
{
layerId = "1D181ACA-DA77-4A70-94E7-537F1008817F";
name = Regular;
paths = (
{
closed = 1;
nodes = (
"510 0 LINE"
);
},
{
closed = 1;
nodes = (
"172 626 LINE"
);
},
{
closed = 1;
nodes = (
"517 0 LINE"
);
},
{
closed = 1;
nodes = (
"172 625 LINE",
"510 0 LINE",
"427 0 LINE",
"121 564 LINE"
);
},
{
closed = 1;
nodes = (
"172 0 LINE",
"82 0 LINE",
"82 626 LINE",
"172 626 LINE"
);
},
{
closed = 1;
nodes = (
"517 0 LINE",
"427 0 LINE",
"427 626 LINE",
"517 626 LINE"
);
}
);
width = 600;
}
);
unicode = 004E;
userData = {
com.typemytype.robofont.layerData = {
background = {
anchors = (
);
components = (
);
contours = (
);
lib = {
};
name = N;
unicodes = (
);
width = 550;
};
};
com.typemytype.robofont.mark = (
0.6256,
0.551,
1,
1
);
};
},
{
glyphname = Ntilde;
layers = (
{
components = (
{
name = N;
transform = "{1, 0, 0, 1, 0, 0}";
}
);
layerId = "1D181ACA-DA77-4A70-94E7-537F1008817F";
name = Regular;
paths = (
{
closed = 1;
nodes = (
"96 728 OFFCURVE",
"133 798 OFFCURVE",
"201 798 CURVE SMOOTH",
"268 798 OFFCURVE",
"295 745 OFFCURVE",
"338 745 CURVE SMOOTH",
"377 745 OFFCURVE",
"400 791 OFFCURVE",
"400 791 CURVE",
"400 791 OFFCURVE",
"441 752 OFFCURVE",
"441 752 CURVE",
"441 752 OFFCURVE",
"396 684 OFFCURVE",
"337 684 CURVE SMOOTH",
"277 684 OFFCURVE",
"236 736 OFFCURVE",
"198 736 CURVE SMOOTH",
"159 736 OFFCURVE",
"137 690 OFFCURVE",
"137 690 CURVE",
"96 728 LINE"
);
}
);
width = 600;
}
);
unicode = 00D1;
userData = {
com.typemytype.robofont.layerData = {
background = {
anchors = (
);
components = (
);
contours = (
);
lib = {
};
name = Ntilde;
unicodes = (
);
width = 550;
};
};
};
},
{
color = (160,141,255,1);
glyphname = O;
layers = (
{
layerId = "1D181ACA-DA77-4A70-94E7-537F1008817F";
name = Regular;
paths = (
{
closed = 1;
nodes = (
"300 70 CURVE SMOOTH",
"179 70 OFFCURVE",
"140 191 OFFCURVE",
"140 312 CURVE SMOOTH",
"140 433 OFFCURVE",
"179 556 OFFCURVE",
"300 556 CURVE SMOOTH",
"421 556 OFFCURVE",
"460 433 OFFCURVE",
"460 312 CURVE SMOOTH",
"460 191 OFFCURVE",
"421 70 OFFCURVE"
);
},
{
closed = 1;
nodes = (
"300 632 CURVE SMOOTH",
"129 632 OFFCURVE",
"51 483 OFFCURVE",
"51 312 CURVE SMOOTH",
"51 142 OFFCURVE",
"130 -6 OFFCURVE",
"300 -6 CURVE SMOOTH",
"470 -6 OFFCURVE",
"549 142 OFFCURVE",
"549 312 CURVE SMOOTH",
"549 483 OFFCURVE",
"471 632 OFFCURVE"
);
}
);
width = 600;
}
);
unicode = 004F;
userData = {
com.typemytype.robofont.guides = (
);
com.typemytype.robofont.layerData = {
background = {
anchors = (
);
components = (
);
contours = (
);
lib = {
};
name = O;
unicodes = (
);
width = 550;
};
};
com.typemytype.robofont.mark = (
0.6256,
0.551,
1,
1
);
};
},
{
glyphname = Ograve;
layers = (
{
components = (
{
name = O;
transform = "{1, 0, 0, 1, 0, 0}";
}
);
layerId = "1D181ACA-DA77-4A70-94E7-537F1008817F";
name = Regular;
paths = (
{
closed = 1;
nodes = (
"312 691 LINE",
"229 691 LINE",
"93 792 LINE",
"211 792 LINE"
);
}
);
width = 600;
}
);
unicode = 00D2;
userData = {
com.typemytype.robofont.layerData = {
background = {
anchors = (
);
components = (
);
contours = (
);
lib = {
};
name = Ograve;
unicodes = (
);
width = 550;
};
};
};
},
{
glyphname = Oacute;
layers = (
{
components = (
{
name = O;
transform = "{1, 0, 0, 1, 0, 0}";
}
);
layerId = "1D181ACA-DA77-4A70-94E7-537F1008817F";
name = Regular;
paths = (
{
closed = 1;
nodes = (
"229 691 LINE",
"330 792 LINE",
"448 792 LINE",
"312 691 LINE"
);
}
);
width = 600;
}
);
unicode = 00D3;
userData = {
com.typemytype.robofont.layerData = {
background = {
anchors = (
);
components = (
);
contours = (
);
lib = {
};
name = Oacute;
unicodes = (
);
width = 550;
};
};
};
},
{
glyphname = Ocircumflex;
layers = (
{
components = (
{
name = O;
transform = "{1, 0, 0, 1, 0, 0}";
}
);
layerId = "1D181ACA-DA77-4A70-94E7-537F1008817F";
name = Regular;
paths = (
{
closed = 1;
nodes = (
"399 691 LINE",
"312 691 LINE",
"271 740 LINE",
"230 691 LINE",
"145 691 LINE",
"229 792 LINE",
"309 792 LINE"
);
}
);
width = 600;
}
);
unicode = 00D4;
userData = {
com.typemytype.robofont.layerData = {
background = {
anchors = (
);
components = (
);
contours = (
);
lib = {
};
name = Ocircumflex;
unicodes = (
);
width = 550;
};
};
};
},
{
glyphname = Otilde;
layers = (
{
components = (
{
name = O;
transform = "{1, 0, 0, 1, 0, 0}";
}
);
layerId = "1D181ACA-DA77-4A70-94E7-537F1008817F";
name = Regular;
paths = (
{
closed = 1;
nodes = (
"98 728 OFFCURVE",
"135 798 OFFCURVE",
"203 798 CURVE SMOOTH",
"270 798 OFFCURVE",
"297 745 OFFCURVE",
"339 745 CURVE SMOOTH",
"379 745 OFFCURVE",
"402 791 OFFCURVE",
"402 791 CURVE",
"402 791 OFFCURVE",
"443 752 OFFCURVE",
"443 752 CURVE",
"443 752 OFFCURVE",
"398 684 OFFCURVE",
"338 684 CURVE SMOOTH",
"279 684 OFFCURVE",
"238 736 OFFCURVE",
"200 736 CURVE SMOOTH",
"161 736 OFFCURVE",
"139 690 OFFCURVE",
"139 690 CURVE",
"98 728 LINE"
);
}
);
width = 600;
}
);
unicode = 00D5;
userData = {
com.typemytype.robofont.layerData = {
background = {
anchors = (
);
components = (
);
contours = (
);
lib = {
};
name = Otilde;
unicodes = (
);
width = 550;
};
};
};
},
{
glyphname = Odieresis;
layers = (
{
components = (
{
name = O;
transform = "{1, 0, 0, 1, 0, 0}";
}
);
layerId = "1D181ACA-DA77-4A70-94E7-537F1008817F";
name = Regular;
paths = (
{
closed = 1;
nodes = (
"219 729 CURVE SMOOTH",
"219 758 OFFCURVE",
"196 783 OFFCURVE",
"165 783 CURVE SMOOTH",
"136 783 OFFCURVE",
"113 758 OFFCURVE",
"113 729 CURVE SMOOTH",
"113 699 OFFCURVE",
"136 675 OFFCURVE",
"165 675 CURVE SMOOTH",
"196 675 OFFCURVE",
"219 699 OFFCURVE"
);
},
{
closed = 1;
nodes = (
"428 729 CURVE SMOOTH",
"428 758 OFFCURVE",
"405 783 OFFCURVE",
"375 783 CURVE SMOOTH",
"345 783 OFFCURVE",
"322 758 OFFCURVE",
"322 729 CURVE SMOOTH",
"322 699 OFFCURVE",
"345 675 OFFCURVE",
"375 675 CURVE SMOOTH",
"405 675 OFFCURVE",
"428 699 OFFCURVE"
);
}
);
width = 600;
}
);
unicode = 00D6;
userData = {
com.typemytype.robofont.layerData = {
background = {
anchors = (
);
components = (
);
contours = (
);
lib = {
};
name = Odieresis;
unicodes = (
);
width = 550;
};
};
};
},
{
color = (160,141,255,1);
glyphname = P;
layers = (
{
layerId = "1D181ACA-DA77-4A70-94E7-537F1008817F";
name = Regular;
paths = (
{
closed = 1;
nodes = (
"186 299 CURVE",
"186 549 LINE",
"365 549 OFFCURVE",
"417 521 OFFCURVE",
"417 429 CURVE SMOOTH",
"417 329 OFFCURVE",
"365 299 OFFCURVE"
);
},
{
closed = 1;
nodes = (
"506 432 CURVE SMOOTH",
"506 578 OFFCURVE",
"433 621 OFFCURVE",
"186 623 CURVE",
"186 623 LINE",
"93 623 LINE",
"93 0 LINE",
"186 0 LINE",
"186 225 LINE",
"433 228 OFFCURVE",
"506 275 OFFCURVE"
);
}
);
width = 600;
}
);
unicode = 0050;
userData = {
com.typemytype.robofont.layerData = {
background = {
anchors = (
);
components = (
);
contours = (
);
lib = {
};
name = P;
unicodes = (
);
width = 550;
};
};
com.typemytype.robofont.mark = (
0.6256,
0.551,
1,
1
);
};
},
{
color = (160,141,255,1);
glyphname = Q;
layers = (
{
layerId = "1D181ACA-DA77-4A70-94E7-537F1008817F";
name = Regular;
paths = (
{
closed = 1;
nodes = (
"549 312 CURVE SMOOTH",
"549 518 OFFCURVE",
"461 632 OFFCURVE",
"300 632 CURVE SMOOTH",
"139 632 OFFCURVE",
"51 518 OFFCURVE",
"51 312 CURVE SMOOTH",
"51 107 OFFCURVE",
"139 -6 OFFCURVE",
"300 -6 CURVE SMOOTH",
"338 -6 OFFCURVE",
"375 2 OFFCURVE",
"405 17 CURVE",
"500 -72 LINE",
"549 -3 LINE",
"470 67 LINE",
"521 123 OFFCURVE",
"549 210 OFFCURVE"
);
},
{
closed = 1;
nodes = (
"140 312 CURVE SMOOTH",
"140 470 OFFCURVE",
"196 556 OFFCURVE",
"300 556 CURVE SMOOTH",
"404 556 OFFCURVE",
"460 470 OFFCURVE",
"460 312 CURVE SMOOTH",
"460 156 OFFCURVE",
"404 70 OFFCURVE",
"300 70 CURVE SMOOTH",
"196 70 OFFCURVE",
"140 156 OFFCURVE"
);
}
);
width = 600;
}
);
unicode = 0051;
userData = {
com.typemytype.robofont.layerData = {
background = {
anchors = (
);
components = (
);
contours = (
);
lib = {
};
name = Q;
unicodes = (
);
width = 550;
};
};
com.typemytype.robofont.mark = (
0.6256,
0.551,
1,
1
);
};
},
{
color = (160,141,255,1);
glyphname = R;
layers = (
{
layerId = "1D181ACA-DA77-4A70-94E7-537F1008817F";
name = Regular;
paths = (
{
closed = 1;
nodes = (
"183 550 LINE",
"251 550 LINE SMOOTH",
"334 550 OFFCURVE",
"379 517 OFFCURVE",
"379 455 CURVE SMOOTH",
"379 386 OFFCURVE",
"334 348 OFFCURVE",
"251 348 CURVE SMOOTH",
"183 348 LINE"
);
},
{
closed = 1;
nodes = (
"340 301 CURVE",
"417 313 OFFCURVE",
"459 366 OFFCURVE",
"459 450 CURVE SMOOTH",
"459 562 OFFCURVE",
"386 623 OFFCURVE",
"252 623 CURVE",
"252 623 LINE",
"89 623 LINE",
"89 0 LINE",
"182 0 LINE",
"182 278 LINE",
"251 278 LINE SMOOTH",
"307 278 OFFCURVE",
"409 0 OFFCURVE",
"409 0 CURVE",
"511 0 LINE",
"511 0 OFFCURVE",
"380 301 OFFCURVE"
);
}
);
width = 600;
}
);
unicode = 0052;
userData = {
com.typemytype.robofont.layerData = {
background = {
anchors = (
);
components = (
);
contours = (
);
lib = {
};
name = R;
unicodes = (
);
width = 550;
};
};
com.typemytype.robofont.mark = (
0.6256,
0.551,
1,
1
);
};
},
{
color = (160,141,255,1);
glyphname = S;
layers = (
{
layerId = "1D181ACA-DA77-4A70-94E7-537F1008817F";
name = Regular;
paths = (
{
closed = 1;
nodes = (
"511 173 CURVE SMOOTH",
"511 3 OFFCURVE",
"369 -6 OFFCURVE",
"268 -6 CURVE SMOOTH",
"166 -6 OFFCURVE",
"122 14 OFFCURVE",
"88 23 CURVE",
"88 110 LINE",
"88 110 OFFCURVE",
"185 73 OFFCURVE",
"270 73 CURVE SMOOTH",
"338 73 OFFCURVE",
"427 87 OFFCURVE",
"427 170 CURVE SMOOTH",
"427 290 OFFCURVE",
"96 256 OFFCURVE",
"96 468 CURVE SMOOTH",
"96 557 OFFCURVE",
"166 628 OFFCURVE",
"292 628 CURVE SMOOTH",
"391 628 OFFCURVE",
"472 594 OFFCURVE",
"472 594 CURVE",
"472 515 LINE",
"472 515 OFFCURVE",
"380 549 OFFCURVE",
"302 549 CURVE SMOOTH",
"208 549 OFFCURVE",
"183 514 OFFCURVE",
"183 456 CURVE SMOOTH",
"183 343 OFFCURVE",
"511 356 OFFCURVE"
);
}
);
width = 600;
}
);
unicode = 0053;
userData = {
com.typemytype.robofont.layerData = {
background = {
anchors = (
);
components = (
);
contours = (
);
lib = {
};
name = S;
unicodes = (
);
width = 550;
};
};
com.typemytype.robofont.mark = (
0.6256,
0.551,
1,
1
);
};
},
{
glyphname = Scaron;
layers = (
{
components = (
{
name = S;
transform = "{1, 0, 0, 1, 0, 0}";
}
);
layerId = "1D181ACA-DA77-4A70-94E7-537F1008817F";
name = Regular;
paths = (
{
closed = 1;
nodes = (
"396 777 LINE",
"306 675 LINE",
"226 675 LINE",
"142 777 LINE",
"227 777 LINE",
"268 728 LINE",
"309 777 LINE"
);
}
);
width = 600;
}
);
unicode = 0160;
userData = {
com.typemytype.robofont.layerData = {
background = {
anchors = (
);
components = (
);
contours = (
);
lib = {
};
name = Scaron;
unicodes = (
);
width = 550;
};
};
};
},
{
color = (160,141,255,1);
glyphname = T;
layers = (
{
layerId = "1D181ACA-DA77-4A70-94E7-537F1008817F";
name = Regular;
paths = (
{
closed = 1;
nodes = (
"499 625 LINE",
"101 625 LINE",
"101 556 LINE",
"253 556 LINE",
"253 1 LINE",
"348 1 LINE",
"348 556 LINE",
"499 556 LINE"
);
}
);
width = 600;
}
);
unicode = 0054;
userData = {
com.typemytype.robofont.layerData = {
background = {
anchors = (
);
components = (
);
contours = (
);
lib = {
};
name = T;
unicodes = (
);
width = 550;
};
};
com.typemytype.robofont.mark = (
0.6256,
0.551,
1,
1
);
};
},
{
color = (160,141,255,1);
glyphname = U;
layers = (
{
layerId = "1D181ACA-DA77-4A70-94E7-537F1008817F";
name = Regular;
paths = (
{
closed = 1;
nodes = (
"530 626 LINE",
"441 626 LINE",
"441 244 LINE SMOOTH",
"441 126 OFFCURVE",
"394 67 OFFCURVE",
"300 67 CURVE SMOOTH",
"206 67 OFFCURVE",
"159 126 OFFCURVE",
"159 244 CURVE SMOOTH",
"159 626 LINE",
"70 626 LINE",
"70 244 LINE SMOOTH",
"70 77 OFFCURVE",
"147 -6 OFFCURVE",
"300 -6 CURVE SMOOTH",
"453 -6 OFFCURVE",
"530 77 OFFCURVE",
"530 244 CURVE SMOOTH"
);
}
);
width = 600;
}
);
unicode = 0055;
userData = {
com.typemytype.robofont.layerData = {
background = {
anchors = (
);
components = (
);
contours = (
);
lib = {
};
name = U;
unicodes = (
);
width = 550;
};
};
com.typemytype.robofont.mark = (
0.6256,
0.551,
1,
1
);
};
},
{
glyphname = Ugrave;
layers = (
{
components = (
{
name = U;
transform = "{1, 0, 0, 1, 0, 0}";
}
);
layerId = "1D181ACA-DA77-4A70-94E7-537F1008817F";
name = Regular;
paths = (
{
closed = 1;
nodes = (
"310 691 LINE",
"227 691 LINE",
"91 792 LINE",
"209 792 LINE"
);
}
);
width = 600;
}
);
unicode = 00D9;
userData = {
com.typemytype.robofont.layerData = {
background = {
anchors = (
);
components = (
);
contours = (
);
lib = {
};
name = Ugrave;
unicodes = (
);
width = 550;
};
};
};
},
{
glyphname = Uacute;
layers = (
{
components = (
{
name = U;
transform = "{1, 0, 0, 1, 0, 0}";
}
);
layerId = "1D181ACA-DA77-4A70-94E7-537F1008817F";
name = Regular;
paths = (
{
closed = 1;
nodes = (
"229 691 LINE",
"330 792 LINE",
"448 792 LINE",
"312 691 LINE"
);
}
);
width = 600;
}
);
unicode = 00DA;
userData = {
com.typemytype.robofont.layerData = {
background = {
anchors = (
);
components = (
);
contours = (
);
lib = {
};
name = Uacute;
unicodes = (
);
width = 550;
};
};
};
},
{
glyphname = Ucircumflex;
layers = (
{
layerId = "1D181ACA-DA77-4A70-94E7-537F1008817F";
name = Regular;
paths = (
{
closed = 1;
nodes = (
"176 691 LINE"
);
},
{
closed = 1;
nodes = (
"530 626 LINE",
"441 626 LINE",
"441 244 LINE SMOOTH",
"441 141 OFFCURVE",
"413 67 OFFCURVE",
"300 67 CURVE SMOOTH",
"188 67 OFFCURVE",
"159 138 OFFCURVE",
"159 244 CURVE SMOOTH",
"159 626 LINE",
"70 626 LINE",
"70 244 LINE SMOOTH",
"70 107 OFFCURVE",
"126 -6 OFFCURVE",
"300 -6 CURVE SMOOTH",
"474 -6 OFFCURVE",
"530 110 OFFCURVE",
"530 244 CURVE SMOOTH"
);
},
{
closed = 1;
nodes = (
"463 687 LINE",
"376 687 LINE",
"299 772 LINE",
"223 687 LINE",
"138 687 LINE",
"257 825 LINE",
"337 825 LINE"
);
}
);
width = 600;
}
);
unicode = 00DB;
userData = {
com.typemytype.robofont.layerData = {
background = {
anchors = (
);
components = (
);
contours = (
);
lib = {
};
name = Ucircumflex;
unicodes = (
);
width = 550;
};
};
};
},
{
glyphname = Udieresis;
layers = (
{
components = (
{
name = U;
transform = "{1, 0, 0, 1, 0, 0}";
}
);
layerId = "1D181ACA-DA77-4A70-94E7-537F1008817F";
name = Regular;
paths = (
{
closed = 1;
nodes = (
"219 729 CURVE SMOOTH",
"219 758 OFFCURVE",
"196 783 OFFCURVE",
"165 783 CURVE SMOOTH",
"136 783 OFFCURVE",
"113 758 OFFCURVE",
"113 729 CURVE SMOOTH",
"113 699 OFFCURVE",
"136 675 OFFCURVE",
"165 675 CURVE SMOOTH",
"196 675 OFFCURVE",
"219 699 OFFCURVE"
);
},
{
closed = 1;
nodes = (
"428 729 CURVE SMOOTH",
"428 758 OFFCURVE",
"405 783 OFFCURVE",
"375 783 CURVE SMOOTH",
"345 783 OFFCURVE",
"322 758 OFFCURVE",
"322 729 CURVE SMOOTH",
"322 699 OFFCURVE",
"345 675 OFFCURVE",
"375 675 CURVE SMOOTH",
"405 675 OFFCURVE",
"428 699 OFFCURVE"
);
}
);
width = 600;
}
);
unicode = 00DC;
userData = {
com.typemytype.robofont.layerData = {
background = {
anchors = (
);
components = (
);
contours = (
);
lib = {
};
name = Udieresis;
unicodes = (
);
width = 550;
};
};
};
},
{
color = (160,141,255,1);
glyphname = V;
layers = (
{
layerId = "1D181ACA-DA77-4A70-94E7-537F1008817F";
name = Regular;
paths = (
{
closed = 1;
nodes = (
"457 626 LINE",
"310 129 LINE",
"143 626 LINE",
"59 626 LINE",
"272 0 LINE",
"358 0 LINE",
"540 626 LINE"
);
}
);
width = 600;
}
);
unicode = 0056;
userData = {
com.typemytype.robofont.layerData = {
background = {
anchors = (
);
components = (
);
contours = (
);
lib = {
};
name = V;
unicodes = (
);
width = 550;
};
};
com.typemytype.robofont.mark = (
0.6256,
0.551,
1,
1
);
};
},
{
color = (160,141,255,1);
glyphname = W;
layers = (
{
layerId = "1D181ACA-DA77-4A70-94E7-537F1008817F";
name = Regular;
paths = (
{
closed = 1;
nodes = (
"499 626 LINE",
"418 132 LINE",
"347 353 LINE",
"347 353 OFFCURVE",
"270 353 OFFCURVE",
"270 353 CURVE",
"194 124 LINE",
"101 626 LINE",
"24 626 LINE",
"147 0 LINE",
"154 0 LINE",
"218 0 LINE",
"219 0 LINE",
"308 254 LINE",
"396 0 LINE",
"397 0 LINE",
"460 0 LINE",
"467 0 LINE",
"576 626 LINE"
);
}
);
width = 600;
}
);
unicode = 0057;
userData = {
com.typemytype.robofont.layerData = {
background = {
anchors = (
);
components = (
);
contours = (
);
lib = {
};
name = W;
unicodes = (
);
width = 550;
};
};
com.typemytype.robofont.mark = (
0.6256,
0.551,
1,
1
);
};
},
{
color = (160,141,255,1);
glyphname = X;
layers = (
{
layerId = "1D181ACA-DA77-4A70-94E7-537F1008817F";
name = Regular;
paths = (
{
closed = 1;
nodes = (
"544 626 LINE",
"445 626 LINE",
"302 383 LINE",
"155 626 LINE",
"56 626 LINE",
"255 313 LINE",
"56 0 LINE",
"155 0 LINE",
"302 243 LINE",
"445 0 LINE",
"544 0 LINE",
"350 313 LINE"
);
}
);
width = 600;
}
);
unicode = 0058;
userData = {
com.typemytype.robofont.layerData = {
background = {
anchors = (
);
components = (
);
contours = (
);
lib = {
};
name = X;
unicodes = (
);
width = 550;
};
};
com.typemytype.robofont.mark = (
0.6256,
0.551,
1,
1
);
};
},
{
color = (160,141,255,1);
glyphname = Y;
layers = (
{
layerId = "1D181ACA-DA77-4A70-94E7-537F1008817F";
name = Regular;
paths = (
{
closed = 1;
nodes = (
"455 626 LINE",
"294 353 LINE",
"311 353 LINE",
"145 626 LINE",
"56 626 LINE",
"266 295 LINE",
"257 332 LINE",
"257 0 LINE",
"348 0 LINE",
"348 335 LINE",
"341 297 LINE",
"544 626 LINE"
);
}
);
width = 600;
}
);
unicode = 0059;
userData = {
com.typemytype.robofont.layerData = {
background = {
anchors = (
);
components = (
);
contours = (
);
lib = {
};
name = Y;
unicodes = (
);
width = 550;
};
};
com.typemytype.robofont.mark = (
0.6256,
0.551,
1,
1
);
};
},
{
glyphname = Yacute;
layers = (
{
components = (
{
name = Y;
transform = "{1, 0, 0, 1, 0, 0}";
}
);
layerId = "1D181ACA-DA77-4A70-94E7-537F1008817F";
name = Regular;
paths = (
{
closed = 1;
nodes = (
"226 691 LINE",
"327 792 LINE",
"445 792 LINE",
"309 691 LINE"
);
}
);
width = 600;
}
);
unicode = 00DD;
userData = {
com.typemytype.robofont.layerData = {
background = {
anchors = (
);
components = (
);
contours = (
);
lib = {
};
name = Yacute;
unicodes = (
);
width = 550;
};
};
};
},
{
glyphname = Ydieresis;
layers = (
{
components = (
{
name = Y;
transform = "{1, 0, 0, 1, 0, 0}";
}
);
layerId = "1D181ACA-DA77-4A70-94E7-537F1008817F";
name = Regular;
paths = (
{
closed = 1;
nodes = (
"216 729 CURVE SMOOTH",
"216 758 OFFCURVE",
"193 783 OFFCURVE",
"162 783 CURVE SMOOTH",
"133 783 OFFCURVE",
"110 758 OFFCURVE",
"110 729 CURVE SMOOTH",
"110 699 OFFCURVE",
"133 675 OFFCURVE",
"162 675 CURVE SMOOTH",
"193 675 OFFCURVE",
"216 699 OFFCURVE"
);
},
{
closed = 1;
nodes = (
"426 729 CURVE SMOOTH",
"426 758 OFFCURVE",
"402 783 OFFCURVE",
"372 783 CURVE SMOOTH",
"342 783 OFFCURVE",
"319 758 OFFCURVE",
"319 729 CURVE SMOOTH",
"319 699 OFFCURVE",
"342 675 OFFCURVE",
"372 675 CURVE SMOOTH",
"402 675 OFFCURVE",
"426 699 OFFCURVE"
);
}
);
width = 600;
}
);
unicode = 0178;
userData = {
com.typemytype.robofont.layerData = {
background = {
anchors = (
);
components = (
);
contours = (
);
lib = {
};
name = Ydieresis;
unicodes = (
);
width = 550;
};
};
};
},
{
color = (160,141,255,1);
glyphname = Z;
layers = (
{
layerId = "1D181ACA-DA77-4A70-94E7-537F1008817F";
name = Regular;
paths = (
{
closed = 1;
nodes = (
"181 80 LINE",
"511 546 LINE",
"511 546 LINE",
"511 626 LINE",
"89 626 LINE",
"89 546 LINE",
"404 546 LINE",
"80 80 LINE",
"80 0 LINE",
"520 0 LINE",
"520 80 LINE"
);
}
);
width = 600;
}
);
unicode = 005A;
userData = {
com.typemytype.robofont.layerData = {
background = {
anchors = (
);
components = (
);
contours = (
);
lib = {
};
name = Z;
unicodes = (
);
width = 550;
};
};
com.typemytype.robofont.mark = (
0.6256,
0.551,
1,
1
);
};
},
{
glyphname = Zcaron;
layers = (
{
components = (
{
name = Z;
transform = "{1, 0, 0, 1, 0, 0}";
}
);
layerId = "1D181ACA-DA77-4A70-94E7-537F1008817F";
name = Regular;
paths = (
{
closed = 1;
nodes = (
"397 777 LINE",
"307 675 LINE",
"227 675 LINE",
"143 777 LINE",
"228 777 LINE",
"269 728 LINE",
"310 777 LINE"
);
}
);
width = 600;
}
);
unicode = 017D;
userData = {
com.typemytype.robofont.layerData = {
background = {
anchors = (
);
components = (
);
contours = (
);
lib = {
};
name = Zcaron;
unicodes = (
);
width = 550;
};
};
};
},
{
glyphname = AE;
layers = (
{
layerId = "1D181ACA-DA77-4A70-94E7-537F1008817F";
name = Regular;
paths = (
{
closed = 1;
nodes = (
"262 626 LINE",
"35 0 LINE",
"113 0 LINE",
"307 556 LINE",
"307 626 LINE"
);
},
{
closed = 1;
nodes = (
"342 160 LINE",
"342 212 LINE",
"118 212 LINE",
"118 160 LINE"
);
},
{
closed = 1;
nodes = (
"307 0 LINE",
"565 0 LINE",
"565 62 LINE",
"366 62 LINE",
"366 293 LINE",
"520 293 LINE",
"520 347 LINE",
"366 347 LINE",
"366 564 LINE",
"565 564 LINE",
"565 626 LINE",
"307 626 LINE"
);
}
);
width = 600;
}
);
unicode = 00C6;
userData = {
com.typemytype.robofont.layerData = {
background = {
anchors = (
);
components = (
);
contours = (
);
lib = {
};
name = AE;
unicodes = (
);
width = 550;
};
};
};
},
{
glyphname = Eth;
layers = (
{
components = (
{
name = D;
transform = "{1, 0, 0, 1, 35, 0}";
}
);
layerId = "1D181ACA-DA77-4A70-94E7-537F1008817F";
name = Regular;
paths = (
{
closed = 1;
nodes = (
"403 286 LINE",
"51 286 LINE",
"51 351 LINE",
"403 351 LINE"
);
}
);
width = 600;
}
);
unicode = 00D0;
userData = {
com.typemytype.robofont.layerData = {
background = {
anchors = (
);
components = (
);
contours = (
);
lib = {
};
name = Eth;
unicodes = (
);
width = 550;
};
};
};
},
{
glyphname = Oslash;
layers = (
{
components = (
{
name = O;
transform = "{1, 0, 0, 1, 0, 0}";
}
);
layerId = "1D181ACA-DA77-4A70-94E7-537F1008817F";
name = Regular;
paths = (
{
closed = 1;
nodes = (
"490 636 LINE",
"417 636 LINE",
"76 -98 LINE",
"149 -98 LINE"
);
}
);
width = 600;
}
);
unicode = 00D8;
userData = {
com.typemytype.robofont.layerData = {
background = {
anchors = (
);
components = (
);
contours = (
);
lib = {
};
name = Oslash;
unicodes = (
);
width = 550;
};
};
};
},
{
glyphname = Thorn;
layers = (
{
layerId = "1D181ACA-DA77-4A70-94E7-537F1008817F";
name = Regular;
paths = (
{
closed = 1;
nodes = (
"186 155 CURVE",
"186 404 LINE",
"362 404 OFFCURVE",
"417 376 OFFCURVE",
"417 285 CURVE SMOOTH",
"417 186 OFFCURVE",
"362 155 OFFCURVE"
);
},
{
closed = 1;
nodes = (
"506 288 CURVE SMOOTH",
"506 430 OFFCURVE",
"429 476 OFFCURVE",
"186 478 CURVE",
"186 478 LINE",
"186 626 LINE",
"93 626 LINE",
"93 0 LINE",
"186 0 LINE",
"186 80 LINE",
"429 83 OFFCURVE",
"506 133 OFFCURVE"
);
}
);
width = 600;
}
);
unicode = 00DE;
userData = {
com.typemytype.robofont.layerData = {
background = {
anchors = (
);
components = (
);
contours = (
);
lib = {
};
name = Thorn;
unicodes = (
);
width = 550;
};
};
};
},
{
glyphname = Lslash;
layers = (
{
components = (
{
name = L;
transform = "{1, 0, 0, 1, 42, 0}";
}
);
layerId = "1D181ACA-DA77-4A70-94E7-537F1008817F";
name = Regular;
paths = (
{
closed = 1;
nodes = (
"373 480 LINE",
"79 166 LINE",
"79 264 LINE",
"280 480 LINE"
);
}
);
width = 600;
}
);
unicode = 0141;
userData = {
com.typemytype.robofont.layerData = {
background = {
anchors = (
);
components = (
);
contours = (
);
lib = {
};
name = Lslash;
unicodes = (
);
width = 550;
};
};
};
},
{
glyphname = OE;
layers = (
{
layerId = "1D181ACA-DA77-4A70-94E7-537F1008817F";
name = Regular;
paths = (
{
closed = 1;
nodes = (
"289 61 CURVE SMOOTH",
"184 61 OFFCURVE",
"119 155 OFFCURVE",
"119 312 CURVE SMOOTH",
"119 471 OFFCURVE",
"184 565 OFFCURVE",
"289 565 CURVE SMOOTH",
"309 565 OFFCURVE",
"327 562 OFFCURVE",
"342 555 CURVE",
"342 70 LINE",
"326 64 OFFCURVE",
"308 61 OFFCURVE"
);
},
{
closed = 1;
nodes = (
"346 71 LINE",
"346 71 LINE"
);
},
{
closed = 1;
nodes = (
"346 0 CURVE SMOOTH",
"560 0 LINE",
"560 62 LINE",
"414 62 LINE",
"414 293 LINE",
"535 293 LINE",
"535 347 LINE",
"414 347 LINE",
"414 564 LINE",
"560 564 LINE",
"560 626 LINE",
"343 626 LINE",
"326 630 OFFCURVE",
"308 632 OFFCURVE",
"289 632 CURVE SMOOTH",
"127 632 OFFCURVE",
"40 520 OFFCURVE",
"40 312 CURVE SMOOTH",
"40 105 OFFCURVE",
"127 -6 OFFCURVE",
"289 -6 CURVE SMOOTH",
"309 -6 OFFCURVE",
"328 0 OFFCURVE"
);
}
);
width = 600;
}
);
unicode = 0152;
userData = {
com.typemytype.robofont.layerData = {
background = {
anchors = (
);
components = (
);
contours = (
);
lib = {
};
name = OE;
unicodes = (
);
width = 550;
};
};
};
},
{
glyphname = uni00B5;
layers = (
{
components = (
{
name = u;
transform = "{1, 0, 0, 1, 26, 0}";
}
);
layerId = "1D181ACA-DA77-4A70-94E7-537F1008817F";
name = Regular;
paths = (
{
closed = 1;
nodes = (
"95 479 LINE",
"95 -199 LINE",
"178 -199 LINE",
"178 479 LINE"
);
}
);
width = 600;
}
);
unicode = 00B5;
userData = {
com.typemytype.robofont.layerData = {
background = {
anchors = (
);
components = (
);
contours = (
);
lib = {
};
name = uni00B5;
unicodes = (
);
width = 550;
};
};
};
},
{
color = (94,172,255,1);
glyphname = a;
layers = (
{
layerId = "1D181ACA-DA77-4A70-94E7-537F1008817F";
name = Regular;
paths = (
{
closed = 1;
nodes = (
"423 295 CURVE",
"423 246 LINE",
"389 246 OFFCURVE",
"179 266 OFFCURVE",
"179 150 CURVE SMOOTH",
"179 92 OFFCURVE",
"216 57 OFFCURVE",
"275 57 CURVE SMOOTH",
"345 57 OFFCURVE",
"425 111 OFFCURVE",
"425 111 CURVE",
"445 55 LINE",
"445 55 OFFCURVE",
"376 -5 OFFCURVE",
"247 -5 CURVE SMOOTH",
"157 -5 OFFCURVE",
"101 47 OFFCURVE",
"101 130 CURVE",
"101 349 OFFCURVE",
"361 295 OFFCURVE"
);
},
{
closed = 1;
nodes = (
"121 425 LINE",
"121 425 OFFCURVE",
"208 489 OFFCURVE",
"299 489 CURVE SMOOTH",
"439 489 OFFCURVE",
"498 437 OFFCURVE",
"498 315 CURVE SMOOTH",
"498 197 OFFCURVE",
"498 1 OFFCURVE",
"498 1 CURVE",
"414 1 LINE",
"414 1 OFFCURVE",
"414 256 OFFCURVE",
"414 312 CURVE SMOOTH",
"414 390 OFFCURVE",
"379 424 OFFCURVE",
"295 424 CURVE SMOOTH",
"204 424 OFFCURVE",
"157 372 OFFCURVE",
"157 372 CURVE"
);
}
);
width = 600;
}
);
unicode = 0061;
userData = {
com.typemytype.robofont.guides = (
);
com.typemytype.robofont.layerData = {
background = {
anchors = (
);
components = (
);
contours = (
);
lib = {
};
name = a;
unicodes = (
);
width = 550;
};
};
com.typemytype.robofont.mark = (
0.3696,
0.6727,
1,
1
);
};
},
{
glyphname = agrave;
layers = (
{
components = (
{
name = a;
transform = "{1, 0, 0, 1, 2, 0}";
}
);
layerId = "1D181ACA-DA77-4A70-94E7-537F1008817F";
name = Regular;
paths = (
{
closed = 1;
nodes = (
"320 573 LINE",
"237 573 LINE",
"101 675 LINE",
"219 675 LINE"
);
}
);
width = 600;
}
);
unicode = 00E0;
userData = {
com.typemytype.robofont.layerData = {
background = {
anchors = (
);
components = (
);
contours = (
);
lib = {
};
name = agrave;
unicodes = (
);
width = 550;
};
};
};
},
{
glyphname = aacute;
layers = (
{
components = (
{
name = a;
transform = "{1, 0, 0, 1, 0, 0}";
}
);
layerId = "1D181ACA-DA77-4A70-94E7-537F1008817F";
name = Regular;
paths = (
{
closed = 1;
nodes = (
"235 573 LINE",
"336 675 LINE",
"454 675 LINE",
"318 573 LINE"
);
}
);
width = 600;
}
);
unicode = 00E1;
userData = {
com.typemytype.robofont.layerData = {
background = {
anchors = (
);
components = (
);
contours = (
);
lib = {
};
name = aacute;
unicodes = (
);
width = 550;
};
};
};
},
{
glyphname = acircumflex;
layers = (
{
components = (
{
name = a;
transform = "{1, 0, 0, 1, 0, 0}";
}
);
layerId = "1D181ACA-DA77-4A70-94E7-537F1008817F";
name = Regular;
paths = (
{
closed = 1;
nodes = (
"405 573 LINE",
"318 573 LINE",
"277 622 LINE",
"236 573 LINE",
"151 573 LINE",
"235 675 LINE",
"315 675 LINE"
);
}
);
width = 600;
}
);
unicode = 00E2;
userData = {
com.typemytype.robofont.layerData = {
background = {
anchors = (
);
components = (
);
contours = (
);
lib = {
};
name = acircumflex;
unicodes = (
);
width = 550;
};
};
};
},
{
glyphname = atilde;
layers = (
{
components = (
{
name = a;
transform = "{1, 0, 0, 1, 0, 0}";
}
);
layerId = "1D181ACA-DA77-4A70-94E7-537F1008817F";
name = Regular;
paths = (
{
closed = 1;
nodes = (
"104 604 OFFCURVE",
"141 674 OFFCURVE",
"208 674 CURVE SMOOTH",
"276 674 OFFCURVE",
"303 621 OFFCURVE",
"345 621 CURVE SMOOTH",
"384 621 OFFCURVE",
"408 667 OFFCURVE",
"408 667 CURVE",
"408 667 OFFCURVE",
"449 628 OFFCURVE",
"449 628 CURVE",
"449 628 OFFCURVE",
"404 560 OFFCURVE",
"344 560 CURVE SMOOTH",
"285 560 OFFCURVE",
"244 611 OFFCURVE",
"205 611 CURVE SMOOTH",
"167 611 OFFCURVE",
"145 565 OFFCURVE",
"145 565 CURVE",
"104 604 LINE"
);
}
);
width = 600;
}
);
unicode = 00E3;
userData = {
com.typemytype.robofont.layerData = {
background = {
anchors = (
);
components = (
);
contours = (
);
lib = {
};
name = atilde;
unicodes = (
);
width = 550;
};
};
};
},
{
glyphname = adieresis;
layers = (
{
components = (
{
name = a;
transform = "{1, 0, 0, 1, 0, 0}";
}
);
layerId = "1D181ACA-DA77-4A70-94E7-537F1008817F";
name = Regular;
paths = (
{
closed = 1;
nodes = (
"225 621 CURVE SMOOTH",
"225 651 OFFCURVE",
"202 675 OFFCURVE",
"171 675 CURVE SMOOTH",
"142 675 OFFCURVE",
"118 651 OFFCURVE",
"118 621 CURVE SMOOTH",
"118 592 OFFCURVE",
"142 567 OFFCURVE",
"171 567 CURVE SMOOTH",
"202 567 OFFCURVE",
"225 592 OFFCURVE"
);
},
{
closed = 1;
nodes = (
"434 621 CURVE SMOOTH",
"434 651 OFFCURVE",
"411 675 OFFCURVE",
"381 675 CURVE SMOOTH",
"351 675 OFFCURVE",
"328 651 OFFCURVE",
"328 621 CURVE SMOOTH",
"328 592 OFFCURVE",
"351 567 OFFCURVE",
"381 567 CURVE SMOOTH",
"411 567 OFFCURVE",
"434 592 OFFCURVE"
);
}
);
width = 600;
}
);
unicode = 00E4;
userData = {
com.typemytype.robofont.layerData = {
background = {
anchors = (
);
components = (
);
contours = (
);
lib = {
};
name = adieresis;
unicodes = (
);
width = 550;
};
};
};
},
{
glyphname = aring;
layers = (
{
components = (
{
name = a;
transform = "{1, 0, 0, 1, 0, 0}";
}
);
layerId = "1D181ACA-DA77-4A70-94E7-537F1008817F";
name = Regular;
paths = (
{
closed = 1;
nodes = (
"277 731 CURVE SMOOTH",
"223 731 OFFCURVE",
"180 688 OFFCURVE",
"180 635 CURVE SMOOTH",
"180 581 OFFCURVE",
"223 538 OFFCURVE",
"277 538 CURVE SMOOTH",
"330 538 OFFCURVE",
"373 581 OFFCURVE",
"373 635 CURVE SMOOTH",
"373 688 OFFCURVE",
"330 731 OFFCURVE"
);
},
{
closed = 1;
nodes = (
"277 591 CURVE SMOOTH",
"252 591 OFFCURVE",
"233 610 OFFCURVE",
"233 635 CURVE SMOOTH",
"233 658 OFFCURVE",
"252 678 OFFCURVE",
"277 678 CURVE SMOOTH",
"300 678 OFFCURVE",
"320 658 OFFCURVE",
"320 635 CURVE SMOOTH",
"320 610 OFFCURVE",
"300 591 OFFCURVE"
);
}
);
width = 600;
}
);
unicode = 00E5;
userData = {
com.typemytype.robofont.layerData = {
background = {
anchors = (
);
components = (
);
contours = (
);
lib = {
};
name = aring;
unicodes = (
);
width = 550;
};
};
};
},
{
color = (94,172,255,1);
glyphname = b;
layers = (
{
layerId = "1D181ACA-DA77-4A70-94E7-537F1008817F";
name = Regular;
paths = (
{
closed = 1;
nodes = (
"101 84 LINE",
"101 84 OFFCURVE",
"183 59 OFFCURVE",
"269 59 CURVE SMOOTH",
"369 59 OFFCURVE",
"417 114 OFFCURVE",
"417 229 CURVE SMOOTH",
"417 352 OFFCURVE",
"382 413 OFFCURVE",
"311 413 CURVE SMOOTH",
"215 413 OFFCURVE",
"165 301 OFFCURVE",
"165 301 CURVE",
"156 361 LINE",
"156 361 OFFCURVE",
"231 488 OFFCURVE",
"322 488 CURVE SMOOTH",
"440 488 OFFCURVE",
"499 403 OFFCURVE",
"499 232 CURVE SMOOTH",
"499 72 OFFCURVE",
"424 -6 OFFCURVE",
"273 -6 CURVE SMOOTH",
"184 -6 OFFCURVE",
"101 13 OFFCURVE",
"101 13 CURVE"
);
},
{
closed = 1;
nodes = (
"101 675 LINE",
"184 675 LINE",
"184 13 LINE",
"101 13 LINE"
);
}
);
width = 600;
}
);
unicode = 0062;
userData = {
com.typemytype.robofont.guides = (
);
com.typemytype.robofont.layerData = {
background = {
anchors = (
);
components = (
);
contours = (
);
lib = {
};
name = b;
unicodes = (
);
width = 550;
};
};
com.typemytype.robofont.mark = (
0.3696,
0.6727,
1,
1
);
};
},
{
color = (94,172,255,1);
glyphname = c;
layers = (
{
layerId = "1D181ACA-DA77-4A70-94E7-537F1008817F";
name = Regular;
paths = (
{
closed = 1;
nodes = (
"101 240 CURVE",
"107 71 OFFCURVE",
"174 -6 OFFCURVE",
"312 -6 CURVE SMOOTH",
"433 -6 OFFCURVE",
"498 30 OFFCURVE",
"498 30 CURVE",
"498 106 LINE",
"498 106 OFFCURVE",
"426 69 OFFCURVE",
"337 69 CURVE SMOOTH",
"239 69 OFFCURVE",
"193 123 OFFCURVE",
"191 240 CURVE SMOOTH",
"193 358 OFFCURVE",
"239 413 OFFCURVE",
"338 413 CURVE SMOOTH",
"427 413 OFFCURVE",
"499 376 OFFCURVE",
"499 376 CURVE",
"499 451 LINE",
"499 451 OFFCURVE",
"434 488 OFFCURVE",
"313 488 CURVE SMOOTH",
"175 488 OFFCURVE",
"108 410 OFFCURVE"
);
}
);
width = 600;
}
);
unicode = 0063;
userData = {
com.typemytype.robofont.guides = (
);
com.typemytype.robofont.layerData = {
background = {
anchors = (
);
components = (
);
contours = (
);
lib = {
};
name = c;
unicodes = (
);
width = 550;
};
};
com.typemytype.robofont.mark = (
0.3696,
0.6727,
1,
1
);
};
},
{
glyphname = ccedilla;
layers = (
{
components = (
{
name = c;
transform = "{1, 0, 0, 1, 0, 0}";
}
);
layerId = "1D181ACA-DA77-4A70-94E7-537F1008817F";
name = Regular;
paths = (
{
closed = 1;
nodes = (
"360 43 LINE",
"234 43 LINE",
"234 0 LINE",
"181 -170 LINE",
"252 -170 LINE",
"361 2 LINE"
);
}
);
width = 600;
}
);
unicode = 00E7;
userData = {
com.typemytype.robofont.layerData = {
background = {
anchors = (
);
components = (
);
contours = (
);
lib = {
};
name = ccedilla;
unicodes = (
);
width = 550;
};
};
};
},
{
color = (94,172,255,1);
glyphname = d;
layers = (
{
layerId = "1D181ACA-DA77-4A70-94E7-537F1008817F";
name = Regular;
paths = (
{
closed = 1;
nodes = (
"499 675 LINE",
"499 0 LINE",
"416 0 LINE",
"416 675 LINE"
);
},
{
closed = 1;
nodes = (
"499 398 LINE",
"499 398 OFFCURVE",
"417 424 OFFCURVE",
"331 424 CURVE SMOOTH",
"232 424 OFFCURVE",
"183 367 OFFCURVE",
"183 253 CURVE SMOOTH",
"183 130 OFFCURVE",
"218 69 OFFCURVE",
"289 69 CURVE SMOOTH",
"385 69 OFFCURVE",
"435 181 OFFCURVE",
"435 181 CURVE",
"444 121 LINE",
"444 121 OFFCURVE",
"380 -6 OFFCURVE",
"288 -6 CURVE SMOOTH",
"163 -6 OFFCURVE",
"101 79 OFFCURVE",
"101 250 CURVE SMOOTH",
"101 409 OFFCURVE",
"177 488 OFFCURVE",
"327 488 CURVE SMOOTH",
"416 488 OFFCURVE",
"499 470 OFFCURVE",
"499 470 CURVE"
);
}
);
width = 600;
}
);
unicode = 0064;
userData = {
com.typemytype.robofont.layerData = {
background = {
anchors = (
);
components = (
);
contours = (
);
lib = {
};
name = d;
unicodes = (
);
width = 550;
};
};
com.typemytype.robofont.mark = (
0.3696,
0.6727,
1,
1
);
};
},
{
color = (94,172,255,1);
glyphname = e;
layers = (
{
layerId = "1D181ACA-DA77-4A70-94E7-537F1008817F";
name = Regular;
paths = (
{
closed = 1;
nodes = (
"310 488 CURVE SMOOTH",
"150 488 OFFCURVE",
"77 410 OFFCURVE",
"77 240 CURVE SMOOTH",
"77 71 OFFCURVE",
"150 -6 OFFCURVE",
"310 -6 CURVE SMOOTH",
"450 -6 OFFCURVE",
"498 39 OFFCURVE",
"498 39 CURVE",
"498 119 LINE",
"498 119 OFFCURVE",
"424 65 OFFCURVE",
"310 65 CURVE SMOOTH",
"215 65 OFFCURVE",
"166 115 OFFCURVE",
"166 212 CURVE",
"522 212 LINE",
"522 401 OFFCURVE",
"456 488 OFFCURVE"
);
},
{
closed = 1;
nodes = (
"310 418 CURVE SMOOTH",
"392 418 OFFCURVE",
"435 369 OFFCURVE",
"435 276 CURVE",
"167 276 LINE",
"167 369 OFFCURVE",
"216 418 OFFCURVE"
);
}
);
width = 600;
}
);
unicode = 0065;
userData = {
com.typemytype.robofont.guides = (
);
com.typemytype.robofont.layerData = {
background = {
anchors = (
);
components = (
);
contours = (
);
lib = {
};
name = e;
unicodes = (
);
width = 550;
};
};
com.typemytype.robofont.mark = (
0.3696,
0.6727,
1,
1
);
};
},
{
glyphname = egrave;
layers = (
{
components = (
{
name = e;
transform = "{1, 0, 0, 1, 0, 0}";
}
);
layerId = "1D181ACA-DA77-4A70-94E7-537F1008817F";
name = Regular;
paths = (
{
closed = 1;
nodes = (
"310 573 LINE",
"227 573 LINE",
"91 675 LINE",
"209 675 LINE"
);
}
);
width = 600;
}
);
unicode = 00E8;
userData = {
com.typemytype.robofont.layerData = {
background = {
anchors = (
);
components = (
);
contours = (
);
lib = {
};
name = egrave;
unicodes = (
);
width = 550;
};
};
};
},
{
glyphname = eacute;
layers = (
{
components = (
{
name = e;
transform = "{1, 0, 0, 1, 0, 0}";
}
);
layerId = "1D181ACA-DA77-4A70-94E7-537F1008817F";
name = Regular;
paths = (
{
closed = 1;
nodes = (
"227 573 LINE",
"328 675 LINE",
"446 675 LINE",
"310 573 LINE"
);
}
);
width = 600;
}
);
unicode = 00E9;
userData = {
com.typemytype.robofont.layerData = {
background = {
anchors = (
);
components = (
);
contours = (
);
lib = {
};
name = eacute;
unicodes = (
);
width = 550;
};
};
};
},
{
glyphname = ecircumflex;
layers = (
{
components = (
{
name = e;
transform = "{1, 0, 0, 1, 0, 0}";
}
);
layerId = "1D181ACA-DA77-4A70-94E7-537F1008817F";
name = Regular;
paths = (
{
closed = 1;
nodes = (
"397 573 LINE",
"310 573 LINE",
"269 622 LINE",
"228 573 LINE",
"143 573 LINE",
"227 675 LINE",
"307 675 LINE"
);
}
);
width = 600;
}
);
unicode = 00EA;
userData = {
com.typemytype.robofont.layerData = {
background = {
anchors = (
);
components = (
);
contours = (
);
lib = {
};
name = ecircumflex;
unicodes = (
);
width = 550;
};
};
};
},
{
glyphname = edieresis;
layers = (
{
components = (
{
name = e;
transform = "{1, 0, 0, 1, 194, 0}";
}
);
layerId = "1D181ACA-DA77-4A70-94E7-537F1008817F";
name = Regular;
paths = (
{
closed = 1;
nodes = (
"411 621 CURVE SMOOTH",
"411 651 OFFCURVE",
"388 675 OFFCURVE",
"357 675 CURVE SMOOTH",
"328 675 OFFCURVE",
"305 651 OFFCURVE",
"305 621 CURVE SMOOTH",
"305 592 OFFCURVE",
"328 567 OFFCURVE",
"357 567 CURVE SMOOTH",
"388 567 OFFCURVE",
"411 592 OFFCURVE"
);
},
{
closed = 1;
nodes = (
"621 621 CURVE SMOOTH",
"621 651 OFFCURVE",
"597 675 OFFCURVE",
"567 675 CURVE SMOOTH",
"537 675 OFFCURVE",
"514 651 OFFCURVE",
"514 621 CURVE SMOOTH",
"514 592 OFFCURVE",
"537 567 OFFCURVE",
"567 567 CURVE SMOOTH",
"597 567 OFFCURVE",
"621 592 OFFCURVE"
);
},
{
closed = 1;
nodes = (
"929 -6 OFFCURVE",
"-1013 -6 OFFCURVE",
"473 -6 CURVE SMOOTH"
);
}
);
width = 600;
}
);
unicode = 00EB;
userData = {
com.typemytype.robofont.layerData = {
background = {
anchors = (
);
components = (
);
contours = (
);
lib = {
};
name = edieresis;
unicodes = (
);
width = 550;
};
};
};
},
{
color = (94,172,255,1);
glyphname = f;
layers = (
{
layerId = "1D181ACA-DA77-4A70-94E7-537F1008817F";
name = Regular;
paths = (
{
closed = 1;
nodes = (
"499 338 LINE",
"101 338 LINE",
"101 407 LINE",
"499 407 LINE"
);
},
{
closed = 1;
nodes = (
"302 488 CURVE SMOOTH",
"302 0 LINE",
"220 0 LINE",
"220 0 OFFCURVE",
"220 411 OFFCURVE",
"220 488 CURVE SMOOTH",
"220 628 OFFCURVE",
"260 680 OFFCURVE",
"369 680 CURVE SMOOTH",
"452 680 OFFCURVE",
"486 660 OFFCURVE",
"486 660 CURVE",
"486 590 LINE",
"486 590 OFFCURVE",
"449 610 OFFCURVE",
"373 610 CURVE SMOOTH",
"316 610 OFFCURVE",
"302 586 OFFCURVE"
);
}
);
width = 600;
}
);
unicode = 0066;
userData = {
com.typemytype.robofont.guides = (
);
com.typemytype.robofont.layerData = {
background = {
anchors = (
);
components = (
);
contours = (
);
lib = {
};
name = f;
unicodes = (
);
width = 550;
};
};
com.typemytype.robofont.mark = (
0.3696,
0.6727,
1,
1
);
};
},
{
color = (94,172,255,1);
glyphname = g;
layers = (
{
layerId = "1D181ACA-DA77-4A70-94E7-537F1008817F";
name = Regular;
paths = (
{
closed = 1;
nodes = (
"416 82 CURVE SMOOTH",
"416 479 LINE",
"499 456 LINE",
"499 456 OFFCURVE",
"499 159 OFFCURVE",
"499 82 CURVE SMOOTH",
"499 -126 OFFCURVE",
"447 -206 OFFCURVE",
"312 -206 CURVE SMOOTH",
"190 -206 OFFCURVE",
"126 -170 OFFCURVE",
"126 -170 CURVE",
"126 -95 LINE",
"126 -95 OFFCURVE",
"211 -131 OFFCURVE",
"300 -131 CURVE SMOOTH",
"384 -131 OFFCURVE",
"416 -71 OFFCURVE"
);
},
{
closed = 1;
nodes = (
"499 398 LINE",
"499 398 OFFCURVE",
"417 424 OFFCURVE",
"331 424 CURVE SMOOTH",
"224 424 OFFCURVE",
"183 377 OFFCURVE",
"183 253 CURVE SMOOTH",
"183 120 OFFCURVE",
"212 69 OFFCURVE",
"289 69 CURVE SMOOTH",
"385 69 OFFCURVE",
"435 181 OFFCURVE",
"435 181 CURVE",
"444 121 LINE",
"444 121 OFFCURVE",
"369 -6 OFFCURVE",
"279 -6 CURVE SMOOTH",
"150 -6 OFFCURVE",
"101 66 OFFCURVE",
"101 250 CURVE SMOOTH",
"101 423 OFFCURVE",
"164 488 OFFCURVE",
"327 488 CURVE SMOOTH",
"416 488 OFFCURVE",
"499 470 OFFCURVE",
"499 470 CURVE"
);
}
);
width = 600;
}
);
unicode = 0067;
userData = {
com.typemytype.robofont.guides = (
);
com.typemytype.robofont.layerData = {
background = {
anchors = (
);
components = (
);
contours = (
);
lib = {
};
name = g;
unicodes = (
);
width = 550;
};
};
com.typemytype.robofont.mark = (
0.3696,
0.6727,
1,
1
);
};
},
{
color = (94,172,255,1);
glyphname = h;
layers = (
{
layerId = "1D181ACA-DA77-4A70-94E7-537F1008817F";
name = Regular;
paths = (
{
closed = 1;
nodes = (
"101 675 LINE",
"101 0 LINE",
"184 0 LINE",
"184 675 LINE"
);
},
{
closed = 1;
nodes = (
"499 232 LINE SMOOTH",
"499 364 OFFCURVE",
"458 488 OFFCURVE",
"325 488 CURVE SMOOTH",
"246 488 OFFCURVE",
"202 427 OFFCURVE",
"156 361 CURVE",
"165 301 LINE",
"192 368 OFFCURVE",
"234 413 OFFCURVE",
"307 413 CURVE SMOOTH",
"397 413 OFFCURVE",
"417 319 OFFCURVE",
"417 229 CURVE SMOOTH",
"417 0 LINE",
"499 0 LINE"
);
}
);
width = 600;
}
);
unicode = 0068;
userData = {
com.typemytype.robofont.layerData = {
background = {
anchors = (
);
components = (
);
contours = (
);
lib = {
};
name = h;
unicodes = (
);
width = 550;
};
};
com.typemytype.robofont.mark = (
0.3696,
0.6727,
1,
1
);
};
},
{
color = (94,172,255,1);
glyphname = i;
layers = (
{
layerId = "1D181ACA-DA77-4A70-94E7-537F1008817F";
name = Regular;
paths = (
{
closed = 1;
nodes = (
"335 616 CURVE SMOOTH",
"335 653 OFFCURVE",
"309 680 OFFCURVE",
"272 680 CURVE SMOOTH",
"234 680 OFFCURVE",
"207 653 OFFCURVE",
"207 616 CURVE SMOOTH",
"207 579 OFFCURVE",
"234 552 OFFCURVE",
"272 552 CURVE SMOOTH",
"309 552 OFFCURVE",
"335 579 OFFCURVE"
);
},
{
closed = 1;
nodes = (
"395 69 CURVE SMOOTH",
"315 69 OFFCURVE",
"317 168 OFFCURVE",
"318 248 CURVE",
"318 479 LINE SMOOTH",
"147 479 LINE",
"147 411 LINE",
"235 411 LINE",
"235 283 LINE SMOOTH",
"235 136 OFFCURVE",
"236 -6 OFFCURVE",
"383 -6 CURVE SMOOTH",
"408 -6 OFFCURVE",
"430 -2 OFFCURVE",
"453 5 CURVE",
"453 75 LINE",
"434 71 OFFCURVE",
"414 69 OFFCURVE"
);
}
);
width = 600;
}
);
unicode = 0069;
userData = {
com.typemytype.robofont.guides = (
{
angle = 90;
isGlobal = 0;
magnetic = 5;
x = 293;
y = 495;
}
);
com.typemytype.robofont.layerData = {
background = {
anchors = (
);
components = (
);
contours = (
);
lib = {
};
name = i;
unicodes = (
);
width = 550;
};
};
com.typemytype.robofont.mark = (
0.3696,
0.6727,
1,
1
);
};
},
{
glyphname = igrave;
layers = (
{
layerId = "1D181ACA-DA77-4A70-94E7-537F1008817F";
name = Regular;
paths = (
{
closed = 1;
nodes = (
"342 573 LINE",
"259 573 LINE",
"123 675 LINE",
"242 675 LINE"
);
},
{
closed = 1;
nodes = (
"418 69 CURVE SMOOTH",
"338 69 OFFCURVE",
"340 168 OFFCURVE",
"341 248 CURVE",
"341 479 LINE SMOOTH",
"170 479 LINE",
"170 411 LINE",
"258 411 LINE",
"258 283 LINE SMOOTH",
"258 136 OFFCURVE",
"259 -6 OFFCURVE",
"406 -6 CURVE SMOOTH",
"431 -6 OFFCURVE",
"453 -2 OFFCURVE",
"476 5 CURVE",
"476 75 LINE",
"457 71 OFFCURVE",
"437 69 OFFCURVE"
);
}
);
width = 600;
}
);
unicode = 00EC;
userData = {
com.typemytype.robofont.layerData = {
background = {
anchors = (
);
components = (
);
contours = (
);
lib = {
};
name = igrave;
unicodes = (
);
width = 550;
};
};
};
},
{
glyphname = iacute;
layers = (
{
layerId = "1D181ACA-DA77-4A70-94E7-537F1008817F";
name = Regular;
paths = (
{
closed = 1;
nodes = (
"235 573 LINE",
"336 675 LINE",
"454 675 LINE",
"318 573 LINE"
);
},
{
closed = 1;
nodes = (
"394 69 CURVE SMOOTH",
"314 69 OFFCURVE",
"316 168 OFFCURVE",
"317 248 CURVE",
"317 479 LINE SMOOTH",
"146 479 LINE",
"146 411 LINE",
"234 411 LINE",
"234 283 LINE SMOOTH",
"234 136 OFFCURVE",
"235 -6 OFFCURVE",
"382 -6 CURVE SMOOTH",
"407 -6 OFFCURVE",
"429 -2 OFFCURVE",
"452 5 CURVE",
"452 75 LINE",
"433 71 OFFCURVE",
"413 69 OFFCURVE"
);
}
);
width = 600;
}
);
unicode = 00ED;
userData = {
com.typemytype.robofont.layerData = {
background = {
anchors = (
);
components = (
);
contours = (
);
lib = {
};
name = iacute;
unicodes = (
);
width = 550;
};
};
};
},
{
glyphname = icircumflex;
layers = (
{
layerId = "1D181ACA-DA77-4A70-94E7-537F1008817F";
name = Regular;
paths = (
{
closed = 1;
nodes = (
"407 573 LINE",
"319 573 LINE",
"278 622 LINE",
"237 573 LINE",
"152 573 LINE",
"236 675 LINE",
"317 675 LINE"
);
},
{
closed = 1;
nodes = (
"395 69 CURVE SMOOTH",
"315 69 OFFCURVE",
"317 168 OFFCURVE",
"318 248 CURVE",
"318 479 LINE SMOOTH",
"147 479 LINE",
"147 411 LINE",
"235 411 LINE",
"235 283 LINE SMOOTH",
"235 136 OFFCURVE",
"236 -6 OFFCURVE",
"383 -6 CURVE SMOOTH",
"408 -6 OFFCURVE",
"430 -2 OFFCURVE",
"453 5 CURVE",
"453 75 LINE",
"434 71 OFFCURVE",
"414 69 OFFCURVE"
);
}
);
width = 600;
}
);
unicode = 00EE;
userData = {
com.typemytype.robofont.layerData = {
background = {
anchors = (
);
components = (
);
contours = (
);
lib = {
};
name = icircumflex;
unicodes = (
);
width = 550;
};
};
};
},
{
glyphname = idieresis;
layers = (
{
layerId = "1D181ACA-DA77-4A70-94E7-537F1008817F";
name = Regular;
paths = (
{
closed = 1;
nodes = (
"240 621 CURVE SMOOTH",
"240 651 OFFCURVE",
"216 675 OFFCURVE",
"186 675 CURVE SMOOTH",
"156 675 OFFCURVE",
"133 651 OFFCURVE",
"133 621 CURVE SMOOTH",
"133 592 OFFCURVE",
"156 567 OFFCURVE",
"186 567 CURVE SMOOTH",
"216 567 OFFCURVE",
"240 592 OFFCURVE"
);
},
{
closed = 1;
nodes = (
"449 621 CURVE SMOOTH",
"449 651 OFFCURVE",
"425 675 OFFCURVE",
"395 675 CURVE SMOOTH",
"366 675 OFFCURVE",
"342 651 OFFCURVE",
"342 621 CURVE SMOOTH",
"342 592 OFFCURVE",
"366 567 OFFCURVE",
"395 567 CURVE SMOOTH",
"425 567 OFFCURVE",
"449 592 OFFCURVE"
);
},
{
closed = 1;
nodes = (
"408 69 CURVE SMOOTH",
"328 69 OFFCURVE",
"330 168 OFFCURVE",
"331 248 CURVE",
"331 479 LINE SMOOTH",
"160 479 LINE",
"160 411 LINE",
"248 411 LINE",
"248 283 LINE SMOOTH",
"248 136 OFFCURVE",
"249 -6 OFFCURVE",
"396 -6 CURVE SMOOTH",
"421 -6 OFFCURVE",
"443 -2 OFFCURVE",
"466 5 CURVE",
"466 75 LINE",
"447 71 OFFCURVE",
"427 69 OFFCURVE"
);
}
);
width = 600;
}
);
unicode = 00EF;
userData = {
com.typemytype.robofont.layerData = {
background = {
anchors = (
);
components = (
);
contours = (
);
lib = {
};
name = idieresis;
unicodes = (
);
width = 550;
};
};
};
},
{
color = (94,172,255,1);
glyphname = j;
layers = (
{
layerId = "1D181ACA-DA77-4A70-94E7-537F1008817F";
name = Regular;
paths = (
{
closed = 1;
nodes = (
"459 411 LINE",
"201 411 LINE",
"201 479 LINE",
"459 479 LINE"
);
},
{
closed = 1;
nodes = (
"469 616 CURVE SMOOTH",
"469 652 OFFCURVE",
"441 680 OFFCURVE",
"406 680 CURVE SMOOTH",
"369 680 OFFCURVE",
"341 652 OFFCURVE",
"341 616 CURVE SMOOTH",
"341 580 OFFCURVE",
"369 552 OFFCURVE",
"406 552 CURVE SMOOTH",
"441 552 OFFCURVE",
"469 580 OFFCURVE"
);
},
{
closed = 1;
nodes = (
"381 82 CURVE SMOOTH",
"381 479 LINE",
"463 479 LINE",
"463 479 OFFCURVE",
"463 159 OFFCURVE",
"463 82 CURVE SMOOTH",
"463 -132 OFFCURVE",
"415 -206 OFFCURVE",
"278 -206 CURVE SMOOTH",
"217 -206 OFFCURVE",
"179 -202 OFFCURVE",
"130 -186 CURVE",
"130 -109 LINE",
"182 -125 OFFCURVE",
"216 -131 OFFCURVE",
"265 -131 CURVE SMOOTH",
"351 -131 OFFCURVE",
"381 -76 OFFCURVE"
);
}
);
width = 600;
}
);
unicode = 006A;
userData = {
com.typemytype.robofont.guides = (
{
angle = 90;
isGlobal = 0;
magnetic = 5;
x = 436;
y = 476;
},
{
angle = 90;
isGlobal = 0;
magnetic = 5;
x = 40;
y = "-100";
}
);
com.typemytype.robofont.layerData = {
background = {
anchors = (
);
components = (
);
contours = (
);
lib = {
};
name = j;
unicodes = (
);
width = 550;
};
};
com.typemytype.robofont.mark = (
0.3696,
0.6727,
1,
1
);
};
},
{
color = (94,172,255,1);
glyphname = k;
layers = (
{
layerId = "1D181ACA-DA77-4A70-94E7-537F1008817F";
name = Regular;
paths = (
{
closed = 1;
nodes = (
"390 0 LINE",
"499 0 LINE",
"278 307 LINE",
"220 246 LINE"
);
},
{
closed = 1;
nodes = (
"101 675 LINE",
"101 0 LINE",
"184 0 LINE",
"184 675 LINE"
);
},
{
closed = 1;
nodes = (
"390 479 LINE",
"133 221 LINE",
"183 163 LINE",
"499 479 LINE"
);
}
);
width = 600;
}
);
unicode = 006B;
userData = {
com.typemytype.robofont.layerData = {
background = {
anchors = (
);
components = (
);
contours = (
);
lib = {
};
name = k;
unicodes = (
);
width = 550;
};
};
com.typemytype.robofont.mark = (
0.3696,
0.6727,
1,
1
);
};
},
{
color = (94,172,255,1);
glyphname = l;
layers = (
{
layerId = "1D181ACA-DA77-4A70-94E7-537F1008817F";
name = Regular;
paths = (
{
closed = 1;
nodes = (
"395 69 CURVE SMOOTH",
"315 69 OFFCURVE",
"317 168 OFFCURVE",
"318 248 CURVE",
"318 626 LINE SMOOTH",
"147 626 LINE",
"147 558 LINE",
"235 558 LINE",
"235 283 LINE SMOOTH",
"235 136 OFFCURVE",
"236 -6 OFFCURVE",
"383 -6 CURVE SMOOTH",
"408 -6 OFFCURVE",
"430 -2 OFFCURVE",
"453 5 CURVE",
"453 75 LINE",
"434 71 OFFCURVE",
"414 69 OFFCURVE"
);
}
);
width = 600;
}
);
unicode = 006C;
userData = {
com.typemytype.robofont.layerData = {
background = {
anchors = (
);
components = (
);
contours = (
);
lib = {
};
name = l;
unicodes = (
);
width = 550;
};
};
com.typemytype.robofont.mark = (
0.3696,
0.6727,
1,
1
);
};
},
{
color = (94,172,255,1);
glyphname = m;
layers = (
{
layerId = "1D181ACA-DA77-4A70-94E7-537F1008817F";
name = Regular;
paths = (
{
closed = 1;
nodes = (
"310 385 CURVE",
"341 302 LINE",
"341 358 OFFCURVE",
"341 413 OFFCURVE",
"397 413 CURVE SMOOTH",
"450 413 OFFCURVE",
"451 355 OFFCURVE",
"451 302 CURVE SMOOTH",
"451 202 OFFCURVE",
"451 101 OFFCURVE",
"451 0 CURVE",
"525 0 LINE",
"525 102 OFFCURVE",
"525 203 OFFCURVE",
"525 305 CURVE SMOOTH",
"525 391 OFFCURVE",
"512 488 OFFCURVE",
"426 488 CURVE SMOOTH",
"367 488 OFFCURVE",
"338 437 OFFCURVE"
);
},
{
closed = 1;
nodes = (
"125 385 CURVE",
"157 302 LINE",
"156 357 OFFCURVE",
"154 413 OFFCURVE",
"209 413 CURVE SMOOTH",
"262 413 OFFCURVE",
"267 355 OFFCURVE",
"267 302 CURVE SMOOTH",
"267 202 OFFCURVE",
"267 101 OFFCURVE",
"267 0 CURVE",
"341 0 LINE",
"341 102 OFFCURVE",
"341 203 OFFCURVE",
"341 305 CURVE SMOOTH",
"341 391 OFFCURVE",
"332 488 OFFCURVE",
"246 488 CURVE SMOOTH",
"186 488 OFFCURVE",
"155 437 OFFCURVE"
);
},
{
closed = 1;
nodes = (
"75 479 LINE",
"75 0 LINE",
"157 0 LINE",
"157 479 LINE"
);
}
);
width = 600;
}
);
unicode = 006D;
userData = {
com.typemytype.robofont.layerData = {
background = {
anchors = (
);
components = (
);
contours = (
);
lib = {
};
name = m;
unicodes = (
);
width = 550;
};
};
com.typemytype.robofont.mark = (
0.3696,
0.6727,
1,
1
);
};
},
{
color = (94,172,255,1);
glyphname = n;
layers = (
{
layerId = "1D181ACA-DA77-4A70-94E7-537F1008817F";
name = Regular;
paths = (
{
closed = 1;
nodes = (
"184 0 LINE",
"184 479 LINE",
"101 479 LINE",
"101 0 LINE"
);
},
{
closed = 1;
nodes = (
"499 232 LINE SMOOTH",
"499 406 OFFCURVE",
"442 488 OFFCURVE",
"322 488 CURVE SMOOTH",
"231 488 OFFCURVE",
"156 361 OFFCURVE",
"156 361 CURVE",
"165 301 LINE",
"165 301 OFFCURVE",
"215 413 OFFCURVE",
"311 413 CURVE SMOOTH",
"383 413 OFFCURVE",
"417 354 OFFCURVE",
"417 229 CURVE SMOOTH",
"417 0 LINE",
"499 0 LINE"
);
}
);
width = 600;
}
);
unicode = 006E;
userData = {
com.typemytype.robofont.layerData = {
background = {
anchors = (
);
components = (
);
contours = (
);
lib = {
};
name = n;
unicodes = (
);
width = 550;
};
};
com.typemytype.robofont.mark = (
0.3696,
0.6727,
1,
1
);
};
},
{
glyphname = ntilde;
layers = (
{
components = (
{
name = n;
transform = "{1, 0, 0, 1, 4, 0}";
}
);
layerId = "1D181ACA-DA77-4A70-94E7-537F1008817F";
name = Regular;
paths = (
{
closed = 1;
nodes = (
"101 604 OFFCURVE",
"138 674 OFFCURVE",
"206 674 CURVE SMOOTH",
"273 674 OFFCURVE",
"300 621 OFFCURVE",
"342 621 CURVE SMOOTH",
"382 621 OFFCURVE",
"405 667 OFFCURVE",
"405 667 CURVE",
"405 667 OFFCURVE",
"446 628 OFFCURVE",
"446 628 CURVE",
"446 628 OFFCURVE",
"401 560 OFFCURVE",
"342 560 CURVE SMOOTH",
"282 560 OFFCURVE",
"241 611 OFFCURVE",
"203 611 CURVE SMOOTH",
"164 611 OFFCURVE",
"142 565 OFFCURVE",
"142 565 CURVE",
"101 604 LINE"
);
}
);
width = 600;
}
);
unicode = 00F1;
userData = {
com.typemytype.robofont.layerData = {
background = {
anchors = (
);
components = (
);
contours = (
);
lib = {
};
name = ntilde;
unicodes = (
);
width = 550;
};
};
};
},
{
color = (94,172,255,1);
glyphname = o;
layers = (
{
layerId = "1D181ACA-DA77-4A70-94E7-537F1008817F";
name = Regular;
paths = (
{
closed = 1;
nodes = (
"298 420 CURVE SMOOTH",
"391 420 OFFCURVE",
"436 338 OFFCURVE",
"436 243 CURVE SMOOTH",
"436 151 OFFCURVE",
"393 64 OFFCURVE",
"298 64 CURVE SMOOTH",
"203 64 OFFCURVE",
"165 151 OFFCURVE",
"165 243 CURVE SMOOTH",
"165 338 OFFCURVE",
"205 420 OFFCURVE"
);
},
{
closed = 1;
nodes = (
"297 488 CURVE SMOOTH",
"156 488 OFFCURVE",
"79 383 OFFCURVE",
"79 244 CURVE SMOOTH",
"79 105 OFFCURVE",
"155 -6 OFFCURVE",
"296 -6 CURVE SMOOTH",
"436 -6 OFFCURVE",
"521 102 OFFCURVE",
"521 244 CURVE SMOOTH",
"521 385 OFFCURVE",
"436 488 OFFCURVE"
);
}
);
width = 600;
}
);
unicode = 006F;
userData = {
com.typemytype.robofont.layerData = {
background = {
anchors = (
);
components = (
);
contours = (
);
lib = {
};
name = o;
unicodes = (
);
width = 550;
};
};
com.typemytype.robofont.mark = (
0.3696,
0.6727,
1,
1
);
};
},
{
glyphname = ograve;
layers = (
{
components = (
{
name = o;
transform = "{1, 0, 0, 1, 0, 0}";
},
{
name = o;
transform = "{1, 0, 0, 1, 0, 0}";
}
);
layerId = "1D181ACA-DA77-4A70-94E7-537F1008817F";
name = Regular;
paths = (
{
closed = 1;
nodes = (
"310 573 LINE",
"227 573 LINE",
"91 675 LINE",
"209 675 LINE"
);
}
);
width = 600;
}
);
unicode = 00F2;
userData = {
com.typemytype.robofont.layerData = {
background = {
anchors = (
);
components = (
);
contours = (
);
lib = {
};
name = ograve;
unicodes = (
);
width = 550;
};
};
};
},
{
glyphname = oacute;
layers = (
{
components = (
{
name = o;
transform = "{1, 0, 0, 1, 0, 0}";
}
);
layerId = "1D181ACA-DA77-4A70-94E7-537F1008817F";
name = Regular;
paths = (
{
closed = 1;
nodes = (
"227 573 LINE",
"328 675 LINE",
"446 675 LINE",
"310 573 LINE"
);
}
);
width = 600;
}
);
unicode = 00F3;
userData = {
com.typemytype.robofont.layerData = {
background = {
anchors = (
);
components = (
);
contours = (
);
lib = {
};
name = oacute;
unicodes = (
);
width = 550;
};
};
};
},
{
glyphname = ocircumflex;
layers = (
{
components = (
{
name = o;
transform = "{1, 0, 0, 1, 0, 0}";
}
);
layerId = "1D181ACA-DA77-4A70-94E7-537F1008817F";
name = Regular;
paths = (
{
closed = 1;
nodes = (
"397 573 LINE",
"310 573 LINE",
"269 622 LINE",
"228 573 LINE",
"143 573 LINE",
"227 675 LINE",
"307 675 LINE"
);
}
);
width = 600;
}
);
unicode = 00F4;
userData = {
com.typemytype.robofont.layerData = {
background = {
anchors = (
);
components = (
);
contours = (
);
lib = {
};
name = ocircumflex;
unicodes = (
);
width = 550;
};
};
};
},
{
glyphname = otilde;
layers = (
{
components = (
{
name = o;
transform = "{1, 0, 0, 1, 0, 0}";
}
);
layerId = "1D181ACA-DA77-4A70-94E7-537F1008817F";
name = Regular;
paths = (
{
closed = 1;
nodes = (
"96 604 OFFCURVE",
"133 674 OFFCURVE",
"201 674 CURVE SMOOTH",
"268 674 OFFCURVE",
"295 621 OFFCURVE",
"338 621 CURVE SMOOTH",
"377 621 OFFCURVE",
"400 667 OFFCURVE",
"400 667 CURVE",
"400 667 OFFCURVE",
"441 628 OFFCURVE",
"441 628 CURVE",
"441 628 OFFCURVE",
"396 560 OFFCURVE",
"337 560 CURVE SMOOTH",
"277 560 OFFCURVE",
"236 611 OFFCURVE",
"198 611 CURVE SMOOTH",
"159 611 OFFCURVE",
"137 565 OFFCURVE",
"137 565 CURVE",
"96 604 LINE"
);
}
);
width = 600;
}
);
unicode = 00F5;
userData = {
com.typemytype.robofont.layerData = {
background = {
anchors = (
);
components = (
);
contours = (
);
lib = {
};
name = otilde;
unicodes = (
);
width = 550;
};
};
};
},
{
glyphname = odieresis;
layers = (
{
components = (
{
name = o;
transform = "{1, 0, 0, 1, 0, 0}";
}
);
layerId = "1D181ACA-DA77-4A70-94E7-537F1008817F";
name = Regular;
paths = (
{
closed = 1;
nodes = (
"217 621 CURVE SMOOTH",
"217 651 OFFCURVE",
"194 675 OFFCURVE",
"163 675 CURVE SMOOTH",
"134 675 OFFCURVE",
"111 651 OFFCURVE",
"111 621 CURVE SMOOTH",
"111 592 OFFCURVE",
"134 567 OFFCURVE",
"163 567 CURVE SMOOTH",
"194 567 OFFCURVE",
"217 592 OFFCURVE"
);
},
{
closed = 1;
nodes = (
"427 621 CURVE SMOOTH",
"427 651 OFFCURVE",
"403 675 OFFCURVE",
"373 675 CURVE SMOOTH",
"343 675 OFFCURVE",
"320 651 OFFCURVE",
"320 621 CURVE SMOOTH",
"320 592 OFFCURVE",
"343 567 OFFCURVE",
"373 567 CURVE SMOOTH",
"403 567 OFFCURVE",
"427 592 OFFCURVE"
);
}
);
width = 600;
}
);
unicode = 00F6;
userData = {
com.typemytype.robofont.layerData = {
background = {
anchors = (
);
components = (
);
contours = (
);
lib = {
};
name = odieresis;
unicodes = (
);
width = 550;
};
};
};
},
{
color = (94,172,255,1);
glyphname = p;
layers = (
{
layerId = "1D181ACA-DA77-4A70-94E7-537F1008817F";
name = Regular;
paths = (
{
closed = 0;
nodes = (
"326 0 LINE"
);
},
{
closed = 1;
nodes = (
"101 -198 LINE",
"101 479 LINE",
"184 479 LINE",
"184 -198 LINE"
);
},
{
closed = 1;
nodes = (
"101 84 LINE",
"156 68 OFFCURVE",
"212 59 OFFCURVE",
"269 59 CURVE SMOOTH",
"366 59 OFFCURVE",
"417 132 OFFCURVE",
"417 229 CURVE SMOOTH",
"417 317 OFFCURVE",
"399 413 OFFCURVE",
"311 413 CURVE SMOOTH",
"238 413 OFFCURVE",
"205 362 OFFCURVE",
"165 301 CURVE",
"156 361 LINE",
"196 429 OFFCURVE",
"242 488 OFFCURVE",
"322 488 CURVE SMOOTH",
"452 488 OFFCURVE",
"499 362 OFFCURVE",
"499 232 CURVE SMOOTH",
"499 90 OFFCURVE",
"414 -6 OFFCURVE",
"273 -6 CURVE SMOOTH",
"215 -6 OFFCURVE",
"158 3 OFFCURVE",
"101 13 CURVE"
);
}
);
width = 600;
}
);
unicode = 0070;
userData = {
com.typemytype.robofont.layerData = {
background = {
anchors = (
);
components = (
);
contours = (
);
lib = {
};
name = p;
unicodes = (
);
width = 550;
};
};
com.typemytype.robofont.mark = (
0.3696,
0.6727,
1,
1
);
};
},
{
color = (94,172,255,1);
glyphname = q;
layers = (
{
layerId = "1D181ACA-DA77-4A70-94E7-537F1008817F";
name = Regular;
paths = (
{
closed = 1;
nodes = (
"416 470 LINE",
"416 -198 LINE",
"499 -198 LINE",
"499 470 LINE"
);
},
{
closed = 1;
nodes = (
"499 398 CURVE",
"499 470 LINE",
"442 482 OFFCURVE",
"385 488 OFFCURVE",
"327 488 CURVE SMOOTH",
"186 488 OFFCURVE",
"101 392 OFFCURVE",
"101 250 CURVE SMOOTH",
"101 120 OFFCURVE",
"148 -6 OFFCURVE",
"279 -6 CURVE SMOOTH",
"358 -6 OFFCURVE",
"400 56 OFFCURVE",
"444 121 CURVE",
"435 181 LINE",
"406 114 OFFCURVE",
"362 69 OFFCURVE",
"289 69 CURVE SMOOTH",
"201 69 OFFCURVE",
"183 165 OFFCURVE",
"183 253 CURVE SMOOTH",
"183 350 OFFCURVE",
"234 424 OFFCURVE",
"331 424 CURVE SMOOTH",
"388 424 OFFCURVE",
"443 411 OFFCURVE"
);
}
);
width = 600;
}
);
unicode = 0071;
userData = {
com.typemytype.robofont.layerData = {
background = {
anchors = (
);
components = (
);
contours = (
);
lib = {
};
name = q;
unicodes = (
);
width = 550;
};
};
com.typemytype.robofont.mark = (
0.3696,
0.6727,
1,
1
);
};
},
{
color = (94,172,255,1);
glyphname = r;
layers = (
{
layerId = "1D181ACA-DA77-4A70-94E7-537F1008817F";
name = Regular;
paths = (
{
closed = 1;
nodes = (
"101 479 LINE",
"101 0 LINE",
"184 0 LINE",
"184 479 LINE"
);
},
{
closed = 1;
nodes = (
"497 300 LINE",
"500 407 OFFCURVE",
"431 486 OFFCURVE",
"324 488 CURVE SMOOTH",
"245 491 OFFCURVE",
"202 430 OFFCURVE",
"155 366 CURVE",
"163 305 LINE",
"200 370 OFFCURVE",
"247 415 OFFCURVE",
"322 413 CURVE SMOOTH",
"383 412 OFFCURVE",
"414 362 OFFCURVE",
"413 300 CURVE"
);
}
);
width = 600;
}
);
unicode = 0072;
userData = {
com.typemytype.robofont.layerData = {
background = {
anchors = (
);
components = (
);
contours = (
);
lib = {
};
name = r;
unicodes = (
);
width = 549;
};
};
com.typemytype.robofont.mark = (
0.3696,
0.6727,
1,
1
);
};
},
{
color = (94,172,255,1);
glyphname = s;
layers = (
{
layerId = "1D181ACA-DA77-4A70-94E7-537F1008817F";
name = Regular;
paths = (
{
closed = 1;
nodes = (
"473 453 CURVE",
"473 377 LINE",
"418 398 OFFCURVE",
"362 413 OFFCURVE",
"303 413 CURVE SMOOTH",
"248 413 OFFCURVE",
"186 410 OFFCURVE",
"186 355 CURVE SMOOTH",
"186 298 OFFCURVE",
"243 288 OFFCURVE",
"300 288 CURVE SMOOTH",
"406 288 OFFCURVE",
"498 248 OFFCURVE",
"498 142 CURVE SMOOTH",
"498 30 OFFCURVE",
"393 -6 OFFCURVE",
"281 -6 CURVE SMOOTH",
"220 -6 OFFCURVE",
"159 2 OFFCURVE",
"101 25 CURVE",
"101 105 LINE",
"160 83 OFFCURVE",
"221 68 OFFCURVE",
"283 68 CURVE SMOOTH",
"346 68 OFFCURVE",
"416 74 OFFCURVE",
"416 137 CURVE SMOOTH",
"416 203 OFFCURVE",
"343 206 OFFCURVE",
"278 206 CURVE SMOOTH",
"181 206 OFFCURVE",
"103 250 OFFCURVE",
"103 347 CURVE SMOOTH",
"103 446 OFFCURVE",
"194 488 OFFCURVE",
"293 488 CURVE SMOOTH",
"356 488 OFFCURVE",
"414 471 OFFCURVE"
);
}
);
width = 600;
}
);
unicode = 0073;
userData = {
com.typemytype.robofont.layerData = {
background = {
anchors = (
);
components = (
);
contours = (
);
lib = {
};
name = s;
unicodes = (
);
width = 550;
};
};
com.typemytype.robofont.mark = (
0.3696,
0.6727,
1,
1
);
};
},
{
glyphname = scaron;
layers = (
{
components = (
{
name = s;
transform = "{1, 0, 0, 1, 0, 0}";
}
);
layerId = "1D181ACA-DA77-4A70-94E7-537F1008817F";
name = Regular;
paths = (
{
closed = 1;
nodes = (
"398 675 LINE",
"308 573 LINE",
"228 573 LINE",
"144 675 LINE",
"229 675 LINE",
"270 626 LINE",
"311 675 LINE"
);
}
);
width = 600;
}
);
unicode = 0161;
userData = {
com.typemytype.robofont.layerData = {
background = {
anchors = (
);
components = (
);
contours = (
);
lib = {
};
name = scaron;
unicodes = (
);
width = 550;
};
};
};
},
{
color = (94,172,255,1);
glyphname = t;
layers = (
{
layerId = "1D181ACA-DA77-4A70-94E7-537F1008817F";
name = Regular;
paths = (
{
closed = 1;
nodes = (
"499 79 LINE",
"460 71 OFFCURVE",
"443 69 OFFCURVE",
"418 69 CURVE SMOOTH",
"327 69 OFFCURVE",
"302 104 OFFCURVE",
"302 225 CURVE SMOOTH",
"302 675 LINE",
"220 675 LINE",
"220 675 OFFCURVE",
"220 302 OFFCURVE",
"220 225 CURVE SMOOTH",
"220 44 OFFCURVE",
"260 -6 OFFCURVE",
"407 -6 CURVE SMOOTH",
"443 -6 OFFCURVE",
"462 -4 OFFCURVE",
"499 3 CURVE"
);
},
{
closed = 1;
nodes = (
"499 411 LINE",
"499 479 LINE",
"101 479 LINE",
"101 411 LINE"
);
}
);
width = 600;
}
);
unicode = 0074;
userData = {
com.typemytype.robofont.layerData = {
background = {
anchors = (
);
components = (
);
contours = (
);
lib = {
};
name = t;
unicodes = (
);
width = 550;
};
};
com.typemytype.robofont.mark = (
0.3696,
0.6727,
1,
1
);
};
},
{
color = (94,172,255,1);
glyphname = u;
layers = (
{
layerId = "1D181ACA-DA77-4A70-94E7-537F1008817F";
name = Regular;
paths = (
{
closed = 1;
nodes = (
"416 479 LINE",
"416 0 LINE",
"499 0 LINE",
"499 479 LINE"
);
},
{
closed = 1;
nodes = (
"101 250 LINE",
"101 120 OFFCURVE",
"148 -6 OFFCURVE",
"279 -6 CURVE SMOOTH",
"358 -6 OFFCURVE",
"400 56 OFFCURVE",
"444 121 CURVE",
"435 181 LINE",
"406 114 OFFCURVE",
"362 69 OFFCURVE",
"289 69 CURVE SMOOTH",
"201 69 OFFCURVE",
"183 165 OFFCURVE",
"183 253 CURVE SMOOTH",
"183 479 LINE",
"101 479 LINE"
);
}
);
width = 600;
}
);
unicode = 0075;
userData = {
com.typemytype.robofont.layerData = {
background = {
anchors = (
);
components = (
);
contours = (
);
lib = {
};
name = u;
unicodes = (
);
width = 550;
};
};
com.typemytype.robofont.mark = (
0.3696,
0.6727,
1,
1
);
};
},
{
glyphname = ugrave;
layers = (
{
components = (
{
name = u;
transform = "{1, 0, 0, 1, 9, 0}";
}
);
layerId = "1D181ACA-DA77-4A70-94E7-537F1008817F";
name = Regular;
paths = (
{
closed = 1;
nodes = (
"320 573 LINE",
"237 573 LINE",
"101 675 LINE",
"219 675 LINE"
);
}
);
width = 600;
}
);
unicode = 00F9;
userData = {
com.typemytype.robofont.layerData = {
background = {
anchors = (
);
components = (
);
contours = (
);
lib = {
};
name = ugrave;
unicodes = (
);
width = 550;
};
};
};
},
{
glyphname = uacute;
layers = (
{
components = (
{
name = u;
transform = "{1, 0, 0, 1, 0, 0}";
}
);
layerId = "1D181ACA-DA77-4A70-94E7-537F1008817F";
name = Regular;
paths = (
{
closed = 1;
nodes = (
"228 573 LINE",
"329 675 LINE",
"447 675 LINE",
"311 573 LINE"
);
}
);
width = 600;
}
);
unicode = 00FA;
userData = {
com.typemytype.robofont.layerData = {
background = {
anchors = (
);
components = (
);
contours = (
);
lib = {
};
name = uacute;
unicodes = (
);
width = 550;
};
};
};
},
{
glyphname = ucircumflex;
layers = (
{
components = (
{
name = u;
transform = "{1, 0, 0, 1, 0, 0}";
}
);
layerId = "1D181ACA-DA77-4A70-94E7-537F1008817F";
name = Regular;
paths = (
{
closed = 1;
nodes = (
"398 573 LINE",
"311 573 LINE",
"270 622 LINE",
"229 573 LINE",
"144 573 LINE",
"228 675 LINE",
"308 675 LINE"
);
}
);
width = 600;
}
);
unicode = 00FB;
userData = {
com.typemytype.robofont.layerData = {
background = {
anchors = (
);
components = (
);
contours = (
);
lib = {
};
name = ucircumflex;
unicodes = (
);
width = 550;
};
};
};
},
{
glyphname = udieresis;
layers = (
{
components = (
{
name = u;
transform = "{1, 0, 0, 1, 0, 0}";
}
);
layerId = "1D181ACA-DA77-4A70-94E7-537F1008817F";
name = Regular;
paths = (
{
closed = 1;
nodes = (
"218 621 CURVE SMOOTH",
"218 651 OFFCURVE",
"195 675 OFFCURVE",
"164 675 CURVE SMOOTH",
"135 675 OFFCURVE",
"112 651 OFFCURVE",
"112 621 CURVE SMOOTH",
"112 592 OFFCURVE",
"135 567 OFFCURVE",
"164 567 CURVE SMOOTH",
"195 567 OFFCURVE",
"218 592 OFFCURVE"
);
},
{
closed = 1;
nodes = (
"428 621 CURVE SMOOTH",
"428 651 OFFCURVE",
"404 675 OFFCURVE",
"374 675 CURVE SMOOTH",
"344 675 OFFCURVE",
"321 651 OFFCURVE",
"321 621 CURVE SMOOTH",
"321 592 OFFCURVE",
"344 567 OFFCURVE",
"374 567 CURVE SMOOTH",
"404 567 OFFCURVE",
"428 592 OFFCURVE"
);
}
);
width = 600;
}
);
unicode = 00FC;
userData = {
com.typemytype.robofont.layerData = {
background = {
anchors = (
);
components = (
);
contours = (
);
lib = {
};
name = udieresis;
unicodes = (
);
width = 550;
};
};
};
},
{
color = (94,172,255,1);
glyphname = v;
layers = (
{
layerId = "1D181ACA-DA77-4A70-94E7-537F1008817F";
name = Regular;
paths = (
{
closed = 1;
nodes = (
"460 479 LINE",
"301 88 LINE",
"310 88 LINE",
"153 479 LINE",
"64 479 LINE",
"257 0 LINE",
"343 0 LINE",
"536 479 LINE"
);
}
);
width = 600;
}
);
unicode = 0076;
userData = {
com.typemytype.robofont.layerData = {
background = {
anchors = (
);
components = (
);
contours = (
);
lib = {
};
name = v;
unicodes = (
);
width = 550;
};
};
com.typemytype.robofont.mark = (
0.3696,
0.6727,
1,
1
);
};
},
{
color = (94,172,255,1);
glyphname = w;
layers = (
{
layerId = "1D181ACA-DA77-4A70-94E7-537F1008817F";
name = Regular;
paths = (
{
closed = 1;
nodes = (
"497 479 LINE",
"411 87 LINE",
"428 87 LINE",
"336 316 LINE",
"260 316 LINE",
"183 82 LINE",
"191 82 LINE",
"104 479 LINE",
"29 479 LINE",
"142 0 LINE",
"210 0 LINE",
"210 0 LINE",
"298 230 LINE",
"389 0 LINE",
"389 0 LINE",
"458 0 LINE",
"570 479 LINE"
);
}
);
width = 600;
}
);
unicode = 0077;
userData = {
com.typemytype.robofont.layerData = {
background = {
anchors = (
);
components = (
);
contours = (
);
lib = {
};
name = w;
unicodes = (
);
width = 550;
};
};
com.typemytype.robofont.mark = (
0.3696,
0.6727,
1,
1
);
};
},
{
color = (94,172,255,1);
glyphname = x;
layers = (
{
layerId = "1D181ACA-DA77-4A70-94E7-537F1008817F";
name = Regular;
paths = (
{
closed = 1;
nodes = (
"546 479 LINE",
"447 479 LINE",
"290 279 LINE",
"290 279 OFFCURVE",
"310 279 OFFCURVE",
"310 279 CURVE",
"157 479 LINE",
"53 479 LINE",
"250 233 LINE",
"250 233 OFFCURVE",
"256 248 OFFCURVE",
"256 248 CURVE",
"58 0 LINE",
"157 0 LINE",
"305 194 LINE",
"305 194 OFFCURVE",
"289 194 OFFCURVE",
"289 194 CURVE",
"441 0 LINE",
"546 0 LINE",
"347 248 LINE",
"347 248 OFFCURVE",
"347 231 OFFCURVE",
"347 231 CURVE"
);
}
);
width = 600;
}
);
unicode = 0078;
userData = {
com.typemytype.robofont.layerData = {
background = {
anchors = (
);
components = (
);
contours = (
);
lib = {
};
name = x;
unicodes = (
);
width = 550;
};
};
com.typemytype.robofont.mark = (
0.3696,
0.6727,
1,
1
);
};
},
{
color = (94,172,255,1);
glyphname = y;
layers = (
{
layerId = "1D181ACA-DA77-4A70-94E7-537F1008817F";
name = Regular;
paths = (
{
closed = 1;
nodes = (
"453 479 LINE",
"299 105 LINE",
"147 479 LINE",
"64 479 LINE",
"257 1 LINE",
"256 0 LINE",
"256 0 OFFCURVE",
"197 -132 OFFCURVE",
"99 -132 CURVE",
"99 -206 LINE",
"276 -206 OFFCURVE",
"343 0 OFFCURVE",
"343 0 CURVE",
"536 479 LINE"
);
}
);
width = 600;
}
);
unicode = 0079;
userData = {
com.typemytype.robofont.layerData = {
background = {
anchors = (
);
components = (
);
contours = (
);
lib = {
};
name = y;
unicodes = (
);
width = 550;
};
};
com.typemytype.robofont.mark = (
0.3696,
0.6727,
1,
1
);
};
},
{
glyphname = yacute;
layers = (
{
components = (
{
name = y;
transform = "{1, 0, 0, 1, 0, 0}";
}
);
layerId = "1D181ACA-DA77-4A70-94E7-537F1008817F";
name = Regular;
paths = (
{
closed = 1;
nodes = (
"215 573 LINE",
"316 675 LINE",
"434 675 LINE",
"298 573 LINE"
);
}
);
width = 600;
}
);
unicode = 00FD;
userData = {
com.typemytype.robofont.layerData = {
background = {
anchors = (
);
components = (
);
contours = (
);
lib = {
};
name = yacute;
unicodes = (
);
width = 550;
};
};
};
},
{
glyphname = ydieresis;
layers = (
{
components = (
{
name = y;
transform = "{1, 0, 0, 1, 0, 0}";
}
);
layerId = "1D181ACA-DA77-4A70-94E7-537F1008817F";
name = Regular;
paths = (
{
closed = 1;
nodes = (
"205 621 CURVE SMOOTH",
"205 651 OFFCURVE",
"182 675 OFFCURVE",
"152 675 CURVE SMOOTH",
"122 675 OFFCURVE",
"99 651 OFFCURVE",
"99 621 CURVE SMOOTH",
"99 592 OFFCURVE",
"122 567 OFFCURVE",
"152 567 CURVE SMOOTH",
"182 567 OFFCURVE",
"205 592 OFFCURVE"
);
},
{
closed = 1;
nodes = (
"415 621 CURVE SMOOTH",
"415 651 OFFCURVE",
"391 675 OFFCURVE",
"361 675 CURVE SMOOTH",
"332 675 OFFCURVE",
"308 651 OFFCURVE",
"308 621 CURVE SMOOTH",
"308 592 OFFCURVE",
"332 567 OFFCURVE",
"361 567 CURVE SMOOTH",
"391 567 OFFCURVE",
"415 592 OFFCURVE"
);
}
);
width = 600;
}
);
unicode = 00FF;
userData = {
com.typemytype.robofont.layerData = {
background = {
anchors = (
);
components = (
);
contours = (
);
lib = {
};
name = ydieresis;
unicodes = (
);
width = 550;
};
};
};
},
{
color = (94,172,255,1);
glyphname = z;
layers = (
{
layerId = "1D181ACA-DA77-4A70-94E7-537F1008817F";
name = Regular;
paths = (
{
closed = 1;
nodes = (
"487 411 LINE",
"113 411 LINE",
"113 479 LINE",
"487 479 LINE"
);
},
{
closed = 1;
nodes = (
"499 0 LINE",
"101 0 LINE",
"101 68 LINE",
"499 68 LINE"
);
},
{
closed = 1;
nodes = (
"487 411 LINE",
"154 24 LINE",
"102 68 LINE",
"435 455 LINE"
);
}
);
width = 600;
}
);
unicode = 007A;
userData = {
com.typemytype.robofont.layerData = {
background = {
anchors = (
);
components = (
);
contours = (
);
lib = {
};
name = z;
unicodes = (
);
width = 550;
};
};
com.typemytype.robofont.mark = (
0.3696,
0.6727,
1,
1
);
};
},
{
glyphname = zcaron;
layers = (
{
components = (
{
name = z;
transform = "{1, 0, 0, 1, 0, 0}";
}
);
layerId = "1D181ACA-DA77-4A70-94E7-537F1008817F";
name = Regular;
paths = (
{
closed = 1;
nodes = (
"398 675 LINE",
"308 573 LINE",
"228 573 LINE",
"144 675 LINE",
"229 675 LINE",
"270 626 LINE",
"311 675 LINE"
);
}
);
width = 600;
}
);
unicode = 017E;
userData = {
com.typemytype.robofont.layerData = {
background = {
anchors = (
);
components = (
);
contours = (
);
lib = {
};
name = zcaron;
unicodes = (
);
width = 550;
};
};
};
},
{
glyphname = oe;
layers = (
{
layerId = "1D181ACA-DA77-4A70-94E7-537F1008817F";
name = Regular;
paths = (
{
closed = 1;
nodes = (
"175 429 CURVE SMOOTH",
"266 429 OFFCURVE",
"267 336 OFFCURVE",
"267 245 CURVE SMOOTH",
"267 151 OFFCURVE",
"269 54 OFFCURVE",
"175 54 CURVE SMOOTH",
"81 54 OFFCURVE",
"80 151 OFFCURVE",
"80 245 CURVE SMOOTH",
"80 336 OFFCURVE",
"84 429 OFFCURVE"
);
},
{
closed = 1;
nodes = (
"173 488 CURVE SMOOTH",
"50 488 OFFCURVE",
"25 368 OFFCURVE",
"25 245 CURVE SMOOTH",
"25 118 OFFCURVE",
"47 -6 OFFCURVE",
"173 -6 CURVE SMOOTH",
"299 -6 OFFCURVE",
"321 118 OFFCURVE",
"321 245 CURVE SMOOTH",
"321 368 OFFCURVE",
"296 488 OFFCURVE"
);
},
{
closed = 1;
nodes = (
"431 428 CURVE SMOOTH",
"505 428 OFFCURVE",
"517 350 OFFCURVE",
"517 276 CURVE",
"337 276 LINE",
"337 351 OFFCURVE",
"356 428 OFFCURVE"
);
},
{
closed = 1;
nodes = (
"431 488 CURVE SMOOTH",
"304 488 OFFCURVE",
"267 367 OFFCURVE",
"267 240 CURVE SMOOTH",
"267 111 OFFCURVE",
"322 -6 OFFCURVE",
"451 -6 CURVE SMOOTH",
"481 -6 OFFCURVE",
"510 -3 OFFCURVE",
"540 5 CURVE",
"540 72 LINE",
"510 66 OFFCURVE",
"481 55 OFFCURVE",
"451 55 CURVE SMOOTH",
"367 55 OFFCURVE",
"336 138 OFFCURVE",
"336 222 CURVE",
"575 222 LINE",
"575 357 OFFCURVE",
"566 488 OFFCURVE"
);
}
);
width = 600;
}
);
unicode = 0153;
userData = {
com.typemytype.robofont.layerData = {
background = {
anchors = (
);
components = (
);
contours = (
);
lib = {
};
name = oe;
unicodes = (
);
width = 550;
};
};
};
},
{
glyphname = circumflex;
layers = (
{
layerId = "1D181ACA-DA77-4A70-94E7-537F1008817F";
name = Regular;
paths = (
{
closed = 1;
nodes = (
"462 537 LINE",
"375 537 LINE",
"298 622 LINE",
"222 537 LINE",
"137 537 LINE",
"256 675 LINE",
"336 675 LINE"
);
}
);
width = 600;
}
);
unicode = 02C6;
userData = {
com.typemytype.robofont.layerData = {
background = {
anchors = (
);
components = (
);
contours = (
);
lib = {
};
name = circumflex;
unicodes = (
);
width = 550;
};
};
};
},
{
glyphname = caron;
layers = (
{
layerId = "1D181ACA-DA77-4A70-94E7-537F1008817F";
name = Regular;
paths = (
{
closed = 1;
nodes = (
"462 675 LINE",
"375 675 LINE",
"298 590 LINE",
"222 675 LINE",
"137 675 LINE",
"256 537 LINE",
"336 537 LINE"
);
}
);
width = 600;
}
);
unicode = 02C7;
userData = {
com.typemytype.robofont.layerData = {
background = {
anchors = (
);
components = (
);
contours = (
);
lib = {
};
name = caron;
unicodes = (
);
width = 550;
};
};
};
},
{
glyphname = uni02C9;
lastChange = "2015-01-29 05:01:09 +0000";
layers = (
{
layerId = "1D181ACA-DA77-4A70-94E7-537F1008817F";
name = Regular;
paths = (
{
closed = 1;
nodes = (
"446 573 LINE",
"153 573 LINE",
"153 632 LINE",
"446 632 LINE"
);
}
);
width = 600;
}
);
unicode = 02C9;
userData = {
com.typemytype.robofont.layerData = {
};
};
},
{
glyphname = zero;
layers = (
{
layerId = "1D181ACA-DA77-4A70-94E7-537F1008817F";
name = Regular;
paths = (
{
closed = 1;
nodes = (
"299 63 CURVE SMOOTH",
"204 63 OFFCURVE",
"161 140 OFFCURVE",
"161 312 CURVE SMOOTH",
"161 485 OFFCURVE",
"204 563 OFFCURVE",
"299 563 CURVE SMOOTH",
"394 563 OFFCURVE",
"437 485 OFFCURVE",
"437 312 CURVE SMOOTH",
"437 140 OFFCURVE",
"394 63 OFFCURVE"
);
},
{
closed = 1;
nodes = (
"112 176 LINE",
"161 127 LINE",
"485 450 LINE",
"436 499 LINE"
);
},
{
closed = 1;
nodes = (
"299 632 CURVE SMOOTH",
"146 632 OFFCURVE",
"78 533 OFFCURVE",
"78 312 CURVE SMOOTH",
"78 93 OFFCURVE",
"146 -6 OFFCURVE",
"299 -6 CURVE SMOOTH",
"453 -6 OFFCURVE",
"521 93 OFFCURVE",
"521 312 CURVE SMOOTH",
"521 533 OFFCURVE",
"453 632 OFFCURVE"
);
}
);
width = 600;
}
);
unicode = 0030;
userData = {
com.typemytype.robofont.layerData = {
background = {
anchors = (
);
components = (
);
contours = (
);
lib = {
};
name = zero;
unicodes = (
);
width = 550;
};
};
};
},
{
glyphname = one;
layers = (
{
layerId = "1D181ACA-DA77-4A70-94E7-537F1008817F";
name = Regular;
paths = (
{
closed = 1;
nodes = (
"347 69 LINE",
"347 626 LINE",
"252 626 LINE",
"142 599 LINE",
"142 529 LINE",
"252 543 LINE",
"252 69 LINE",
"101 69 LINE",
"101 0 LINE",
"499 0 LINE",
"499 69 LINE"
);
}
);
width = 600;
}
);
unicode = 0031;
userData = {
com.typemytype.robofont.layerData = {
background = {
anchors = (
);
components = (
);
contours = (
);
lib = {
};
name = one;
unicodes = (
);
width = 550;
};
};
};
},
{
glyphname = two;
layers = (
{
layerId = "1D181ACA-DA77-4A70-94E7-537F1008817F";
name = Regular;
paths = (
{
closed = 1;
nodes = (
"392 455 CURVE SMOOTH",
"392 518 OFFCURVE",
"351 553 OFFCURVE",
"274 553 CURVE SMOOTH",
"181 553 OFFCURVE",
"80 479 OFFCURVE",
"80 479 CURVE",
"80 566 LINE",
"80 566 OFFCURVE",
"170 632 OFFCURVE",
"282 632 CURVE SMOOTH",
"411 632 OFFCURVE",
"479 571 OFFCURVE",
"479 457 CURVE SMOOTH",
"479 365 OFFCURVE",
"416 304 OFFCURVE",
"416 304 CURVE",
"201 80 LINE",
"519 80 LINE",
"519 0 LINE",
"81 0 LINE",
"81 69 LINE",
"358 357 LINE",
"358 357 OFFCURVE",
"392 390 OFFCURVE"
);
}
);
width = 600;
}
);
unicode = 0032;
userData = {
com.typemytype.robofont.layerData = {
background = {
anchors = (
);
components = (
);
contours = (
);
lib = {
};
name = two;
unicodes = (
);
width = 550;
};
};
};
},
{
glyphname = three;
layers = (
{
layerId = "1D181ACA-DA77-4A70-94E7-537F1008817F";
name = Regular;
paths = (
{
closed = 1;
nodes = (
"107 91 CURVE",
"107 8 LINE",
"107 8 OFFCURVE",
"164 -6 OFFCURVE",
"270 -6 CURVE SMOOTH",
"415 -6 OFFCURVE",
"493 57 OFFCURVE",
"493 173 CURVE SMOOTH",
"493 275 OFFCURVE",
"446 329 OFFCURVE",
"359 329 CURVE",
"427 329 OFFCURVE",
"463 377 OFFCURVE",
"463 466 CURVE SMOOTH",
"463 574 OFFCURVE",
"396 632 OFFCURVE",
"270 632 CURVE SMOOTH",
"148 632 OFFCURVE",
"107 612 OFFCURVE",
"107 612 CURVE",
"107 544 LINE",
"107 544 OFFCURVE",
"162 566 OFFCURVE",
"254 566 CURVE SMOOTH",
"339 566 OFFCURVE",
"385 533 OFFCURVE",
"385 472 CURVE SMOOTH",
"385 399 OFFCURVE",
"350 361 OFFCURVE",
"283 361 CURVE SMOOTH",
"204 361 LINE",
"204 287 LINE",
"289 287 LINE SMOOTH",
"366 287 OFFCURVE",
"407 247 OFFCURVE",
"407 170 CURVE SMOOTH",
"407 101 OFFCURVE",
"360 74 OFFCURVE",
"272 74 CURVE SMOOTH",
"173 74 OFFCURVE",
"107 91 OFFCURVE"
);
}
);
width = 600;
}
);
unicode = 0033;
userData = {
com.typemytype.robofont.layerData = {
background = {
anchors = (
);
components = (
);
contours = (
);
lib = {
};
name = three;
unicodes = (
);
width = 550;
};
};
};
},
{
glyphname = four;
layers = (
{
layerId = "1D181ACA-DA77-4A70-94E7-537F1008817F";
name = Regular;
paths = (
{
closed = 1;
nodes = (
"536 219 LINE",
"408 219 LINE",
"408 626 LINE",
"325 626 LINE",
"63 219 LINE",
"63 150 LINE",
"325 150 LINE",
"325 0 LINE",
"408 0 LINE",
"408 150 LINE",
"536 150 LINE"
);
},
{
closed = 1;
nodes = (
"148 219 LINE",
"325 494 LINE",
"325 219 LINE"
);
}
);
width = 600;
}
);
unicode = 0034;
userData = {
com.typemytype.robofont.layerData = {
background = {
anchors = (
);
components = (
);
contours = (
);
lib = {
};
name = four;
unicodes = (
);
width = 550;
};
};
};
},
{
glyphname = five;
layers = (
{
layerId = "1D181ACA-DA77-4A70-94E7-537F1008817F";
name = Regular;
paths = (
{
closed = 1;
nodes = (
"136 296 LINE",
"136 625 LINE",
"477 626 LINE",
"477 557 LINE",
"213 557 LINE",
"213 363 LINE",
"323 363 LINE SMOOTH",
"447 363 OFFCURVE",
"512 301 OFFCURVE",
"512 187 CURVE SMOOTH",
"512 62 OFFCURVE",
"425 -6 OFFCURVE",
"263 -6 CURVE SMOOTH",
"166 -6 OFFCURVE",
"87 23 OFFCURVE",
"87 23 CURVE",
"87 99 LINE",
"87 99 OFFCURVE",
"158 67 OFFCURVE",
"242 67 CURVE SMOOTH",
"361 67 OFFCURVE",
"424 107 OFFCURVE",
"424 182 CURVE SMOOTH",
"424 256 OFFCURVE",
"375 296 OFFCURVE",
"282 296 CURVE SMOOTH"
);
}
);
width = 600;
}
);
unicode = 0035;
userData = {
com.typemytype.robofont.layerData = {
background = {
anchors = (
);
components = (
);
contours = (
);
lib = {
};
name = five;
unicodes = (
);
width = 550;
};
};
};
},
{
glyphname = six;
layers = (
{
layerId = "1D181ACA-DA77-4A70-94E7-537F1008817F";
name = Regular;
paths = (
{
closed = 1;
nodes = (
"340 562 CURVE SMOOTH",
"410 562 OFFCURVE",
"478 526 OFFCURVE",
"478 526 CURVE",
"479 601 LINE",
"479 601 OFFCURVE",
"426 632 OFFCURVE",
"345 632 CURVE SMOOTH",
"176 632 OFFCURVE",
"86 522 OFFCURVE",
"86 316 CURVE SMOOTH",
"86 106 OFFCURVE",
"162 -6 OFFCURVE",
"304 -6 CURVE SMOOTH",
"441 -6 OFFCURVE",
"514 63 OFFCURVE",
"514 190 CURVE SMOOTH",
"514 316 OFFCURVE",
"451 383 OFFCURVE",
"331 383 CURVE SMOOTH",
"231 383 OFFCURVE",
"162 334 OFFCURVE",
"162 334 CURVE",
"162 260 LINE",
"162 260 OFFCURVE",
"206 321 OFFCURVE",
"309 321 CURVE SMOOTH",
"390 321 OFFCURVE",
"434 275 OFFCURVE",
"434 189 CURVE SMOOTH",
"434 108 OFFCURVE",
"390 64 OFFCURVE",
"309 64 CURVE SMOOTH",
"219 64 OFFCURVE",
"171 147 OFFCURVE",
"171 303 CURVE SMOOTH",
"171 472 OFFCURVE",
"230 562 OFFCURVE"
);
}
);
width = 600;
}
);
unicode = 0036;
userData = {
com.typemytype.robofont.layerData = {
background = {
anchors = (
);
components = (
);
contours = (
);
lib = {
};
name = six;
unicodes = (
);
width = 550;
};
};
};
},
{
glyphname = seven;
layers = (
{
layerId = "1D181ACA-DA77-4A70-94E7-537F1008817F";
name = Regular;
paths = (
{
closed = 1;
nodes = (
"511 538 LINE SMOOTH",
"511 626 LINE",
"89 626 LINE",
"89 539 LINE",
"416 539 LINE",
"154 0 LINE",
"260 0 LINE"
);
}
);
width = 600;
}
);
unicode = 0037;
userData = {
com.typemytype.robofont.layerData = {
background = {
anchors = (
);
components = (
);
contours = (
);
lib = {
};
name = seven;
unicodes = (
);
width = 550;
};
};
};
},
{
glyphname = eight;
layers = (
{
layerId = "1D181ACA-DA77-4A70-94E7-537F1008817F";
name = Regular;
paths = (
{
closed = 1;
nodes = (
"300 632 CURVE SMOOTH",
"434 632 OFFCURVE",
"505 569 OFFCURVE",
"505 452 CURVE SMOOTH",
"505 345 OFFCURVE",
"389 284 OFFCURVE",
"389 284 CURVE",
"362 298 LINE",
"306 319 LINE",
"306 319 OFFCURVE",
"415 363 OFFCURVE",
"415 452 CURVE SMOOTH",
"415 522 OFFCURVE",
"375 561 OFFCURVE",
"300 561 CURVE SMOOTH",
"225 561 OFFCURVE",
"185 525 OFFCURVE",
"185 459 CURVE SMOOTH",
"185 282 OFFCURVE",
"518 403 OFFCURVE",
"518 179 CURVE SMOOTH",
"518 59 OFFCURVE",
"446 -6 OFFCURVE",
"309 -6 CURVE SMOOTH",
"161 -6 OFFCURVE",
"82 60 OFFCURVE",
"82 182 CURVE SMOOTH",
"82 310 OFFCURVE",
"239 336 OFFCURVE",
"239 336 CURVE",
"268 326 LINE",
"311 306 LINE",
"311 306 OFFCURVE",
"164 273 OFFCURVE",
"164 184 CURVE SMOOTH",
"164 107 OFFCURVE",
"214 66 OFFCURVE",
"309 66 CURVE SMOOTH",
"392 66 OFFCURVE",
"436 104 OFFCURVE",
"436 176 CURVE SMOOTH",
"436 368 OFFCURVE",
"96 223 OFFCURVE",
"96 457 CURVE SMOOTH",
"96 571 OFFCURVE",
"167 632 OFFCURVE"
);
}
);
width = 600;
}
);
unicode = 0038;
userData = {
com.typemytype.robofont.layerData = {
background = {
anchors = (
);
components = (
);
contours = (
);
lib = {
};
name = eight;
unicodes = (
);
width = 550;
};
};
};
},
{
glyphname = nine;
layers = (
{
layerId = "1D181ACA-DA77-4A70-94E7-537F1008817F";
name = Regular;
paths = (
{
closed = 1;
nodes = (
"261 65 CURVE SMOOTH",
"191 65 OFFCURVE",
"123 100 OFFCURVE",
"123 100 CURVE",
"122 25 LINE",
"122 25 OFFCURVE",
"175 -6 OFFCURVE",
"256 -6 CURVE SMOOTH",
"431 -6 OFFCURVE",
"513 96 OFFCURVE",
"513 310 CURVE SMOOTH",
"513 528 OFFCURVE",
"444 632 OFFCURVE",
"297 632 CURVE SMOOTH",
"154 632 OFFCURVE",
"87 569 OFFCURVE",
"87 436 CURVE SMOOTH",
"87 305 OFFCURVE",
"145 243 OFFCURVE",
"270 243 CURVE SMOOTH",
"370 243 OFFCURVE",
"439 293 OFFCURVE",
"439 293 CURVE",
"443 364 LINE",
"443 364 OFFCURVE",
"395 305 OFFCURVE",
"292 305 CURVE SMOOTH",
"207 305 OFFCURVE",
"167 347 OFFCURVE",
"167 437 CURVE SMOOTH",
"167 522 OFFCURVE",
"207 563 OFFCURVE",
"292 563 CURVE SMOOTH",
"386 563 OFFCURVE",
"430 485 OFFCURVE",
"430 323 CURVE SMOOTH",
"430 148 OFFCURVE",
"376 65 OFFCURVE"
);
}
);
width = 600;
}
);
unicode = 0039;
userData = {
com.typemytype.robofont.layerData = {
background = {
anchors = (
);
components = (
);
contours = (
);
lib = {
};
name = nine;
unicodes = (
);
width = 550;
};
};
};
},
{
glyphname = onequarter;
layers = (
{
layerId = "1D181ACA-DA77-4A70-94E7-537F1008817F";
name = Regular;
paths = (
{
closed = 1;
nodes = (
"196 320 LINE",
"196 561 LINE",
"155 561 LINE",
"107 550 LINE",
"107 518 LINE",
"155 525 LINE",
"155 320 LINE",
"91 320 LINE",
"91 291 LINE",
"263 291 LINE",
"263 320 LINE"
);
},
{
closed = 1;
nodes = (
"509 23 LINE",
"454 23 LINE",
"454 199 LINE",
"418 199 LINE",
"305 23 LINE",
"305 -7 LINE",
"418 -7 LINE",
"418 -71 LINE",
"454 -71 LINE",
"454 -7 LINE",
"509 -7 LINE"
);
},
{
closed = 1;
nodes = (
"341 23 LINE",
"418 143 LINE",
"418 23 LINE"
);
},
{
closed = 1;
nodes = (
"175 70 LINE",
"482 380 LINE",
"451 411 LINE",
"143 103 LINE"
);
}
);
width = 600;
}
);
unicode = 00BC;
userData = {
com.typemytype.robofont.layerData = {
background = {
anchors = (
);
components = (
);
contours = (
);
lib = {
};
name = onequarter;
unicodes = (
);
width = 550;
};
};
};
},
{
glyphname = onehalf;
layers = (
{
layerId = "1D181ACA-DA77-4A70-94E7-537F1008817F";
name = Regular;
paths = (
{
closed = 1;
nodes = (
"175 320 LINE",
"175 561 LINE",
"133 561 LINE",
"85 550 LINE",
"85 518 LINE",
"133 525 LINE",
"133 320 LINE",
"69 320 LINE",
"69 291 LINE",
"240 291 LINE",
"240 320 LINE"
);
},
{
closed = 1;
nodes = (
"152 71 LINE",
"459 380 LINE",
"428 412 LINE",
"120 103 LINE"
);
},
{
closed = 1;
nodes = (
"476 124 CURVE SMOOTH",
"476 150 OFFCURVE",
"457 166 OFFCURVE",
"425 166 CURVE SMOOTH",
"384 166 OFFCURVE",
"341 133 OFFCURVE",
"341 133 CURVE",
"341 171 LINE",
"341 171 OFFCURVE",
"380 199 OFFCURVE",
"428 199 CURVE SMOOTH",
"484 199 OFFCURVE",
"513 173 OFFCURVE",
"513 124 CURVE SMOOTH",
"513 84 OFFCURVE",
"486 57 OFFCURVE",
"486 57 CURVE",
"393 -38 LINE",
"531 -38 LINE",
"531 -73 LINE",
"341 -73 LINE",
"341 -44 LINE",
"460 81 LINE",
"460 81 OFFCURVE",
"476 96 OFFCURVE"
);
}
);
width = 600;
}
);
unicode = 00BD;
userData = {
com.typemytype.robofont.layerData = {
background = {
anchors = (
);
components = (
);
contours = (
);
lib = {
};
name = onehalf;
unicodes = (
);
width = 550;
};
};
};
},
{
glyphname = threequarters;
layers = (
{
layerId = "1D181ACA-DA77-4A70-94E7-537F1008817F";
name = Regular;
paths = (
{
closed = 1;
nodes = (
"89 306 CURVE",
"89 270 LINE",
"89 270 OFFCURVE",
"113 264 OFFCURVE",
"159 264 CURVE SMOOTH",
"222 264 OFFCURVE",
"256 291 OFFCURVE",
"256 341 CURVE SMOOTH",
"256 386 OFFCURVE",
"236 410 OFFCURVE",
"198 410 CURVE",
"228 410 OFFCURVE",
"242 430 OFFCURVE",
"242 469 CURVE SMOOTH",
"242 516 OFFCURVE",
"213 541 OFFCURVE",
"159 541 CURVE SMOOTH",
"107 541 OFFCURVE",
"89 531 OFFCURVE",
"89 531 CURVE",
"89 502 LINE",
"89 502 OFFCURVE",
"113 513 OFFCURVE",
"152 513 CURVE SMOOTH",
"189 513 OFFCURVE",
"209 499 OFFCURVE",
"209 472 CURVE SMOOTH",
"209 439 OFFCURVE",
"194 424 OFFCURVE",
"165 424 CURVE SMOOTH",
"131 424 LINE",
"131 390 LINE",
"168 390 LINE SMOOTH",
"200 390 OFFCURVE",
"219 375 OFFCURVE",
"219 340 CURVE SMOOTH",
"219 311 OFFCURVE",
"198 299 OFFCURVE",
"159 299 CURVE SMOOTH",
"117 299 OFFCURVE",
"89 306 OFFCURVE"
);
},
{
closed = 1;
nodes = (
"176 72 LINE",
"483 382 LINE",
"452 413 LINE",
"145 105 LINE"
);
},
{
closed = 1;
nodes = (
"510 24 LINE",
"456 24 LINE",
"456 201 LINE",
"419 201 LINE",
"306 24 LINE",
"306 -5 LINE",
"419 -5 LINE",
"419 -69 LINE",
"456 -69 LINE",
"456 -5 LINE",
"510 -5 LINE"
);
},
{
closed = 1;
nodes = (
"342 24 LINE",
"419 144 LINE",
"419 24 LINE"
);
}
);
width = 600;
}
);
unicode = 00BE;
userData = {
com.typemytype.robofont.layerData = {
background = {
anchors = (
);
components = (
);
contours = (
);
lib = {
};
name = threequarters;
unicodes = (
);
width = 550;
};
};
};
},
{
glyphname = underscore;
lastChange = "2015-01-29 04:59:42 +0000";
layers = (
{
layerId = "1D181ACA-DA77-4A70-94E7-537F1008817F";
name = Regular;
paths = (
{
closed = 1;
nodes = (
"567 -198 LINE",
"32 -198 LINE",
"32 -139 LINE",
"567 -139 LINE"
);
}
);
width = 600;
}
);
unicode = 005F;
userData = {
com.typemytype.robofont.layerData = {
background = {
anchors = (
);
components = (
);
contours = (
);
lib = {
};
name = underscore;
unicodes = (
);
width = 550;
};
};
};
},
{
glyphname = hyphen;
lastChange = "2015-01-29 04:55:30 +0000";
layers = (
{
layerId = "1D181ACA-DA77-4A70-94E7-537F1008817F";
name = Regular;
paths = (
{
closed = 1;
nodes = (
"471 196 LINE",
"129 196 LINE",
"129 255 LINE",
"471 255 LINE"
);
}
);
width = 600;
}
);
unicode = 002D;
userData = {
com.typemytype.robofont.layerData = {
background = {
anchors = (
);
components = (
);
contours = (
);
lib = {
};
name = hyphen;
unicodes = (
);
width = 550;
};
};
};
},
{
glyphname = endash;
lastChange = "2015-01-29 04:55:37 +0000";
layers = (
{
layerId = "1D181ACA-DA77-4A70-94E7-537F1008817F";
name = Regular;
paths = (
{
closed = 1;
nodes = (
"446 196 LINE",
"153 196 LINE",
"153 255 LINE",
"446 255 LINE"
);
}
);
width = 600;
}
);
unicode = 2013;
userData = {
com.typemytype.robofont.layerData = {
background = {
anchors = (
);
components = (
);
contours = (
);
lib = {
};
name = endash;
unicodes = (
);
width = 550;
};
};
};
},
{
glyphname = emdash;
lastChange = "2015-01-29 04:56:21 +0000";
layers = (
{
layerId = "1D181ACA-DA77-4A70-94E7-537F1008817F";
name = Regular;
paths = (
{
closed = 1;
nodes = (
"519 196 LINE",
"80 196 LINE",
"80 255 LINE",
"519 255 LINE"
);
}
);
width = 600;
}
);
unicode = 2014;
userData = {
com.typemytype.robofont.layerData = {
background = {
anchors = (
);
components = (
);
contours = (
);
lib = {
};
name = emdash;
unicodes = (
);
width = 550;
};
};
};
},
{
glyphname = parenleft;
lastChange = "2015-01-29 04:56:54 +0000";
layers = (
{
layerId = "1D181ACA-DA77-4A70-94E7-537F1008817F";
name = Regular;
paths = (
{
closed = 1;
nodes = (
"412 616 LINE",
"412 616 OFFCURVE",
"277 484 OFFCURVE",
"277 239 CURVE SMOOTH",
"277 -6 OFFCURVE",
"411 -148 OFFCURVE",
"401 -158 CURVE",
"358 -198 LINE",
"358 -198 OFFCURVE",
"197 -10 OFFCURVE",
"197 239 CURVE SMOOTH",
"197 488 OFFCURVE",
"358 675 OFFCURVE",
"358 675 CURVE"
);
}
);
width = 600;
}
);
unicode = 0028;
userData = {
com.typemytype.robofont.layerData = {
background = {
anchors = (
);
components = (
);
contours = (
);
lib = {
};
name = parenleft;
unicodes = (
);
width = 550;
};
};
};
},
{
glyphname = bracketleft;
lastChange = "2015-01-29 04:59:15 +0000";
layers = (
{
layerId = "1D181ACA-DA77-4A70-94E7-537F1008817F";
name = Regular;
paths = (
{
closed = 1;
nodes = (
"397 -198 LINE",
"397 -148 LINE",
"268 -148 LINE",
"268 636 LINE",
"397 636 LINE",
"397 675 LINE",
"203 675 LINE",
"203 -198 LINE"
);
}
);
width = 600;
}
);
unicode = 005B;
userData = {
com.typemytype.robofont.layerData = {
background = {
anchors = (
);
components = (
);
contours = (
);
lib = {
};
name = bracketleft;
unicodes = (
);
width = 550;
};
};
};
},
{
glyphname = braceleft;
layers = (
{
layerId = "1D181ACA-DA77-4A70-94E7-537F1008817F";
name = Regular;
paths = (
{
closed = 1;
nodes = (
"350 474 CURVE SMOOTH",
"350 572 OFFCURVE",
"369 610 OFFCURVE",
"487 610 CURVE",
"487 680 LINE",
"370 680 OFFCURVE",
"270 661 OFFCURVE",
"270 474 CURVE SMOOTH",
"270 297 OFFCURVE",
"252 279 OFFCURVE",
"113 279 CURVE",
"113 279 OFFCURVE",
"113 212 OFFCURVE",
"113 212 CURVE",
"252 203 OFFCURVE",
"270 184 OFFCURVE",
"270 7 CURVE SMOOTH",
"270 -180 OFFCURVE",
"370 -199 OFFCURVE",
"487 -199 CURVE",
"487 -129 LINE",
"369 -129 OFFCURVE",
"350 -91 OFFCURVE",
"350 7 CURVE SMOOTH",
"350 165 OFFCURVE",
"336 219 OFFCURVE",
"234 241 CURVE",
"336 265 OFFCURVE",
"350 336 OFFCURVE"
);
}
);
width = 600;
}
);
unicode = 007B;
userData = {
com.typemytype.robofont.layerData = {
background = {
anchors = (
);
components = (
);
contours = (
);
lib = {
};
name = braceleft;
unicodes = (
);
width = 550;
};
};
};
},
{
glyphname = quotesinglbase;
layers = (
{
layerId = "1D181ACA-DA77-4A70-94E7-537F1008817F";
name = Regular;
paths = (
{
closed = 1;
nodes = (
"365 284 LINE",
"234 284 LINE",
"267 0 LINE",
"335 0 LINE"
);
}
);
width = 600;
}
);
unicode = 201A;
userData = {
com.typemytype.robofont.layerData = {
background = {
anchors = (
);
components = (
);
contours = (
);
lib = {
};
name = quotesinglbase;
unicodes = (
);
width = 550;
};
};
};
},
{
glyphname = quotedblbase;
layers = (
{
layerId = "1D181ACA-DA77-4A70-94E7-537F1008817F";
name = Regular;
paths = (
{
closed = 1;
nodes = (
"471 284 LINE",
"373 284 LINE",
"373 0 LINE",
"442 0 LINE"
);
},
{
closed = 1;
nodes = (
"128 284 LINE",
"164 -1 LINE",
"227 -1 LINE",
"227 284 LINE"
);
}
);
width = 600;
}
);
unicode = 201E;
userData = {
com.typemytype.robofont.layerData = {
background = {
anchors = (
);
components = (
);
contours = (
);
lib = {
};
name = quotedblbase;
unicodes = (
);
width = 550;
};
};
};
},
{
glyphname = parenright;
lastChange = "2015-01-29 04:57:17 +0000";
layers = (
{
layerId = "1D181ACA-DA77-4A70-94E7-537F1008817F";
name = Regular;
paths = (
{
closed = 1;
nodes = (
"187 616 CURVE",
"241 675 LINE",
"241 675 OFFCURVE",
"402 488 OFFCURVE",
"402 239 CURVE SMOOTH",
"402 -10 OFFCURVE",
"241 -198 OFFCURVE",
"241 -198 CURVE",
"188 -148 LINE",
"188 -148 OFFCURVE",
"322 -6 OFFCURVE",
"322 239 CURVE SMOOTH",
"322 484 OFFCURVE",
"187 616 OFFCURVE"
);
}
);
width = 600;
}
);
unicode = 0029;
userData = {
com.typemytype.robofont.layerData = {
background = {
anchors = (
);
components = (
);
contours = (
);
lib = {
};
name = parenright;
unicodes = (
);
width = 550;
};
};
};
},
{
glyphname = bracketright;
lastChange = "2015-01-29 04:58:42 +0000";
layers = (
{
layerId = "1D181ACA-DA77-4A70-94E7-537F1008817F";
name = Regular;
paths = (
{
closed = 1;
nodes = (
"203 -198 LINE",
"203 -148 LINE",
"322 -148 LINE",
"322 636 LINE",
"203 636 LINE",
"203 675 LINE",
"397 675 LINE",
"397 -198 LINE"
);
}
);
width = 600;
}
);
unicode = 005D;
userData = {
com.typemytype.robofont.layerData = {
background = {
anchors = (
);
components = (
);
contours = (
);
lib = {
};
name = bracketright;
unicodes = (
);
width = 550;
};
};
};
},
{
glyphname = braceright;
layers = (
{
layerId = "1D181ACA-DA77-4A70-94E7-537F1008817F";
name = Regular;
paths = (
{
closed = 1;
nodes = (
"250 474 CURVE SMOOTH",
"250 336 OFFCURVE",
"264 265 OFFCURVE",
"366 241 CURVE",
"264 219 OFFCURVE",
"250 165 OFFCURVE",
"250 7 CURVE SMOOTH",
"250 -91 OFFCURVE",
"231 -129 OFFCURVE",
"113 -129 CURVE",
"113 -199 LINE",
"230 -199 OFFCURVE",
"330 -180 OFFCURVE",
"330 7 CURVE SMOOTH",
"330 184 OFFCURVE",
"348 203 OFFCURVE",
"487 212 CURVE",
"487 212 OFFCURVE",
"487 279 OFFCURVE",
"487 279 CURVE",
"348 279 OFFCURVE",
"330 297 OFFCURVE",
"330 474 CURVE SMOOTH",
"330 661 OFFCURVE",
"230 680 OFFCURVE",
"113 680 CURVE",
"113 610 LINE",
"231 610 OFFCURVE",
"250 572 OFFCURVE"
);
}
);
width = 600;
}
);
unicode = 007D;
userData = {
com.typemytype.robofont.layerData = {
background = {
anchors = (
);
components = (
);
contours = (
);
lib = {
};
name = braceright;
unicodes = (
);
width = 550;
};
};
};
},
{
glyphname = guillemotleft;
layers = (
{
layerId = "1D181ACA-DA77-4A70-94E7-537F1008817F";
name = Regular;
paths = (
{
closed = 1;
nodes = (
"300 405 LINE",
"300 318 LINE",
"215 241 LINE",
"300 164 LINE",
"300 80 LINE",
"161 199 LINE",
"161 279 LINE"
);
},
{
closed = 1;
nodes = (
"439 405 LINE",
"439 318 LINE",
"354 241 LINE",
"439 164 LINE",
"439 80 LINE",
"300 199 LINE",
"300 279 LINE"
);
}
);
width = 600;
}
);
unicode = 00AB;
userData = {
com.typemytype.robofont.layerData = {
background = {
anchors = (
);
components = (
);
contours = (
);
lib = {
};
name = guillemotleft;
unicodes = (
);
width = 550;
};
};
};
},
{
glyphname = quoteleft;
layers = (
{
layerId = "1D181ACA-DA77-4A70-94E7-537F1008817F";
name = Regular;
paths = (
{
closed = 1;
nodes = (
"251 675 LINE",
"287 390 LINE",
"349 390 LINE",
"349 675 LINE"
);
}
);
width = 600;
}
);
unicode = 2018;
userData = {
com.typemytype.robofont.layerData = {
background = {
anchors = (
);
components = (
);
contours = (
);
lib = {
};
name = quoteleft;
unicodes = (
);
width = 550;
};
};
};
},
{
glyphname = quotedblleft;
layers = (
{
layerId = "1D181ACA-DA77-4A70-94E7-537F1008817F";
name = Regular;
paths = (
{
closed = 1;
nodes = (
"373 675 LINE",
"403 391 LINE",
"471 391 LINE",
"471 675 LINE"
);
},
{
closed = 1;
nodes = (
"128 675 LINE",
"164 390 LINE",
"227 390 LINE",
"227 675 LINE"
);
}
);
width = 600;
}
);
unicode = 201C;
userData = {
com.typemytype.robofont.layerData = {
background = {
anchors = (
);
components = (
);
contours = (
);
lib = {
};
name = quotedblleft;
unicodes = (
);
width = 550;
};
};
};
},
{
glyphname = guilsinglleft;
layers = (
{
layerId = "1D181ACA-DA77-4A70-94E7-537F1008817F";
name = Regular;
paths = (
{
closed = 1;
nodes = (
"369 405 LINE",
"369 318 LINE",
"284 241 LINE",
"369 164 LINE",
"369 80 LINE",
"230 199 LINE",
"230 279 LINE"
);
}
);
width = 600;
}
);
unicode = 2039;
userData = {
com.typemytype.robofont.layerData = {
background = {
anchors = (
);
components = (
);
contours = (
);
lib = {
};
name = guilsinglleft;
unicodes = (
);
width = 550;
};
};
};
},
{
glyphname = guillemotright;
layers = (
{
layerId = "1D181ACA-DA77-4A70-94E7-537F1008817F";
name = Regular;
paths = (
{
closed = 1;
nodes = (
"300 405 LINE",
"439 279 LINE",
"439 199 LINE",
"300 80 LINE",
"300 164 LINE",
"385 241 LINE",
"300 318 LINE"
);
},
{
closed = 1;
nodes = (
"161 405 LINE",
"300 279 LINE",
"300 199 LINE",
"161 80 LINE",
"161 164 LINE",
"246 241 LINE",
"161 318 LINE"
);
}
);
width = 600;
}
);
unicode = 00BB;
userData = {
com.typemytype.robofont.layerData = {
background = {
anchors = (
);
components = (
);
contours = (
);
lib = {
};
name = guillemotright;
unicodes = (
);
width = 550;
};
};
};
},
{
glyphname = quoteright;
layers = (
{
layerId = "1D181ACA-DA77-4A70-94E7-537F1008817F";
name = Regular;
paths = (
{
closed = 1;
nodes = (
"349 675 LINE",
"250 675 LINE",
"250 390 LINE",
"312 390 LINE"
);
}
);
width = 600;
}
);
unicode = 2019;
userData = {
com.typemytype.robofont.layerData = {
background = {
anchors = (
);
components = (
);
contours = (
);
lib = {
};
name = quoteright;
unicodes = (
);
width = 550;
};
};
};
},
{
glyphname = quotedblright;
layers = (
{
layerId = "1D181ACA-DA77-4A70-94E7-537F1008817F";
name = Regular;
paths = (
{
closed = 1;
nodes = (
"226 675 LINE",
"128 675 LINE",
"128 391 LINE",
"196 391 LINE"
);
},
{
closed = 1;
nodes = (
"471 675 LINE",
"372 675 LINE",
"372 390 LINE",
"435 390 LINE"
);
}
);
width = 600;
}
);
unicode = 201D;
userData = {
com.typemytype.robofont.layerData = {
background = {
anchors = (
);
components = (
);
contours = (
);
lib = {
};
name = quotedblright;
unicodes = (
);
width = 550;
};
};
};
},
{
glyphname = guilsinglright;
layers = (
{
layerId = "1D181ACA-DA77-4A70-94E7-537F1008817F";
name = Regular;
paths = (
{
closed = 1;
nodes = (
"230 405 LINE",
"369 279 LINE",
"369 199 LINE",
"230 80 LINE",
"230 164 LINE",
"315 241 LINE",
"230 318 LINE"
);
}
);
width = 600;
}
);
unicode = 203A;
userData = {
com.typemytype.robofont.layerData = {
background = {
anchors = (
);
components = (
);
contours = (
);
lib = {
};
name = guilsinglright;
unicodes = (
);
width = 550;
};
};
};
},
{
glyphname = exclam;
layers = (
{
layerId = "1D181ACA-DA77-4A70-94E7-537F1008817F";
name = Regular;
paths = (
{
closed = 1;
nodes = (
"252 675 LINE",
"258 239 LINE",
"339 239 LINE",
"346 675 LINE"
);
},
{
closed = 1;
nodes = (
"348 97 LINE",
"255 97 LINE",
"255 0 LINE",
"348 0 LINE"
);
}
);
width = 600;
}
);
unicode = 0021;
userData = {
com.typemytype.robofont.layerData = {
background = {
anchors = (
);
components = (
);
contours = (
);
lib = {
};
name = exclam;
unicodes = (
);
width = 550;
};
};
};
},
{
glyphname = quotedbl;
layers = (
{
layerId = "1D181ACA-DA77-4A70-94E7-537F1008817F";
name = Regular;
paths = (
{
closed = 1;
nodes = (
"471 675 LINE",
"373 675 LINE",
"373 391 LINE",
"442 391 LINE"
);
},
{
closed = 1;
nodes = (
"128 675 LINE",
"164 390 LINE",
"227 390 LINE",
"227 675 LINE"
);
}
);
width = 600;
}
);
unicode = 0022;
userData = {
com.typemytype.robofont.layerData = {
background = {
anchors = (
);
components = (
);
contours = (
);
lib = {
};
name = quotedbl;
unicodes = (
);
width = 550;
};
};
};
},
{
glyphname = numbersign;
layers = (
{
layerId = "1D181ACA-DA77-4A70-94E7-537F1008817F";
name = Regular;
paths = (
{
closed = 1;
nodes = (
"275 487 LINE",
"234 0 LINE",
"180 0 LINE",
"219 487 LINE"
);
},
{
closed = 1;
nodes = (
"424 487 LINE",
"385 0 LINE",
"326 0 LINE",
"366 487 LINE"
);
},
{
closed = 1;
nodes = (
"518 296 LINE",
"129 296 LINE",
"129 341 LINE",
"518 341 LINE"
);
},
{
closed = 1;
nodes = (
"471 146 LINE",
"82 146 LINE",
"82 195 LINE",
"471 195 LINE"
);
}
);
width = 600;
}
);
unicode = 0023;
userData = {
com.typemytype.robofont.layerData = {
background = {
anchors = (
);
components = (
);
contours = (
);
lib = {
};
name = numbersign;
unicodes = (
);
width = 550;
};
};
};
},
{
glyphname = percent;
layers = (
{
layerId = "1D181ACA-DA77-4A70-94E7-537F1008817F";
name = Regular;
paths = (
{
closed = 1;
nodes = (
"293 568 OFFCURVE",
"260 625 OFFCURVE",
"172 625 CURVE SMOOTH",
"84 625 OFFCURVE",
"56 568 OFFCURVE",
"56 495 CURVE SMOOTH",
"56 422 OFFCURVE",
"84 360 OFFCURVE",
"172 360 CURVE SMOOTH",
"260 360 OFFCURVE",
"293 422 OFFCURVE",
"293 495 CURVE SMOOTH"
);
},
{
closed = 1;
nodes = (
"113 534 OFFCURVE",
"118 573 OFFCURVE",
"173 573 CURVE SMOOTH",
"229 573 OFFCURVE",
"238 534 OFFCURVE",
"238 494 CURVE SMOOTH",
"238 454 OFFCURVE",
"229 413 OFFCURVE",
"173 413 CURVE SMOOTH",
"118 413 OFFCURVE",
"113 454 OFFCURVE",
"113 494 CURVE SMOOTH"
);
},
{
closed = 1;
nodes = (
"556 602 LINE",
"109 27 LINE",
"37 27 LINE",
"483 602 LINE"
);
},
{
closed = 1;
nodes = (
"562 208 OFFCURVE",
"529 265 OFFCURVE",
"441 265 CURVE SMOOTH",
"353 265 OFFCURVE",
"325 208 OFFCURVE",
"325 135 CURVE SMOOTH",
"325 62 OFFCURVE",
"353 0 OFFCURVE",
"441 0 CURVE SMOOTH",
"529 0 OFFCURVE",
"562 62 OFFCURVE",
"562 135 CURVE SMOOTH"
);
},
{
closed = 1;
nodes = (
"382 174 OFFCURVE",
"387 213 OFFCURVE",
"442 213 CURVE SMOOTH",
"498 213 OFFCURVE",
"507 174 OFFCURVE",
"507 134 CURVE SMOOTH",
"507 94 OFFCURVE",
"498 53 OFFCURVE",
"442 53 CURVE SMOOTH",
"387 53 OFFCURVE",
"382 94 OFFCURVE",
"382 134 CURVE SMOOTH"
);
}
);
width = 600;
}
);
unicode = 0025;
userData = {
com.typemytype.robofont.layerData = {
background = {
anchors = (
);
components = (
);
contours = (
);
lib = {
};
name = percent;
unicodes = (
);
width = 550;
};
};
};
},
{
glyphname = ampersand;
layers = (
{
layerId = "1D181ACA-DA77-4A70-94E7-537F1008817F";
name = Regular;
paths = (
{
closed = 1;
nodes = (
"559 0 LINE",
"217 418 LINE",
"217 418 OFFCURVE",
"155 488 OFFCURVE",
"155 534 CURVE SMOOTH",
"155 583 OFFCURVE",
"181 614 OFFCURVE",
"240 614 CURVE SMOOTH",
"299 614 OFFCURVE",
"336 585 OFFCURVE",
"338 539 CURVE",
"411 539 LINE",
"410 625 OFFCURVE",
"346 680 OFFCURVE",
"246 680 CURVE SMOOTH",
"141 680 OFFCURVE",
"75 622 OFFCURVE",
"75 532 CURVE SMOOTH",
"75 457 OFFCURVE",
"155 374 OFFCURVE",
"155 374 CURVE",
"457 0 LINE"
);
},
{
closed = 1;
nodes = (
"199 398 LINE",
"158 374 LINE",
"158 374 OFFCURVE",
"40 313 OFFCURVE",
"40 174 CURVE SMOOTH",
"40 74 OFFCURVE",
"136 -6 OFFCURVE",
"255 -6 CURVE SMOOTH",
"401 -6 OFFCURVE",
"504 82 OFFCURVE",
"504 204 CURVE",
"504 303 LINE",
"433 303 LINE",
"433 204 LINE",
"433 119 OFFCURVE",
"364 58 OFFCURVE",
"270 58 CURVE SMOOTH",
"178 58 OFFCURVE",
"119 103 OFFCURVE",
"119 173 CURVE SMOOTH",
"119 270 OFFCURVE",
"196 320 OFFCURVE",
"196 320 CURVE",
"247 349 LINE"
);
}
);
width = 600;
}
);
unicode = 0026;
userData = {
com.typemytype.robofont.layerData = {
background = {
anchors = (
);
components = (
);
contours = (
);
lib = {
};
name = ampersand;
unicodes = (
);
width = 550;
};
};
};
},
{
glyphname = quotesingle;
layers = (
{
layerId = "1D181ACA-DA77-4A70-94E7-537F1008817F";
name = Regular;
paths = (
{
closed = 1;
nodes = (
"259 675 LINE",
"266 384 LINE",
"341 384 LINE",
"341 675 LINE"
);
}
);
width = 600;
}
);
unicode = 0027;
userData = {
com.typemytype.robofont.layerData = {
background = {
anchors = (
);
components = (
);
contours = (
);
lib = {
};
name = quotesingle;
unicodes = (
);
width = 550;
};
};
};
},
{
glyphname = asterisk;
layers = (
{
layerId = "1D181ACA-DA77-4A70-94E7-537F1008817F";
name = Regular;
paths = (
{
closed = 1;
nodes = (
"324 203 LINE",
"322 300 LINE",
"403 245 LINE",
"428 283 LINE",
"338 340 LINE",
"428 399 LINE",
"403 437 LINE",
"323 382 LINE",
"324 479 LINE",
"277 479 LINE",
"279 382 LINE",
"197 437 LINE",
"172 399 LINE",
"262 341 LINE",
"172 283 LINE",
"197 245 LINE",
"278 300 LINE",
"277 203 LINE"
);
}
);
width = 600;
}
);
unicode = 002A;
userData = {
com.typemytype.robofont.layerData = {
background = {
anchors = (
);
components = (
);
contours = (
);
lib = {
};
name = asterisk;
unicodes = (
);
width = 550;
};
};
};
},
{
glyphname = comma;
layers = (
{
layerId = "1D181ACA-DA77-4A70-94E7-537F1008817F";
name = Regular;
paths = (
{
closed = 1;
nodes = (
"393 146 LINE",
"257 146 LINE",
"257 0 LINE",
"206 -147 LINE",
"307 -147 LINE",
"393 0 LINE"
);
}
);
width = 600;
}
);
unicode = 002C;
userData = {
com.typemytype.robofont.layerData = {
background = {
anchors = (
);
components = (
);
contours = (
);
lib = {
};
name = comma;
unicodes = (
);
width = 550;
};
};
};
},
{
glyphname = period;
layers = (
{
layerId = "1D181ACA-DA77-4A70-94E7-537F1008817F";
name = Regular;
paths = (
{
closed = 1;
nodes = (
"363 146 LINE",
"237 146 LINE",
"237 0 LINE",
"363 0 LINE"
);
}
);
width = 600;
}
);
unicode = 002E;
userData = {
com.typemytype.robofont.layerData = {
background = {
anchors = (
);
components = (
);
contours = (
);
lib = {
};
name = period;
unicodes = (
);
width = 550;
};
};
};
},
{
glyphname = slash;
layers = (
{
layerId = "1D181ACA-DA77-4A70-94E7-537F1008817F";
name = Regular;
paths = (
{
closed = 1;
nodes = (
"507 636 LINE",
"166 -98 LINE",
"93 -98 LINE",
"434 636 LINE"
);
}
);
width = 600;
}
);
unicode = 002F;
userData = {
com.typemytype.robofont.layerData = {
background = {
anchors = (
);
components = (
);
contours = (
);
lib = {
};
name = slash;
unicodes = (
);
width = 550;
};
};
};
},
{
glyphname = colon;
layers = (
{
layerId = "1D181ACA-DA77-4A70-94E7-537F1008817F";
name = Regular;
paths = (
{
closed = 1;
nodes = (
"363 146 LINE",
"237 146 LINE",
"237 0 LINE",
"363 0 LINE"
);
},
{
closed = 1;
nodes = (
"363 488 LINE",
"237 488 LINE",
"237 342 LINE",
"363 342 LINE"
);
}
);
width = 600;
}
);
unicode = 003A;
userData = {
com.typemytype.robofont.layerData = {
background = {
anchors = (
);
components = (
);
contours = (
);
lib = {
};
name = colon;
unicodes = (
);
width = 550;
};
};
};
},
{
glyphname = semicolon;
layers = (
{
layerId = "1D181ACA-DA77-4A70-94E7-537F1008817F";
name = Regular;
paths = (
{
closed = 1;
nodes = (
"271 342 LINE",
"379 342 LINE"
);
},
{
closed = 1;
nodes = (
"388 488 LINE",
"262 488 LINE",
"262 342 LINE",
"388 342 LINE"
);
},
{
closed = 1;
nodes = (
"388 146 LINE",
"262 146 LINE",
"262 0 LINE",
"211 -147 LINE",
"312 -147 LINE",
"388 0 LINE"
);
}
);
width = 600;
}
);
unicode = 003B;
userData = {
com.typemytype.robofont.layerData = {
background = {
anchors = (
);
components = (
);
contours = (
);
lib = {
};
name = semicolon;
unicodes = (
);
width = 550;
};
};
};
},
{
glyphname = question;
layers = (
{
layerId = "1D181ACA-DA77-4A70-94E7-537F1008817F";
name = Regular;
paths = (
{
closed = 1;
nodes = (
"243 276 LINE SMOOTH",
"243 394 OFFCURVE",
"420 423 OFFCURVE",
"420 503 CURVE SMOOTH",
"420 607 OFFCURVE",
"293 597 OFFCURVE",
"293 597 CURVE",
"180 597 OFFCURVE",
"135 535 OFFCURVE",
"135 535 CURVE",
"90 592 LINE",
"90 592 OFFCURVE",
"172 675 OFFCURVE",
"293 675 CURVE SMOOTH",
"429 675 OFFCURVE",
"510 608 OFFCURVE",
"510 494 CURVE SMOOTH",
"510 390 OFFCURVE",
"336 359 OFFCURVE",
"336 273 CURVE SMOOTH",
"336 239 LINE",
"243 239 LINE"
);
},
{
closed = 1;
nodes = (
"336 97 LINE",
"243 97 LINE",
"243 0 LINE",
"336 0 LINE"
);
}
);
width = 600;
}
);
unicode = 003F;
userData = {
com.typemytype.robofont.layerData = {
background = {
anchors = (
);
components = (
);
contours = (
);
lib = {
};
name = question;
unicodes = (
);
width = 550;
};
};
};
},
{
glyphname = at;
layers = (
{
layerId = "1D181ACA-DA77-4A70-94E7-537F1008817F";
name = Regular;
paths = (
{
closed = 1;
nodes = (
"385 319 CURVE",
"389 388 LINE",
"389 388 OFFCURVE",
"325 403 OFFCURVE",
"250 403 CURVE SMOOTH",
"147 403 OFFCURVE",
"47 363 OFFCURVE",
"47 204 CURVE SMOOTH",
"47 46 OFFCURVE",
"135 -11 OFFCURVE",
"216 -11 CURVE SMOOTH",
"319 -11 OFFCURVE",
"349 96 OFFCURVE",
"349 96 CURVE",
"333 137 LINE",
"333 137 OFFCURVE",
"295 50 OFFCURVE",
"217 50 CURVE SMOOTH",
"167 50 OFFCURVE",
"129 101 OFFCURVE",
"129 202 CURVE SMOOTH",
"129 298 OFFCURVE",
"169 334 OFFCURVE",
"247 334 CURVE SMOOTH",
"313 334 OFFCURVE",
"385 319 OFFCURVE"
);
},
{
closed = 1;
nodes = (
"316 93 LINE",
"316 93 OFFCURVE",
"305 -6 OFFCURVE",
"416 -6 CURVE SMOOTH",
"497 -6 OFFCURVE",
"570 115 OFFCURVE",
"570 300 CURVE SMOOTH",
"570 515 OFFCURVE",
"430 633 OFFCURVE",
"267 633 CURVE SMOOTH",
"135 633 OFFCURVE",
"29 543 OFFCURVE",
"29 543 CURVE",
"69 483 LINE SMOOTH",
"69 483 OFFCURVE",
"157 562 OFFCURVE",
"267 562 CURVE SMOOTH",
"393 562 OFFCURVE",
"497 471 OFFCURVE",
"497 302 CURVE SMOOTH",
"497 140 OFFCURVE",
"460 45 OFFCURVE",
"413 45 CURVE SMOOTH",
"386 45 OFFCURVE",
"389 93 OFFCURVE",
"389 93 CURVE",
"389 388 LINE",
"316 361 LINE"
);
}
);
width = 600;
}
);
unicode = 0040;
userData = {
com.typemytype.robofont.layerData = {
background = {
anchors = (
);
components = (
);
contours = (
);
lib = {
};
name = at;
unicodes = (
);
width = 550;
};
};
};
},
{
glyphname = backslash;
layers = (
{
layerId = "1D181ACA-DA77-4A70-94E7-537F1008817F";
name = Regular;
paths = (
{
closed = 1;
nodes = (
"93 636 LINE",
"167 636 LINE",
"507 -98 LINE",
"435 -98 LINE"
);
}
);
width = 600;
}
);
unicode = 005C;
userData = {
com.typemytype.robofont.layerData = {
background = {
anchors = (
);
components = (
);
contours = (
);
lib = {
};
name = backslash;
unicodes = (
);
width = 550;
};
};
};
},
{
glyphname = exclamdown;
layers = (
{
layerId = "1D181ACA-DA77-4A70-94E7-537F1008817F";
name = Regular;
paths = (
{
closed = 1;
nodes = (
"343 -198 LINE",
"336 239 LINE",
"264 239 LINE",
"257 -198 LINE"
);
},
{
closed = 1;
nodes = (
"260 364 LINE",
"341 364 LINE",
"341 477 LINE",
"260 477 LINE"
);
}
);
width = 600;
}
);
unicode = 00A1;
userData = {
com.typemytype.robofont.layerData = {
background = {
anchors = (
);
components = (
);
contours = (
);
lib = {
};
name = exclamdown;
unicodes = (
);
width = 550;
};
};
};
},
{
glyphname = periodcentered;
layers = (
{
layerId = "1D181ACA-DA77-4A70-94E7-537F1008817F";
name = Regular;
paths = (
{
closed = 1;
nodes = (
"364 361 LINE",
"236 361 LINE",
"236 199 LINE",
"364 199 LINE"
);
}
);
width = 600;
}
);
unicode = 00B7;
userData = {
com.typemytype.robofont.layerData = {
background = {
anchors = (
);
components = (
);
contours = (
);
lib = {
};
name = periodcentered;
unicodes = (
);
width = 550;
};
};
};
},
{
glyphname = questiondown;
layers = (
{
layerId = "1D181ACA-DA77-4A70-94E7-537F1008817F";
name = Regular;
paths = (
{
closed = 1;
nodes = (
"243 211 CURVE SMOOTH",
"243 248 LINE",
"336 248 LINE",
"336 214 LINE SMOOTH",
"336 128 OFFCURVE",
"510 97 OFFCURVE",
"510 -7 CURVE SMOOTH",
"510 -133 OFFCURVE",
"394 -188 OFFCURVE",
"293 -188 CURVE SMOOTH",
"172 -188 OFFCURVE",
"90 -105 OFFCURVE",
"90 -105 CURVE",
"135 -48 LINE",
"135 -48 OFFCURVE",
"180 -110 OFFCURVE",
"293 -110 CURVE",
"293 -110 OFFCURVE",
"420 -119 OFFCURVE",
"420 -16 CURVE SMOOTH",
"420 65 OFFCURVE",
"243 93 OFFCURVE"
);
},
{
closed = 1;
nodes = (
"336 390 LINE",
"336 487 LINE",
"243 487 LINE",
"243 390 LINE"
);
}
);
width = 600;
}
);
unicode = 00BF;
userData = {
com.typemytype.robofont.layerData = {
background = {
anchors = (
);
components = (
);
contours = (
);
lib = {
};
name = questiondown;
unicodes = (
);
width = 550;
};
};
};
},
{
glyphname = bullet;
lastChange = "2015-01-29 05:01:45 +0000";
layers = (
{
layerId = "1D181ACA-DA77-4A70-94E7-537F1008817F";
name = Regular;
paths = (
{
closed = 1;
nodes = (
"188 111 LINE",
"424 111 LINE",
"424 347 LINE",
"188 347 LINE"
);
}
);
width = 600;
}
);
unicode = 2022;
userData = {
com.typemytype.robofont.layerData = {
background = {
anchors = (
);
components = (
);
contours = (
);
lib = {
};
name = bullet;
unicodes = (
);
width = 550;
};
};
};
},
{
glyphname = ellipsis;
lastChange = "2015-01-29 05:04:33 +0000";
layers = (
{
layerId = "1D181ACA-DA77-4A70-94E7-537F1008817F";
name = Regular;
paths = (
{
closed = 1;
nodes = (
"139 111 LINE",
"13 111 LINE",
"13 1 LINE",
"139 1 LINE"
);
},
{
closed = 1;
nodes = (
"360 111 LINE",
"234 111 LINE",
"234 1 LINE",
"360 1 LINE"
);
},
{
closed = 1;
nodes = (
"583 112 LINE",
"457 112 LINE",
"457 1 LINE",
"583 1 LINE"
);
}
);
width = 600;
}
);
unicode = 2026;
userData = {
com.typemytype.robofont.layerData = {
background = {
anchors = (
);
components = (
);
contours = (
);
lib = {
};
name = ellipsis;
unicodes = (
);
width = 550;
};
};
};
},
{
glyphname = plus;
layers = (
{
layerId = "1D181ACA-DA77-4A70-94E7-537F1008817F";
name = Regular;
paths = (
{
closed = 1;
nodes = (
"323 440 LINE",
"323 99 LINE",
"275 99 LINE",
"275 440 LINE"
);
},
{
closed = 1;
nodes = (
"470 246 LINE",
"129 246 LINE",
"129 293 LINE",
"470 293 LINE"
);
}
);
width = 600;
}
);
unicode = 002B;
userData = {
com.typemytype.robofont.layerData = {
background = {
anchors = (
);
components = (
);
contours = (
);
lib = {
};
name = plus;
unicodes = (
);
width = 550;
};
};
};
},
{
glyphname = less;
layers = (
{
layerId = "1D181ACA-DA77-4A70-94E7-537F1008817F";
name = Regular;
paths = (
{
closed = 1;
nodes = (
"470 488 LINE",
"130 293 LINE",
"130 293 OFFCURVE",
"130 196 OFFCURVE",
"130 196 CURVE",
"470 -6 LINE",
"470 85 LINE",
"205 245 LINE",
"470 402 LINE"
);
}
);
width = 600;
}
);
unicode = 003C;
userData = {
com.typemytype.robofont.layerData = {
background = {
anchors = (
);
components = (
);
contours = (
);
lib = {
};
name = less;
unicodes = (
);
width = 550;
};
};
};
},
{
glyphname = equal;
layers = (
{
layerId = "1D181ACA-DA77-4A70-94E7-537F1008817F";
name = Regular;
paths = (
{
closed = 1;
nodes = (
"471 196 LINE",
"129 196 LINE",
"129 244 LINE",
"471 244 LINE"
);
},
{
closed = 1;
nodes = (
"471 342 LINE",
"129 342 LINE",
"129 390 LINE",
"471 390 LINE"
);
}
);
width = 600;
}
);
unicode = 003D;
userData = {
com.typemytype.robofont.layerData = {
background = {
anchors = (
);
components = (
);
contours = (
);
lib = {
};
name = equal;
unicodes = (
);
width = 550;
};
};
};
},
{
glyphname = greater;
layers = (
{
layerId = "1D181ACA-DA77-4A70-94E7-537F1008817F";
name = Regular;
paths = (
{
closed = 1;
nodes = (
"130 488 LINE",
"130 402 LINE",
"395 245 LINE",
"130 85 LINE",
"130 -6 LINE",
"470 196 LINE",
"470 196 OFFCURVE",
"470 293 OFFCURVE",
"470 293 CURVE"
);
}
);
width = 600;
}
);
unicode = 003E;
userData = {
com.typemytype.robofont.layerData = {
background = {
anchors = (
);
components = (
);
contours = (
);
lib = {
};
name = greater;
unicodes = (
);
width = 550;
};
};
};
},
{
glyphname = bar;
lastChange = "2015-01-29 05:00:07 +0000";
layers = (
{
layerId = "1D181ACA-DA77-4A70-94E7-537F1008817F";
name = Regular;
paths = (
{
closed = 1;
nodes = (
"266 -198 CURVE",
"266 675 LINE",
"266 675 OFFCURVE",
"323 675 OFFCURVE",
"323 675 CURVE",
"323 -198 LINE",
"323 -198 OFFCURVE",
"266 -198 OFFCURVE"
);
}
);
width = 600;
}
);
unicode = 007C;
userData = {
com.typemytype.robofont.layerData = {
background = {
anchors = (
);
components = (
);
contours = (
);
lib = {
};
name = bar;
unicodes = (
);
width = 550;
};
};
};
},
{
glyphname = asciitilde;
layers = (
{
layerId = "1D181ACA-DA77-4A70-94E7-537F1008817F";
name = Regular;
paths = (
{
closed = 1;
nodes = (
"127 250 OFFCURVE",
"164 321 OFFCURVE",
"232 321 CURVE SMOOTH",
"299 321 OFFCURVE",
"326 268 OFFCURVE",
"369 268 CURVE SMOOTH",
"408 268 OFFCURVE",
"431 314 OFFCURVE",
"431 314 CURVE",
"431 314 OFFCURVE",
"472 275 OFFCURVE",
"472 275 CURVE",
"472 275 OFFCURVE",
"427 206 OFFCURVE",
"368 206 CURVE SMOOTH",
"308 206 OFFCURVE",
"267 258 OFFCURVE",
"229 258 CURVE SMOOTH",
"190 258 OFFCURVE",
"168 212 OFFCURVE",
"168 212 CURVE",
"127 250 LINE"
);
}
);
width = 600;
}
);
unicode = 007E;
userData = {
com.typemytype.robofont.layerData = {
background = {
anchors = (
);
components = (
);
contours = (
);
lib = {
};
name = asciitilde;
unicodes = (
);
width = 550;
};
};
};
},
{
glyphname = plusminus;
layers = (
{
layerId = "1D181ACA-DA77-4A70-94E7-537F1008817F";
name = Regular;
paths = (
{
closed = 1;
nodes = (
"470 0 LINE",
"129 0 LINE",
"129 48 LINE",
"470 48 LINE"
);
},
{
closed = 1;
nodes = (
"324 489 LINE",
"324 147 LINE",
"275 147 LINE",
"275 489 LINE"
);
},
{
closed = 1;
nodes = (
"470 293 LINE",
"129 293 LINE",
"129 341 LINE",
"470 341 LINE"
);
}
);
width = 600;
}
);
unicode = 00B1;
userData = {
com.typemytype.robofont.layerData = {
background = {
anchors = (
);
components = (
);
contours = (
);
lib = {
};
name = plusminus;
unicodes = (
);
width = 550;
};
};
};
},
{
glyphname = multiply;
layers = (
{
layerId = "1D181ACA-DA77-4A70-94E7-537F1008817F";
name = Regular;
paths = (
{
closed = 1;
nodes = (
"196 407 LINE",
"438 165 LINE",
"404 131 LINE",
"162 373 LINE"
);
},
{
closed = 1;
nodes = (
"438 374 LINE",
"196 132 LINE",
"163 165 LINE",
"405 407 LINE"
);
}
);
width = 600;
}
);
unicode = 00D7;
userData = {
com.typemytype.robofont.layerData = {
background = {
anchors = (
);
components = (
);
contours = (
);
lib = {
};
name = multiply;
unicodes = (
);
width = 550;
};
};
};
},
{
glyphname = divide;
layers = (
{
layerId = "1D181ACA-DA77-4A70-94E7-537F1008817F";
name = Regular;
paths = (
{
closed = 1;
nodes = (
"357 449 OFFCURVE",
"331 478 OFFCURVE",
"300 478 CURVE SMOOTH",
"268 478 OFFCURVE",
"242 453 OFFCURVE",
"242 422 CURVE SMOOTH",
"242 389 OFFCURVE",
"268 364 OFFCURVE",
"300 364 CURVE SMOOTH",
"331 364 OFFCURVE",
"357 389 OFFCURVE",
"357 422 CURVE"
);
},
{
closed = 1;
nodes = (
"357 115 CURVE SMOOTH",
"357 147 OFFCURVE",
"331 172 OFFCURVE",
"300 172 CURVE SMOOTH",
"268 172 OFFCURVE",
"242 147 OFFCURVE",
"242 115 CURVE SMOOTH",
"242 83 OFFCURVE",
"268 58 OFFCURVE",
"300 58 CURVE SMOOTH",
"331 58 OFFCURVE",
"357 83 OFFCURVE"
);
},
{
closed = 1;
nodes = (
"470 246 LINE",
"130 246 LINE",
"130 293 LINE",
"470 293 LINE"
);
}
);
width = 600;
}
);
unicode = 00F7;
userData = {
com.typemytype.robofont.layerData = {
background = {
anchors = (
);
components = (
);
contours = (
);
lib = {
};
name = divide;
unicodes = (
);
width = 550;
};
};
};
},
{
glyphname = dollar;
layers = (
{
layerId = "1D181ACA-DA77-4A70-94E7-537F1008817F";
name = Regular;
paths = (
{
closed = 1;
nodes = (
"485 178 CURVE SMOOTH",
"485 26 OFFCURVE",
"366 27 OFFCURVE",
"275 27 CURVE SMOOTH",
"184 27 OFFCURVE",
"145 45 OFFCURVE",
"114 53 CURVE",
"114 131 LINE",
"114 131 OFFCURVE",
"201 93 OFFCURVE",
"277 93 CURVE SMOOTH",
"338 93 OFFCURVE",
"415 101 OFFCURVE",
"415 175 CURVE SMOOTH",
"415 282 OFFCURVE",
"121 281 OFFCURVE",
"121 451 CURVE SMOOTH",
"121 531 OFFCURVE",
"184 595 OFFCURVE",
"297 595 CURVE SMOOTH",
"385 595 OFFCURVE",
"458 564 OFFCURVE",
"458 564 CURVE",
"458 501 LINE",
"458 501 OFFCURVE",
"375 533 OFFCURVE",
"306 533 CURVE SMOOTH",
"222 533 OFFCURVE",
"192 501 OFFCURVE",
"192 450 CURVE SMOOTH",
"192 349 OFFCURVE",
"485 329 OFFCURVE"
);
},
{
closed = 1;
nodes = (
"276 -99 CURVE",
"276 676 LINE",
"337 676 LINE",
"337 -99 LINE",
"337 -99 OFFCURVE",
"276 -99 OFFCURVE"
);
}
);
width = 600;
}
);
unicode = 0024;
userData = {
com.typemytype.robofont.layerData = {
background = {
anchors = (
);
components = (
);
contours = (
);
lib = {
};
name = dollar;
unicodes = (
);
width = 550;
};
};
};
},
{
glyphname = cent;
layers = (
{
layerId = "1D181ACA-DA77-4A70-94E7-537F1008817F";
name = Regular;
paths = (
{
closed = 1;
nodes = (
"173 533 OFFCURVE",
"127 447 OFFCURVE",
"121 309 CURVE",
"127 171 OFFCURVE",
"173 88 OFFCURVE",
"310 88 CURVE SMOOTH",
"419 88 OFFCURVE",
"478 121 OFFCURVE",
"478 121 CURVE",
"478 189 LINE",
"478 189 OFFCURVE",
"413 157 OFFCURVE",
"333 157 CURVE SMOOTH",
"255 157 OFFCURVE",
"204 174 OFFCURVE",
"202 309 CURVE SMOOTH",
"204 444 OFFCURVE",
"256 465 OFFCURVE",
"334 465 CURVE SMOOTH",
"414 465 OFFCURVE",
"479 431 OFFCURVE",
"479 431 CURVE",
"479 500 LINE",
"479 500 OFFCURVE",
"420 533 OFFCURVE",
"311 533 CURVE SMOOTH"
);
},
{
closed = 1;
nodes = (
"353 -99 OFFCURVE",
"353 -99 CURVE",
"353 676 LINE",
"292 676 LINE",
"292 -99 LINE",
"292 -99 OFFCURVE"
);
}
);
width = 600;
}
);
unicode = 00A2;
userData = {
com.typemytype.robofont.layerData = {
background = {
anchors = (
);
components = (
);
contours = (
);
lib = {
};
name = cent;
unicodes = (
);
width = 550;
};
};
};
},
{
glyphname = onesuperior;
layers = (
{
layerId = "1D181ACA-DA77-4A70-94E7-537F1008817F";
name = Regular;
paths = (
{
closed = 1;
nodes = (
"320 385 LINE",
"320 626 LINE",
"279 626 LINE",
"231 615 LINE",
"231 584 LINE",
"279 591 LINE",
"279 385 LINE",
"214 385 LINE",
"214 356 LINE",
"386 356 LINE",
"386 385 LINE"
);
}
);
width = 600;
}
);
userData = {
com.typemytype.robofont.layerData = {
background = {
anchors = (
);
components = (
);
contours = (
);
lib = {
};
name = onesuperior;
unicodes = (
);
width = 550;
};
};
};
},
{
glyphname = threesuperior;
layers = (
{
layerId = "1D181ACA-DA77-4A70-94E7-537F1008817F";
name = Regular;
paths = (
{
closed = 1;
nodes = (
"216 393 CURVE",
"216 357 LINE",
"216 357 OFFCURVE",
"240 351 OFFCURVE",
"286 351 CURVE SMOOTH",
"349 351 OFFCURVE",
"383 378 OFFCURVE",
"383 428 CURVE SMOOTH",
"383 473 OFFCURVE",
"362 497 OFFCURVE",
"325 497 CURVE",
"355 497 OFFCURVE",
"369 518 OFFCURVE",
"369 556 CURVE SMOOTH",
"369 603 OFFCURVE",
"340 628 OFFCURVE",
"286 628 CURVE SMOOTH",
"234 628 OFFCURVE",
"216 618 OFFCURVE",
"216 618 CURVE",
"216 589 LINE",
"216 589 OFFCURVE",
"240 600 OFFCURVE",
"279 600 CURVE SMOOTH",
"315 600 OFFCURVE",
"336 586 OFFCURVE",
"336 559 CURVE SMOOTH",
"336 526 OFFCURVE",
"320 511 OFFCURVE",
"292 511 CURVE SMOOTH",
"258 511 LINE",
"258 477 LINE",
"295 477 LINE SMOOTH",
"327 477 OFFCURVE",
"346 462 OFFCURVE",
"346 428 CURVE SMOOTH",
"346 398 OFFCURVE",
"325 386 OFFCURVE",
"286 386 CURVE SMOOTH",
"244 386 OFFCURVE",
"216 393 OFFCURVE"
);
}
);
width = 600;
}
);
userData = {
com.typemytype.robofont.layerData = {
background = {
anchors = (
);
components = (
);
contours = (
);
lib = {
};
name = threesuperior;
unicodes = (
);
width = 550;
};
};
};
},
{
glyphname = twosuperior;
layers = (
{
layerId = "1D181ACA-DA77-4A70-94E7-537F1008817F";
name = Regular;
paths = (
{
closed = 1;
nodes = (
"340 555 CURVE SMOOTH",
"340 580 OFFCURVE",
"322 597 OFFCURVE",
"289 597 CURVE SMOOTH",
"248 597 OFFCURVE",
"205 563 OFFCURVE",
"205 563 CURVE",
"205 602 LINE",
"205 602 OFFCURVE",
"244 629 OFFCURVE",
"292 629 CURVE SMOOTH",
"348 629 OFFCURVE",
"377 604 OFFCURVE",
"377 555 CURVE SMOOTH",
"377 515 OFFCURVE",
"350 487 OFFCURVE",
"350 487 CURVE",
"257 392 LINE",
"395 392 LINE",
"395 357 LINE",
"205 357 LINE",
"205 386 LINE",
"325 512 LINE",
"325 512 OFFCURVE",
"340 526 OFFCURVE"
);
}
);
width = 600;
}
);
userData = {
com.typemytype.robofont.layerData = {
background = {
anchors = (
);
components = (
);
contours = (
);
lib = {
};
name = twosuperior;
unicodes = (
);
width = 550;
};
};
};
},
{
glyphname = .notdef;
layers = (
{
layerId = "1D181ACA-DA77-4A70-94E7-537F1008817F";
name = Regular;
paths = (
{
closed = 1;
nodes = (
"505 675 LINE",
"95 675 LINE",
"95 -197 LINE",
"505 -197 LINE"
);
},
{
closed = 1;
nodes = (
"453 624 LINE",
"453 -146 LINE",
"148 -146 LINE",
"148 624 LINE"
);
},
{
closed = 1;
nodes = (
"277 179 LINE SMOOTH",
"277 257 OFFCURVE",
"377 270 OFFCURVE",
"377 323 CURVE SMOOTH",
"377 398 OFFCURVE",
"289 393 OFFCURVE",
"289 393 CURVE",
"232 393 OFFCURVE",
"171 358 OFFCURVE",
"171 358 CURVE",
"171 408 LINE",
"171 408 OFFCURVE",
"210 443 OFFCURVE",
"289 443 CURVE SMOOTH",
"356 443 OFFCURVE",
"432 407 OFFCURVE",
"432 324 CURVE SMOOTH",
"432 256 OFFCURVE",
"330 235 OFFCURVE",
"330 179 CURVE SMOOTH",
"330 156 LINE",
"277 156 LINE"
);
},
{
closed = 1;
nodes = (
"330 75 LINE",
"277 75 LINE",
"277 0 LINE",
"330 0 LINE"
);
}
);
width = 600;
}
);
userData = {
com.typemytype.robofont.layerData = {
background = {
anchors = (
);
components = (
);
contours = (
);
lib = {
};
name = .notdef;
unicodes = (
);
width = 550;
};
};
};
},
